<svg width="129" height="30" viewBox="0 0 129 30" fill="none" xmlns="http://www.w3.org/2000/svg">
<rect width="129" height="30" rx="15" fill="#475FFD"/>
<path d="M31.6621 18.5645V19.6309H20.4512V18.5645H25.4004V15.666H26.6992V18.5645H31.6621ZM20.9707 15.1055C23.2471 14.7227 25.3594 13.0205 25.3594 11.1406V11.0312H21.3809V9.96484H30.6914V11.0312H26.7129V11.1406C26.7129 13.0205 28.8389 14.6885 31.1699 15.0508L30.6504 16.0762C28.668 15.707 26.8428 14.5586 26.043 12.9453C25.2568 14.5791 23.4453 15.748 21.5039 16.1309L20.9707 15.1055ZM42.1758 8.91211V11.9336H43.9531V13.0273H42.1758V16.0762H40.877V8.91211H42.1758ZM32.4824 14.9688C35.4219 14.1963 37.165 12.6445 37.3906 10.7168H33.0703V9.66406H38.7852C38.7783 12.8154 36.6523 15.0303 33.0156 15.9668L32.4824 14.9688ZM34.082 17.6621V16.6094H42.1758V21.1621H40.877V17.6621H34.082ZM54.2754 9.99219V15.707H48.5469V9.99219H54.2754ZM49.8184 14.6816H53.0039V11.0449H49.8184V14.6816ZM49.9277 20.9023V17.0195H51.2266V19.8496H58.2129V20.9023H49.9277ZM56.3945 17.8809V8.89844H57.6934V12.5625H59.4707V13.6562H57.6934V17.8809H56.3945ZM71.3516 13.9297V14.9688H60.168V13.9297H71.3516ZM61.5078 16.9375V15.9395H69.9297V18.9062H62.793V20H70.2715V21.0254H61.5215V17.9492H68.6445V16.9375H61.5078ZM61.6309 13.041V9.26758H69.9023V10.3203H62.9297V12.002H70.0254V13.041H61.6309ZM82.4668 8.91211V21.1895H81.1816V14.5996H78.9395V13.5195H81.1816V8.91211H82.4668ZM72.6914 11.0723V10.0195H78.2148V14.3945H74.0176V17.1836C75.9727 17.1699 77.4766 17.1084 79.1855 16.8008L79.2949 17.8672C77.4629 18.1885 75.8496 18.2637 73.6895 18.2773H72.7188V13.3418H76.957V11.0723H72.6914ZM93.9102 8.91211V13.793H95.8105V14.873H93.9102V21.1484H92.6113V8.91211H93.9102ZM84.3809 17.8809C87.4502 16.3496 89.1182 14.1348 89.3848 11.2773H84.9961V10.1973H90.7109C90.6973 13.7383 89.1387 16.9033 85.1055 18.8926L84.3809 17.8809ZM106.652 8.91211V21.1621H105.34V8.91211H106.652ZM96.5898 17.8809C99.8438 16.3291 101.437 14.1211 101.689 11.2637H97.1777V10.2246H103.002C103.002 13.8135 101.478 16.917 97.2734 18.9336L96.5898 17.8809Z" fill="white"/>
</svg>
