<svg width="100" height="100" viewBox="0 0 100 100" fill="none" xmlns="http://www.w3.org/2000/svg">
<circle cx="50" cy="50" r="50" fill="#EEF0F8"/>
<path d="M30 72C30 72 26 72 26 68C26 64 30 52 50 52C70 52 74 64 74 68C74 72 70 72 70 72H30ZM50 48C53.1826 48 56.2348 46.7357 58.4853 44.4853C60.7357 42.2348 62 39.1826 62 36C62 32.8174 60.7357 29.7652 58.4853 27.5147C56.2348 25.2643 53.1826 24 50 24C46.8174 24 43.7652 25.2643 41.5147 27.5147C39.2643 29.7652 38 32.8174 38 36C38 39.1826 39.2643 42.2348 41.5147 44.4853C43.7652 46.7357 46.8174 48 50 48Z" fill="#BFC3D5"/>
</svg>
