<svg width="107" height="102" viewBox="0 0 107 102" fill="none" xmlns="http://www.w3.org/2000/svg">
<circle cx="50" cy="50" r="50" fill="#EEF0F8"/>
<path d="M30 72C30 72 26 72 26 68C26 64 30 52 50 52C70 52 74 64 74 68C74 72 70 72 70 72H30ZM50 48C53.1826 48 56.2348 46.7357 58.4853 44.4853C60.7357 42.2348 62 39.1826 62 36C62 32.8174 60.7357 29.7652 58.4853 27.5147C56.2348 25.2643 53.1826 24 50 24C46.8174 24 43.7652 25.2643 41.5147 27.5147C39.2643 29.7652 38 32.8174 38 36C38 39.1826 39.2643 42.2348 41.5147 44.4853C43.7652 46.7357 46.8174 48 50 48Z" fill="#BFC3D5"/>
<circle cx="89" cy="84" r="17" fill="#475FFD" stroke="white" stroke-width="2"/>
<path d="M88 91.1194H96M94 80.1194L95 81.1194M95.5 77.6194C95.697 77.8164 95.8533 78.0502 95.9599 78.3076C96.0666 78.565 96.1215 78.8408 96.1215 79.1194C96.1215 79.398 96.0666 79.6739 95.9599 79.9312C95.8533 80.1886 95.697 80.4224 95.5 80.6194L86 90.1194L82 91.1194L83 87.1754L92.504 77.6234C92.8786 77.247 93.3811 77.0252 93.9116 77.002C94.4422 76.9789 94.962 77.156 95.368 77.4984L95.5 77.6194Z" stroke="white" stroke-width="1.5" stroke-linecap="round" stroke-linejoin="round"/>
</svg>
