<svg width="320" height="326" viewBox="0 0 320 326" fill="none" xmlns="http://www.w3.org/2000/svg">
<ellipse cx="160" cy="162.866" rx="160" ry="162.866" fill="#E8EBFE"/>
<path d="M113.256 61.8596C112.958 60.7959 113.612 59.9102 114.716 59.8812L238.277 56.6457C241.364 56.5648 244.19 59.7423 243.35 62.3511L227.368 112.014C227.172 112.624 227.38 113.367 227.912 113.958L271.248 162.067C273.524 164.595 272.505 167.873 269.417 167.954L145.857 171.189C144.753 171.218 143.616 170.379 143.319 169.316L113.256 61.8596Z" fill="#11D796"/>
<path d="M7.64209 38.3145L137.568 34.9122C148.61 34.6231 159.973 43.0119 162.949 53.6491L188.701 145.697L38.7827 149.623L7.64209 38.3145Z" fill="#475FFD"/>
<path d="M143.762 171.568L188.657 145.777L137.075 147.21L143.762 171.568Z" fill="black"/>
<path d="M7.64209 38.3145L75.463 272.822" stroke="#24252E" stroke-width="10" stroke-linecap="round" stroke-linejoin="round"/>
<path d="M74.5078 85.0156L96.478 101.732L128.956 65.9111" stroke="white" stroke-width="6" stroke-linecap="round" stroke-linejoin="round"/>
<rect x="106.985" y="195.821" width="206.328" height="43.9403" rx="20" fill="#475FFD"/>
<path d="M134.758 207.188V226.738H132.116V216.963H130.29V225.793H127.711V207.51H130.29V214.75H132.116V207.188H134.758ZM118.688 221.969V209.357H121.438V219.573C123.006 219.53 124.736 219.391 126.616 219.025L126.895 221.389C124.274 221.84 122.04 221.979 120.02 221.969H118.688ZM149.368 209.852C149.357 212.462 150.7 214.879 153.836 215.846L152.397 217.994C150.292 217.264 148.863 215.921 148.036 214.159C147.176 216.2 145.597 217.801 143.245 218.596L141.805 216.404C145.146 215.33 146.585 212.709 146.596 209.98V208.197H149.368V209.852ZM145.049 222.957C145.049 220.551 147.606 219.144 151.774 219.154C155.953 219.144 158.509 220.551 158.52 222.957C158.509 225.374 155.953 226.749 151.774 226.738C147.606 226.749 145.049 225.374 145.049 222.957ZM147.778 222.957C147.778 224.042 149.185 224.611 151.774 224.611C154.374 224.611 155.781 224.042 155.792 222.957C155.781 221.84 154.374 221.281 151.774 221.281C149.185 221.281 147.778 221.84 147.778 222.957ZM152.053 213.01V210.775H155.727V207.188H158.456V218.639H155.727V213.01H152.053ZM172.743 209.143V211.27H168.875C168.94 212.806 170.326 214.213 173.215 214.75L172.141 216.855C169.928 216.426 168.403 215.448 167.533 214.138C166.673 215.577 165.116 216.673 162.817 217.135L161.7 215.008C164.654 214.449 166.029 212.913 166.104 211.27H162.215V209.143H166.125V207.23H168.875V209.143H172.743ZM161.034 217.973C164.643 217.973 169.456 217.94 173.581 217.414L173.752 219.391C172.141 219.67 170.487 219.853 168.854 219.971V226.137H166.125V220.121C164.428 220.186 162.806 220.186 161.377 220.186L161.034 217.973ZM174.762 226.738V207.209H177.469V226.738H174.762ZM188.92 207.359C193.421 207.359 196.021 208.541 196.032 210.711C196.021 212.87 193.421 214.041 188.92 214.041C184.409 214.041 181.788 212.87 181.788 210.711C181.788 208.541 184.409 207.359 188.92 207.359ZM180.004 217.006V214.857H197.836V217.006H193.368V218.381H195.667V223.365H184.774V224.547H196.182V226.609H182.088V221.453H192.959V220.379H182.067V218.381H184.495V217.006H180.004ZM184.667 210.711C184.656 211.646 186.052 212.032 188.92 212.043C191.81 212.032 193.196 211.646 193.196 210.711C193.196 209.819 191.81 209.379 188.92 209.379C186.052 209.379 184.656 209.819 184.667 210.711ZM187.202 218.381H190.639V217.006H187.202V218.381ZM211.221 210.26C211.21 212.634 212.596 214.911 215.69 215.867L214.229 217.994C212.156 217.307 210.706 215.975 209.868 214.267C209.019 216.232 207.504 217.779 205.27 218.531L203.788 216.383C207.053 215.298 208.45 212.698 208.471 210.002V208.219H211.221V210.26ZM206.495 222.957C206.484 220.583 209.073 219.176 213.198 219.176C217.248 219.176 219.783 220.583 219.793 222.957C219.783 225.353 217.248 226.749 213.198 226.738C209.073 226.749 206.484 225.353 206.495 222.957ZM209.245 222.957C209.223 224.063 210.63 224.59 213.198 224.59C215.733 224.59 217.086 224.063 217.086 222.957C217.086 221.894 215.733 221.324 213.198 221.324C210.63 221.324 209.223 221.894 209.245 222.957ZM216.85 218.789V207.188H219.6V211.764H222.243V214.041H219.6V218.789H216.85ZM229.483 208.004C232.469 207.982 234.639 209.69 234.639 212.15C234.639 214.589 232.469 216.318 229.483 216.297C226.507 216.318 224.337 214.589 224.348 212.15C224.337 209.69 226.507 207.982 229.483 208.004ZM223.145 217.5C226.615 217.489 231.524 217.425 235.692 216.791L235.864 218.811C234.252 219.133 232.598 219.337 230.965 219.466V226.158H228.237V219.627C226.518 219.702 224.896 219.713 223.489 219.734L223.145 217.5ZM226.991 212.15C226.98 213.375 228.022 214.084 229.483 214.062C230.987 214.084 232.04 213.375 232.04 212.15C232.04 210.904 230.987 210.185 229.483 210.195C228.022 210.185 226.98 210.904 226.991 212.15ZM236.874 226.738V207.209H239.581V226.738H236.874ZM254.534 209.207V224.762H251.29V212.279H251.204L247.637 214.514V211.656L251.483 209.207H254.534ZM264.18 224.977C260.281 224.977 257.928 222.076 257.928 216.984C257.928 211.903 260.302 208.992 264.18 208.992C268.058 208.992 270.432 211.903 270.432 216.984C270.432 222.098 268.069 224.977 264.18 224.977ZM261.237 216.984C261.215 220.572 262.375 222.312 264.18 222.312C265.985 222.312 267.134 220.572 267.124 216.984C267.134 213.429 265.974 211.646 264.18 211.635C262.386 211.646 261.237 213.429 261.237 216.984ZM276.749 216.984C274.417 216.984 273.161 215.287 273.161 212.838C273.161 210.378 274.482 208.67 276.749 208.67C279.08 208.67 280.326 210.378 280.336 212.838C280.326 215.309 279.047 216.984 276.749 216.984ZM275.352 212.838C275.363 214.181 275.846 215.062 276.749 215.072C277.672 215.062 278.134 214.181 278.145 212.838C278.134 211.495 277.715 210.582 276.749 210.582C275.835 210.593 275.363 211.517 275.352 212.838ZM275.395 224.762L286.094 209.207H288.5L277.801 224.762H275.395ZM283.667 221.131C283.667 218.671 284.988 216.974 287.233 216.963C289.585 216.974 290.832 218.671 290.842 221.131C290.832 223.602 289.553 225.277 287.233 225.277C284.923 225.277 283.667 223.58 283.667 221.131ZM285.858 221.131C285.869 222.474 286.352 223.365 287.233 223.365C288.178 223.365 288.64 222.474 288.651 221.131C288.64 219.788 288.21 218.875 287.233 218.896C286.331 218.886 285.869 219.81 285.858 221.131Z" fill="white"/>
<rect x="106.985" y="247.403" width="121.313" height="38.209" rx="19.1045" fill="#A9B4FF"/>
<path d="M127.095 262.05C127.103 264.722 128.181 267.323 130.548 268.347L129.33 269.94C127.751 269.175 126.689 267.753 126.095 265.995C125.486 267.862 124.392 269.394 122.767 270.19L121.517 268.565C123.955 267.464 125.064 264.722 125.08 262.05V259.925H127.095V262.05ZM128.955 264.909V263.3H131.751V258.831H133.72V273.081H131.751V264.909H128.955ZM147.455 258.831V273.081H145.439V258.831H147.455ZM136.251 269.753V259.956H138.251V263.425H141.314V259.956H143.283V269.753H136.251ZM138.251 268.144H141.314V264.972H138.251V268.144ZM156.861 260.706C156.853 262.792 158.705 265.019 161.923 265.565L161.048 267.222C158.564 266.729 156.728 265.331 155.806 263.511C154.869 265.315 153.025 266.722 150.564 267.222L149.705 265.565C152.869 265.003 154.72 262.769 154.736 260.706V259.675H156.861V260.706ZM149.376 271.3V269.659H162.392V271.3H149.376ZM178.845 258.831V273.05H176.83V258.831H178.845ZM166.939 269.019C170.611 267.284 172.228 265.034 172.548 261.878H167.705V260.315H174.58C174.572 264.628 173.064 268.214 167.986 270.612L166.939 269.019ZM189.642 259.878V261.331H181.205V259.878H184.423V258.737H186.408V259.878H189.642ZM180.783 266.659C181.884 266.659 183.126 266.659 184.423 266.62V265.862C182.837 265.644 181.853 264.909 181.861 263.815C181.853 262.495 183.267 261.651 185.423 261.659C187.525 261.651 188.97 262.495 188.986 263.815C188.97 264.901 187.962 265.644 186.408 265.862V266.55C187.548 266.487 188.689 266.401 189.767 266.269L189.908 267.597C186.876 268.12 183.548 268.167 181.048 268.175L180.783 266.659ZM182.783 270.55V269.019H192.673V273.05H190.642V270.55H182.783ZM183.783 263.815C183.775 264.331 184.408 264.604 185.423 264.597C186.4 264.604 187.064 264.331 187.064 263.815C187.064 263.261 186.4 262.987 185.423 262.987C184.408 262.987 183.775 263.261 183.783 263.815ZM190.642 268.456V258.862H192.673V268.456H190.642ZM199.798 262.706C199.791 264.87 200.947 267.37 203.283 268.456L202.173 270.019C200.587 269.292 199.462 267.839 198.822 266.136C198.189 268.011 197.017 269.604 195.376 270.378L194.22 268.8C196.587 267.698 197.783 265.058 197.798 262.706V261.831H194.783V260.206H202.658V261.831H199.798V262.706ZM203.767 273.05V258.831H205.767V264.253H207.861V265.925H205.767V273.05H203.767Z" fill="white"/>
<rect x="234.03" y="247.403" width="78.3284" height="38.209" rx="19.1045" fill="#CCD3FF"/>
<path d="M262.764 258.847V267.034H260.78V265.644H257.577V264.05H260.78V262.69H257.725C256.834 264.94 254.811 266.495 251.686 267.347L250.905 265.769C254.17 264.917 255.78 263.347 256.061 261.394H251.67V259.8H258.233C258.233 260.261 258.202 260.706 258.131 261.128H260.78V258.847H262.764ZM253.17 270.081C253.163 268.323 255.108 267.214 258.03 267.206C260.913 267.214 262.866 268.323 262.874 270.081C262.866 271.862 260.913 272.987 258.03 272.987C255.108 272.987 253.163 271.862 253.17 270.081ZM255.155 270.081C255.155 270.964 256.225 271.409 258.03 271.409C259.795 271.409 260.866 270.964 260.874 270.081C260.866 269.206 259.795 268.753 258.03 268.769C256.225 268.753 255.155 269.206 255.155 270.081ZM276.561 258.831V273.05H274.545V258.831H276.561ZM264.655 269.019C268.327 267.284 269.944 265.034 270.264 261.878H265.42V260.315H272.295C272.288 264.628 270.78 268.214 265.702 270.612L264.655 269.019ZM290.03 265.19V266.769H285.905V269.8H291.452V271.425H278.436V269.8H283.92V266.769H279.967V259.831H289.92V261.425H281.967V265.19H290.03Z" fill="white"/>
</svg>
