<svg width="352" height="444" viewBox="0 0 352 444" fill="none" xmlns="http://www.w3.org/2000/svg">
<g filter="url(#filter0_d_4631_32740)">
<rect x="120" y="152" width="110" height="140" rx="15" fill="#475FFD"/>
</g>
<path d="M148.56 208.203H147.09V195.857H148.56V208.203ZM147.555 201.866H145.34V200.643H147.555V201.866ZM143.296 197.416C143.296 198.592 143.152 199.674 142.865 200.663C142.583 201.647 142.104 202.561 141.43 203.404C140.76 204.243 139.86 204.986 138.729 205.633L137.848 204.58C138.818 204.024 139.595 203.4 140.179 202.707C140.767 202.014 141.19 201.258 141.45 200.438C141.715 199.617 141.847 198.706 141.847 197.703V197.416H143.296ZM142.305 198.64H138.422V197.416H142.305V198.64ZM145.764 207.643H144.342V196.186H145.764V207.643ZM160.331 204.799H158.807V195.871H160.331V204.799ZM160.68 207.984H152.155V206.74H160.68V207.984ZM153.687 207.226H152.155V203.896H153.687V207.226ZM153.598 196.678C154.222 196.678 154.787 196.81 155.293 197.074C155.803 197.339 156.202 197.705 156.489 198.175C156.781 198.644 156.927 199.173 156.927 199.761C156.927 200.362 156.781 200.9 156.489 201.374C156.202 201.843 155.803 202.21 155.293 202.475C154.787 202.739 154.222 202.871 153.598 202.871C152.973 202.871 152.408 202.739 151.902 202.475C151.401 202.21 151.002 201.843 150.706 201.374C150.414 200.9 150.269 200.362 150.269 199.761C150.269 199.173 150.414 198.644 150.706 198.175C151.002 197.705 151.401 197.339 151.902 197.074C152.408 196.81 152.973 196.678 153.598 196.678ZM153.598 198.011C153.247 198.006 152.93 198.077 152.647 198.223C152.369 198.364 152.151 198.569 151.991 198.838C151.832 199.107 151.752 199.414 151.752 199.761C151.752 200.116 151.832 200.431 151.991 200.704C152.151 200.973 152.369 201.18 152.647 201.326C152.93 201.467 153.247 201.538 153.598 201.538C153.944 201.538 154.256 201.467 154.534 201.326C154.812 201.18 155.029 200.973 155.184 200.704C155.343 200.431 155.423 200.116 155.423 199.761C155.423 199.414 155.343 199.107 155.184 198.838C155.029 198.569 154.812 198.364 154.534 198.223C154.256 198.077 153.944 198.006 153.598 198.011ZM176.778 206.672H165.485V205.421H176.778V206.672ZM168.247 198.811H173.969V196.685H175.479V203.22H166.723V196.685H168.247V198.811ZM173.969 202.023V200.007H168.247V202.023H173.969ZM188.146 205.052H186.697V195.871H188.146V205.052ZM187.114 200.684H184.981V199.446H187.114V200.684ZM185.405 204.758H183.997V196.097H185.405V204.758ZM188.481 207.984H179.868V206.74H188.481V207.984ZM181.386 207.212H179.868V204.184H181.386V207.212ZM178.938 202.099C179.9 202.099 180.707 202.076 181.358 202.03C182.015 201.985 182.68 201.898 183.354 201.771L183.505 202.974C182.799 203.097 182.108 203.181 181.434 203.227C180.759 203.272 179.927 203.295 178.938 203.295H178.104V202.099H178.938ZM182.787 200.629H179.574V202.755H178.104V199.48H181.324V198.086H178.077V196.883H182.787V200.629ZM199.966 203.322H198.441V195.857H199.966V203.322ZM191.455 201.183C192.863 201.183 193.996 201.155 194.853 201.101C195.709 201.041 196.55 200.93 197.375 200.766L197.519 202.003C196.694 202.162 195.848 202.27 194.982 202.324C194.121 202.379 192.945 202.409 191.455 202.413H190.402V201.183H191.455ZM196.288 198.024H191.906V201.866H190.402V196.794H196.288V198.024ZM195.789 203.397C196.65 203.393 197.396 203.486 198.024 203.678C198.658 203.865 199.146 204.14 199.487 204.505C199.834 204.869 200.007 205.302 200.007 205.804C200.007 206.305 199.834 206.736 199.487 207.096C199.146 207.46 198.66 207.736 198.031 207.923C197.402 208.114 196.655 208.215 195.789 208.224C194.919 208.215 194.167 208.114 193.533 207.923C192.9 207.736 192.414 207.46 192.077 207.096C191.74 206.736 191.571 206.305 191.571 205.804C191.571 205.302 191.74 204.869 192.077 204.505C192.414 204.14 192.9 203.865 193.533 203.678C194.167 203.486 194.919 203.393 195.789 203.397ZM195.789 204.594C195.21 204.594 194.72 204.639 194.319 204.73C193.918 204.817 193.615 204.951 193.41 205.134C193.205 205.312 193.103 205.535 193.103 205.804C193.103 206.063 193.205 206.285 193.41 206.467C193.62 206.649 193.925 206.788 194.326 206.884C194.727 206.975 195.215 207.021 195.789 207.021C196.363 207.021 196.853 206.975 197.259 206.884C197.669 206.788 197.979 206.649 198.188 206.467C198.403 206.285 198.51 206.063 198.51 205.804C198.51 205.544 198.403 205.323 198.188 205.141C197.979 204.954 197.671 204.817 197.266 204.73C196.86 204.639 196.368 204.594 195.789 204.594ZM212.059 208.237H210.521V195.857H212.059V208.237ZM205.4 196.76C206.02 196.76 206.574 196.94 207.062 197.3C207.549 197.655 207.93 198.163 208.203 198.824C208.477 199.48 208.613 200.246 208.613 201.121C208.613 202.001 208.477 202.771 208.203 203.432C207.93 204.088 207.549 204.596 207.062 204.956C206.574 205.316 206.02 205.496 205.4 205.496C204.776 205.496 204.22 205.316 203.732 204.956C203.245 204.596 202.862 204.088 202.584 203.432C202.311 202.771 202.174 202.001 202.174 201.121C202.174 200.246 202.311 199.48 202.584 198.824C202.862 198.163 203.245 197.655 203.732 197.3C204.22 196.94 204.776 196.76 205.4 196.76ZM205.4 198.127C205.054 198.122 204.746 198.241 204.478 198.482C204.213 198.719 204.008 199.063 203.862 199.515C203.716 199.966 203.644 200.501 203.644 201.121C203.644 201.741 203.716 202.279 203.862 202.734C204.008 203.186 204.213 203.53 204.478 203.767C204.746 203.999 205.054 204.115 205.4 204.115C205.747 204.115 206.052 203.999 206.316 203.767C206.581 203.53 206.786 203.186 206.932 202.734C207.077 202.279 207.15 201.741 207.15 201.121C207.15 200.501 207.077 199.966 206.932 199.515C206.786 199.063 206.581 198.719 206.316 198.482C206.057 198.241 205.751 198.122 205.4 198.127ZM162.279 223.268H160.762V221.565H162.279V223.268ZM167.557 224.231H166.032V215.871H167.557V224.231ZM169.225 220.725H166.996V219.474H169.225V220.725ZM157.85 222.748C159.262 222.748 160.598 222.725 161.855 222.68C163.113 222.63 164.294 222.534 165.396 222.393L165.513 223.445C164.355 223.646 163.163 223.778 161.938 223.842C160.712 223.901 159.338 223.933 157.815 223.938L157.651 222.748H157.85ZM167.557 228.203H166.032V225.947H159.203V224.758H167.557V228.203ZM165.062 217.97H157.966V216.855H165.062V217.97ZM161.507 218.312C162.108 218.312 162.632 218.387 163.079 218.537C163.53 218.683 163.879 218.895 164.125 219.173C164.371 219.446 164.494 219.77 164.494 220.144C164.494 220.517 164.371 220.843 164.125 221.121C163.879 221.399 163.53 221.616 163.079 221.771C162.632 221.921 162.108 221.996 161.507 221.996C160.914 221.996 160.393 221.921 159.941 221.771C159.495 221.616 159.146 221.399 158.896 221.121C158.649 220.843 158.526 220.517 158.526 220.144C158.526 219.77 158.649 219.446 158.896 219.173C159.146 218.895 159.495 218.683 159.941 218.537C160.393 218.387 160.914 218.312 161.507 218.312ZM161.507 219.344C161.188 219.335 160.914 219.362 160.687 219.426C160.463 219.485 160.29 219.576 160.167 219.699C160.044 219.818 159.982 219.966 159.982 220.144C159.982 220.317 160.044 220.465 160.167 220.588C160.29 220.711 160.465 220.807 160.693 220.875C160.921 220.939 161.192 220.971 161.507 220.971C161.83 220.971 162.106 220.939 162.334 220.875C162.562 220.807 162.735 220.711 162.854 220.588C162.977 220.465 163.038 220.317 163.038 220.144C163.038 219.966 162.977 219.818 162.854 219.699C162.735 219.576 162.562 219.485 162.334 219.426C162.111 219.362 161.835 219.335 161.507 219.344ZM162.279 217.389H160.762V215.762H162.279V217.389ZM178.979 218.209H171.029V216.985H178.979V218.209ZM181.119 226.617H169.867V225.38H181.119V226.617ZM175.521 226.016H174.023V221.073H175.521V226.016ZM179.943 218.346C179.939 219.362 179.909 220.287 179.854 221.121C179.8 221.951 179.67 222.917 179.465 224.02L177.927 223.855C178.136 222.826 178.269 221.894 178.323 221.06C178.382 220.226 178.412 219.321 178.412 218.346V218.182V216.985H179.943V218.182V218.346ZM191.708 225.106H190.19V215.871H191.708V225.106ZM193.438 221.005H191.257V219.754H193.438V221.005ZM189.302 218.448H181.967V217.238H189.302V218.448ZM185.638 218.961C186.226 218.961 186.747 219.059 187.203 219.255C187.663 219.451 188.021 219.729 188.276 220.089C188.532 220.444 188.659 220.857 188.659 221.326C188.659 221.786 188.532 222.192 188.276 222.543C188.021 222.894 187.663 223.167 187.203 223.363C186.747 223.559 186.226 223.657 185.638 223.657C185.05 223.657 184.523 223.559 184.059 223.363C183.598 223.167 183.241 222.894 182.985 222.543C182.735 222.192 182.609 221.786 182.609 221.326C182.609 220.857 182.735 220.444 182.985 220.089C183.241 219.729 183.598 219.451 184.059 219.255C184.523 219.059 185.05 218.961 185.638 218.961ZM185.638 220.137C185.332 220.137 185.059 220.182 184.817 220.273C184.58 220.365 184.398 220.504 184.271 220.69C184.143 220.873 184.079 221.085 184.079 221.326C184.079 221.568 184.143 221.777 184.271 221.955C184.398 222.128 184.58 222.26 184.817 222.352C185.059 222.443 185.332 222.488 185.638 222.488C185.952 222.488 186.228 222.443 186.465 222.352C186.702 222.26 186.886 222.128 187.019 221.955C187.151 221.777 187.217 221.568 187.217 221.326C187.217 221.085 187.151 220.873 187.019 220.69C186.886 220.504 186.702 220.365 186.465 220.273C186.228 220.182 185.952 220.137 185.638 220.137ZM186.403 217.84H184.879V215.864H186.403V217.84ZM192.193 227.984H183.792V226.74H192.193V227.984ZM185.303 227.26H183.792V224.382H185.303V227.26ZM142.182 244.799H140.657V235.871H142.182V244.799ZM142.53 247.984H134.006V246.74H142.53V247.984ZM135.537 247.226H134.006V243.896H135.537V247.226ZM135.448 236.678C136.073 236.678 136.638 236.81 137.144 237.074C137.654 237.339 138.053 237.705 138.34 238.175C138.632 238.644 138.777 239.173 138.777 239.761C138.777 240.362 138.632 240.9 138.34 241.374C138.053 241.843 137.654 242.21 137.144 242.475C136.638 242.739 136.073 242.871 135.448 242.871C134.824 242.871 134.259 242.739 133.753 242.475C133.252 242.21 132.853 241.843 132.557 241.374C132.265 240.9 132.119 240.362 132.119 239.761C132.119 239.173 132.265 238.644 132.557 238.175C132.853 237.705 133.252 237.339 133.753 237.074C134.259 236.81 134.824 236.678 135.448 236.678ZM135.448 238.011C135.097 238.006 134.781 238.077 134.498 238.223C134.22 238.364 134.001 238.569 133.842 238.838C133.682 239.107 133.603 239.414 133.603 239.761C133.603 240.116 133.682 240.431 133.842 240.704C134.001 240.973 134.22 241.18 134.498 241.326C134.781 241.467 135.097 241.538 135.448 241.538C135.795 241.538 136.107 241.467 136.385 241.326C136.663 241.18 136.879 240.973 137.034 240.704C137.194 240.431 137.273 240.116 137.273 239.761C137.273 239.414 137.194 239.107 137.034 238.838C136.879 238.569 136.663 238.364 136.385 238.223C136.107 238.077 135.795 238.006 135.448 238.011ZM154.22 237.368H145.005V236.22H154.22V237.368ZM154.151 240.39H145.08V239.241H154.151V240.39ZM148.225 240H146.7V236.664H148.225V240ZM152.518 240H151V236.664H152.518V240ZM155.252 242.365H144V241.169H155.252V242.365ZM153.857 246.132H146.83V247.417H145.326V245.079H152.354V244.307H145.319V243.206H153.857V246.132ZM154.192 248.107H145.326V246.973H154.192V248.107ZM166.053 239.802H158.971V241.757H157.433V238.64H164.494V237.505H157.405V236.288H166.053V239.802ZM166.333 242.242H157.433V241.025H166.333V242.242ZM167.379 244.512H156.086V243.295H167.379V244.512ZM162.464 248.237H160.946V243.732H162.464V248.237ZM177.674 240.417H174.413V239.18H177.674V240.417ZM178.542 244.929H177.024V235.871H178.542V244.929ZM178.856 247.984H170.435V246.74H178.856V247.984ZM171.959 247.342H170.435V244.006H171.959V247.342ZM171.624 236.63C172.226 236.63 172.772 236.764 173.265 237.033C173.757 237.298 174.146 237.664 174.434 238.134C174.721 238.603 174.864 239.139 174.864 239.74C174.864 240.333 174.718 240.866 174.427 241.34C174.14 241.814 173.75 242.188 173.258 242.461C172.77 242.73 172.226 242.864 171.624 242.864C171.009 242.864 170.453 242.73 169.956 242.461C169.459 242.192 169.07 241.821 168.787 241.347C168.505 240.868 168.363 240.333 168.363 239.74C168.363 239.139 168.505 238.603 168.787 238.134C169.07 237.66 169.459 237.291 169.956 237.026C170.453 236.762 171.009 236.63 171.624 236.63ZM171.624 237.963C171.282 237.958 170.972 238.031 170.694 238.182C170.421 238.327 170.204 238.535 170.045 238.804C169.885 239.073 169.806 239.385 169.806 239.74C169.806 240.091 169.885 240.403 170.045 240.677C170.204 240.95 170.421 241.164 170.694 241.319C170.972 241.47 171.282 241.547 171.624 241.552C171.957 241.547 172.26 241.47 172.533 241.319C172.807 241.164 173.021 240.95 173.176 240.677C173.331 240.403 173.408 240.091 173.408 239.74C173.408 239.385 173.331 239.073 173.176 238.804C173.021 238.535 172.807 238.327 172.533 238.182C172.26 238.031 171.957 237.958 171.624 237.963ZM189.903 241.08H186.554V239.856H189.903V241.08ZM184.551 238.824C184.551 239.827 184.419 240.782 184.154 241.688C183.89 242.591 183.5 243.391 182.985 244.088C182.47 244.785 181.853 245.318 181.133 245.688L180.169 244.45C180.825 244.145 181.39 243.698 181.864 243.11C182.338 242.522 182.698 241.859 182.944 241.121C183.19 240.378 183.313 239.613 183.313 238.824V236.849H184.551V238.824ZM184.858 238.824C184.858 239.608 184.977 240.358 185.214 241.073C185.455 241.789 185.806 242.424 186.267 242.98C186.731 243.536 187.283 243.958 187.921 244.245L187.005 245.462C186.285 245.106 185.672 244.596 185.166 243.931C184.665 243.261 184.284 242.491 184.024 241.62C183.765 240.75 183.635 239.818 183.635 238.824V236.849H184.858V238.824ZM190.648 248.237H189.145V235.857H190.648V248.237ZM203.083 242.208H196.644V240.984H203.083V242.208ZM200.581 244.676H199.063V241.962H200.581V244.676ZM203.021 238.195H198.147V241.395H196.644V236.985H203.021V238.195ZM206.016 248.237H204.512V235.857H206.016V248.237ZM195.782 244.45C197.272 244.455 198.683 244.437 200.014 244.396C201.344 244.354 202.595 244.27 203.767 244.143L203.883 245.257C203.04 245.384 202.167 245.48 201.265 245.544C200.367 245.608 199.508 245.649 198.688 245.667C197.872 245.685 196.967 245.694 195.974 245.694L195.782 244.45ZM218.149 248.203H216.611V235.857H218.149V248.203ZM214.465 237.17C214.465 238.46 214.278 239.642 213.904 240.718C213.535 241.789 212.927 242.775 212.079 243.678C211.231 244.576 210.108 245.357 208.709 246.022L207.902 244.806C209.092 244.241 210.058 243.598 210.801 242.878C211.544 242.158 212.088 241.349 212.435 240.451C212.781 239.553 212.954 238.546 212.954 237.43V237.17H214.465ZM213.638 238.373H208.531V237.17H213.638V238.373Z" fill="white"/>
<rect y="304" width="110" height="140" rx="15" fill="white"/>
<path d="M29.8984 384.625H28.6953V382.125H29.8984V384.625ZM36.3516 384.578H35.1172V376.391H36.3516V384.578ZM24.8516 381.625C26.5286 381.635 28.1328 381.617 29.6641 381.57C31.1953 381.523 32.6328 381.427 33.9766 381.281L34.0547 382.078C32.6797 382.276 31.237 382.406 29.7266 382.469C28.2161 382.531 26.638 382.557 24.9922 382.547L24.8516 381.625ZM36.3516 387.953H28.2422V389.547H27.0391V387.094H35.1328V385.969H26.9766V385.078H36.3516V387.953ZM36.8047 390.109H27.0391V389.203H36.8047V390.109ZM35.5234 383.812H32.3047V383H35.5234V383.812ZM29.3828 376.656C30.0703 376.656 30.6745 376.742 31.1953 376.914C31.7161 377.086 32.1198 377.328 32.4062 377.641C32.6927 377.953 32.8359 378.323 32.8359 378.75C32.8359 379.177 32.6927 379.547 32.4062 379.859C32.1198 380.172 31.7161 380.411 31.1953 380.578C30.6745 380.745 30.0703 380.828 29.3828 380.828C28.6849 380.828 28.0781 380.745 27.5625 380.578C27.0469 380.411 26.6458 380.172 26.3594 379.859C26.0729 379.547 25.9297 379.177 25.9297 378.75C25.9297 378.323 26.0729 377.953 26.3594 377.641C26.6458 377.328 27.0495 377.086 27.5703 376.914C28.0911 376.742 28.6953 376.656 29.3828 376.656ZM29.3828 377.516C28.9245 377.516 28.5208 377.565 28.1719 377.664C27.8229 377.763 27.5547 377.906 27.3672 378.094C27.1797 378.281 27.0859 378.5 27.0859 378.75C27.0859 378.99 27.1797 379.203 27.3672 379.391C27.5547 379.578 27.8229 379.724 28.1719 379.828C28.5208 379.932 28.9245 379.984 29.3828 379.984C29.8411 379.984 30.2448 379.932 30.5938 379.828C30.9427 379.724 31.2109 379.578 31.3984 379.391C31.5859 379.203 31.6797 378.99 31.6797 378.75C31.6797 378.5 31.5859 378.281 31.3984 378.094C31.2109 377.906 30.9427 377.763 30.5938 377.664C30.2448 377.565 29.8411 377.516 29.3828 377.516ZM47.2891 379.703C47.2891 380.526 47.125 381.292 46.7969 382C46.4688 382.708 46.013 383.323 45.4297 383.844C44.8464 384.365 44.1693 384.76 43.3984 385.031L42.7891 384.078C43.4661 383.849 44.0703 383.513 44.6016 383.07C45.1328 382.628 45.5443 382.115 45.8359 381.531C46.1276 380.948 46.2734 380.339 46.2734 379.703V378.984H47.2891V379.703ZM47.4766 379.703C47.4766 380.307 47.6276 380.883 47.9297 381.43C48.2318 381.977 48.6484 382.456 49.1797 382.867C49.7109 383.279 50.3203 383.594 51.0078 383.812L50.3984 384.797C49.6276 384.547 48.9479 384.172 48.3594 383.672C47.7708 383.172 47.3099 382.581 46.9766 381.898C46.6432 381.216 46.4766 380.484 46.4766 379.703V378.984H47.4766V379.703ZM50.6172 379.25H43.1328V378.25H50.6172V379.25ZM47.5078 378.641H46.2734V376.469H47.5078V378.641ZM53.6797 381.688H50.1328V380.672H53.6797V381.688ZM54.2578 386.766H53.0234V376.391H54.2578V386.766ZM54.6484 389.969H45.3359V388.938H54.6484V389.969ZM46.5703 389.469H45.3359V385.828H46.5703V389.469ZM63.5859 384.031H57.1641V377.641H63.5859V384.031ZM58.3672 383.047H62.3984V378.641H58.3672V383.047ZM67.4297 386.562H66.2109V376.375H67.4297V386.562ZM69.5234 381.641H67.0391V380.609H69.5234V381.641ZM68.0703 389.969H58.7422V388.938H68.0703V389.969ZM59.9453 389.359H58.7422V385.594H59.9453V389.359ZM75.6328 386.453H74.3984V383.359H75.6328V386.453ZM81.8516 386.938H80.6172V376.391H81.8516V386.938ZM82.1953 389.969H72.3203V388.938H82.1953V389.969ZM73.5547 389.234H72.3203V385.906H73.5547V389.234ZM70.4297 382.828C72.3255 382.818 73.9688 382.789 75.3594 382.742C76.75 382.695 78.0859 382.589 79.3672 382.422L79.4453 383.312C78.0911 383.531 76.6641 383.674 75.1641 383.742C73.6641 383.81 72.1068 383.839 70.4922 383.828L70.3203 382.828H70.4297ZM80.9453 385.5H77.7422V384.609H80.9453V385.5ZM74.8828 376.953C75.5599 376.953 76.1562 377.052 76.6719 377.25C77.1875 377.448 77.5911 377.732 77.8828 378.102C78.1745 378.471 78.3203 378.896 78.3203 379.375C78.3203 379.865 78.1745 380.289 77.8828 380.648C77.5911 381.008 77.1875 381.286 76.6719 381.484C76.1562 381.682 75.5599 381.781 74.8828 381.781C74.2057 381.781 73.6068 381.682 73.0859 381.484C72.5651 381.286 72.1615 381.008 71.875 380.648C71.5885 380.289 71.4453 379.865 71.4453 379.375C71.4453 378.896 71.5885 378.471 71.875 378.102C72.1615 377.732 72.5651 377.448 73.0859 377.25C73.6068 377.052 74.2057 376.953 74.8828 376.953ZM74.8828 377.891C74.4349 377.88 74.0391 377.938 73.6953 378.062C73.3516 378.188 73.0859 378.365 72.8984 378.594C72.7109 378.823 72.6172 379.083 72.6172 379.375C72.6172 379.667 72.7109 379.927 72.8984 380.156C73.0859 380.385 73.3516 380.562 73.6953 380.688C74.0391 380.812 74.4349 380.875 74.8828 380.875C75.3203 380.875 75.7109 380.812 76.0547 380.688C76.3984 380.562 76.6667 380.385 76.8594 380.156C77.0521 379.927 77.1484 379.667 77.1484 379.375C77.1484 379.083 77.0495 378.823 76.8516 378.594C76.6536 378.365 76.3854 378.188 76.0469 378.062C75.7083 377.938 75.3203 377.88 74.8828 377.891ZM36.3516 411.297H35.1172V397.375H36.3516V411.297ZM28.9609 398.453C29.6484 398.453 30.2604 398.654 30.7969 399.055C31.3333 399.456 31.7526 400.021 32.0547 400.75C32.3568 401.479 32.5078 402.328 32.5078 403.297C32.5078 404.266 32.3568 405.115 32.0547 405.844C31.7526 406.573 31.3333 407.135 30.7969 407.531C30.2604 407.927 29.6484 408.125 28.9609 408.125C28.2734 408.125 27.6615 407.927 27.125 407.531C26.5885 407.135 26.1693 406.573 25.8672 405.844C25.5651 405.115 25.4141 404.266 25.4141 403.297C25.4141 402.328 25.5651 401.479 25.8672 400.75C26.1693 400.021 26.5885 399.456 27.125 399.055C27.6615 398.654 28.2734 398.453 28.9609 398.453ZM28.9609 399.547C28.5026 399.547 28.0938 399.703 27.7344 400.016C27.375 400.328 27.0964 400.766 26.8984 401.328C26.7005 401.891 26.6016 402.547 26.6016 403.297C26.6016 404.036 26.7005 404.69 26.8984 405.258C27.0964 405.826 27.375 406.263 27.7344 406.57C28.0938 406.878 28.5026 407.031 28.9609 407.031C29.4193 407.031 29.8281 406.878 30.1875 406.57C30.5469 406.263 30.8255 405.826 31.0234 405.258C31.2214 404.69 31.3203 404.036 31.3203 403.297C31.3203 402.547 31.2214 401.891 31.0234 401.328C30.8255 400.766 30.5495 400.328 30.1953 400.016C29.8411 399.703 29.4297 399.547 28.9609 399.547ZM43.1797 399.531C43.1797 400.406 43.0182 401.227 42.6953 401.992C42.3724 402.758 41.9245 403.424 41.3516 403.992C40.7786 404.56 40.1068 404.995 39.3359 405.297L38.6797 404.312C39.3672 404.052 39.974 403.682 40.5 403.203C41.026 402.724 41.4349 402.167 41.7266 401.531C42.0182 400.896 42.1641 400.229 42.1641 399.531V398.094H43.1797V399.531ZM43.3672 399.625C43.3672 400.24 43.5156 400.836 43.8125 401.414C44.1094 401.992 44.5182 402.5 45.0391 402.938C45.5599 403.375 46.1536 403.708 46.8203 403.938L46.1484 404.906C45.4089 404.635 44.7526 404.237 44.1797 403.711C43.6068 403.185 43.1615 402.57 42.8438 401.867C42.526 401.164 42.3672 400.417 42.3672 399.625V398.094H43.3672V399.625ZM49.5859 405.828H48.3672V397.375H49.5859V405.828ZM51.6797 402.031H49.2422V401H51.6797V402.031ZM45.1328 406.188C46.0807 406.188 46.8984 406.286 47.5859 406.484C48.2734 406.682 48.7995 406.969 49.1641 407.344C49.5286 407.719 49.7109 408.172 49.7109 408.703C49.7109 409.234 49.5286 409.69 49.1641 410.07C48.7995 410.451 48.276 410.74 47.5938 410.938C46.9115 411.135 46.0911 411.234 45.1328 411.234C44.1849 411.234 43.3646 411.135 42.6719 410.938C41.9792 410.74 41.4479 410.451 41.0781 410.07C40.7083 409.69 40.5234 409.234 40.5234 408.703C40.5234 408.172 40.7083 407.719 41.0781 407.344C41.4479 406.969 41.9792 406.682 42.6719 406.484C43.3646 406.286 44.1849 406.188 45.1328 406.188ZM45.1328 407.172C44.4453 407.172 43.8464 407.232 43.3359 407.352C42.8255 407.471 42.4349 407.648 42.1641 407.883C41.8932 408.117 41.7578 408.391 41.7578 408.703C41.7578 409.026 41.8932 409.305 42.1641 409.539C42.4349 409.773 42.8229 409.951 43.3281 410.07C43.8333 410.19 44.4349 410.255 45.1328 410.266C45.8411 410.255 46.4479 410.19 46.9531 410.07C47.4583 409.951 47.8464 409.773 48.1172 409.539C48.388 409.305 48.5234 409.026 48.5234 408.703C48.5234 408.38 48.388 408.104 48.1172 407.875C47.8464 407.646 47.4557 407.471 46.9453 407.352C46.4349 407.232 45.8307 407.172 45.1328 407.172ZM67.2578 401.5H63.2109V400.469H67.2578V401.5ZM68.0703 404.625H66.8516V397.375H68.0703V404.625ZM68.0703 408.578H60.3203V410.703H59.1016V407.641H66.8516V406.281H59.0703V405.297H68.0703V408.578ZM68.6016 411.078H59.1016V410.094H68.6016V411.078ZM58.4922 400.016H62.3672V398.031H63.5703V404.062H57.2734V398.031H58.4922V400.016ZM62.3672 403.062V401H58.4922V403.062H62.3672ZM81.8828 411.266H80.6484V397.375H81.8828V411.266ZM77.7734 398.891C77.7734 400.266 77.5469 401.552 77.0938 402.75C76.6406 403.948 75.9297 405.049 74.9609 406.055C73.9922 407.06 72.7526 407.927 71.2422 408.656L70.5703 407.656C71.9141 407.021 73.0286 406.273 73.9141 405.414C74.7995 404.555 75.4609 403.594 75.8984 402.531C76.3359 401.469 76.5547 400.318 76.5547 399.078V398.891H77.7734ZM77.0547 399.891H71.2109V398.891H77.0547V399.891Z" fill="black"/>
<rect x="19" y="339" width="73" height="26" rx="8" fill="#F2E4FF"/>
<path opacity="0.8" d="M60.6348 353.343H49.4512V352.297H60.6348V353.343ZM55.6855 352.816H54.3936V350.355H55.6855V352.816ZM59.3701 350.827H50.8525V349.774H59.3701V350.827ZM59.2607 347.587H52.1377V350.239H50.8525V346.527H59.2607V347.587ZM59.459 357.916H50.8662V356.843H59.459V357.916ZM52.1514 357.191H50.8662V354.368H52.1514V357.191Z" fill="#9C31FF"/>
<rect y="152" width="110" height="140" rx="15" fill="white"/>
<path d="M13.9766 225.969H20.8516V224.625H22.0703V229.203H12.7578V224.625H13.9766V225.969ZM20.8516 228.266V226.906H13.9766V228.266H20.8516ZM23.7266 231.391H11.0703V230.406H23.7266V231.391ZM22.1016 235.75H13.8516V237.469H12.6328V234.844H20.8984V233.609H12.6016V232.672H22.1016V235.75ZM22.5234 238.109H12.6328V237.141H22.5234V238.109ZM37.6172 236.547H24.8984V235.516H37.6172V236.547ZM31.8203 235.969H30.6172V232.531H31.8203V235.969ZM36.0078 229.609H27.7109V232.422H26.4922V228.609H34.8047V226.422H26.4609V225.406H36.0078V229.609ZM36.3359 232.891H26.4922V231.875H36.3359V232.891ZM49.1328 226.875H40.1016V225.859H49.1328V226.875ZM51.3828 236.219H38.7266V235.203H51.3828V236.219ZM49.6797 227.422C49.6797 228.161 49.6719 228.831 49.6562 229.43C49.6406 230.029 49.5938 230.714 49.5156 231.484C49.4375 232.255 49.3203 233.094 49.1641 234L47.9141 233.875C48.0911 232.99 48.2214 232.159 48.3047 231.383C48.388 230.607 48.4375 229.919 48.4531 229.32C48.4688 228.721 48.4766 228.031 48.4766 227.25V225.859H49.6797V227.25V227.422ZM66.9297 226.297H58.1641V225.281H66.9297V226.297ZM69.2266 232.266H56.5703V231.25H69.2266V232.266ZM63.4922 238.297H62.2578V231.922H63.4922V238.297ZM67.5547 226.625C67.5547 227.24 67.5443 227.786 67.5234 228.266C67.5026 228.745 67.4557 229.292 67.3828 229.906C67.3099 230.521 67.1901 231.182 67.0234 231.891L65.8047 231.734C65.9714 231.036 66.0938 230.383 66.1719 229.773C66.25 229.164 66.2969 228.625 66.3125 228.156C66.3281 227.688 66.3359 227.135 66.3359 226.5V225.281H67.5547V226.5V226.625ZM83.0547 232.312H70.3984V231.312H83.0547V232.312ZM77.3359 231.734H76.1172V228.922H77.3359V231.734ZM81.5078 238.375H80.2891V234.672H71.8047V233.672H81.5078V238.375ZM81.6172 229.625H72.0078V228.609H81.6172V229.625ZM81.4922 225.953H73.2266V229.141H72.0078V224.938H81.4922V225.953ZM88.6953 228.641C88.6953 229.578 88.5156 230.516 88.1562 231.453C87.7969 232.391 87.3151 233.224 86.7109 233.953C86.1068 234.682 85.4505 235.229 84.7422 235.594L83.9922 234.625C84.6589 234.302 85.276 233.818 85.8438 233.172C86.4115 232.526 86.8672 231.802 87.2109 231C87.5547 230.198 87.7266 229.411 87.7266 228.641V226.344H88.6953V228.641ZM88.9297 228.641C88.9297 229.37 89.0885 230.109 89.4062 230.859C89.724 231.609 90.1589 232.289 90.7109 232.898C91.263 233.508 91.8724 233.969 92.5391 234.281L91.8359 235.25C91.1172 234.896 90.4609 234.372 89.8672 233.68C89.2734 232.987 88.8047 232.198 88.4609 231.312C88.1172 230.427 87.9453 229.536 87.9453 228.641V226.344H88.9297V228.641ZM92.0547 226.828H84.4922V225.812H92.0547V226.828ZM94.9766 238.266H93.7578V224.375H94.9766V238.266ZM97.3047 231.047H94.6953V230H97.3047V231.047ZM29.1406 256.969L33 252.906C33.5104 252.365 33.901 251.93 34.1719 251.602C34.4427 251.273 34.6458 250.953 34.7812 250.641C34.9167 250.328 34.9844 250.005 34.9844 249.672C34.9844 249.297 34.8854 248.964 34.6875 248.672C34.4896 248.38 34.2214 248.154 33.8828 247.992C33.5443 247.831 33.1615 247.75 32.7344 247.75C32.2969 247.75 31.9115 247.839 31.5781 248.016C31.2448 248.193 30.987 248.443 30.8047 248.766C30.6224 249.089 30.5312 249.458 30.5312 249.875H29.2031C29.2031 249.219 29.3568 248.638 29.6641 248.133C29.9714 247.628 30.3984 247.234 30.9453 246.953C31.4922 246.672 32.1042 246.531 32.7812 246.531C33.4583 246.531 34.0625 246.669 34.5938 246.945C35.125 247.221 35.5417 247.599 35.8438 248.078C36.1458 248.557 36.2969 249.089 36.2969 249.672C36.2969 250.099 36.2188 250.51 36.0625 250.906C35.9062 251.302 35.6458 251.737 35.2812 252.211C34.9167 252.685 34.3906 253.276 33.7031 253.984L31.1094 256.656V256.75H36.5V258H29.1562L29.1406 256.969ZM42.25 258.156C41.4167 258.156 40.7057 257.93 40.1172 257.477C39.5286 257.023 39.0781 256.362 38.7656 255.492C38.4531 254.622 38.2969 253.573 38.2969 252.344C38.2969 251.125 38.4531 250.081 38.7656 249.211C39.0781 248.341 39.5312 247.677 40.125 247.219C40.7188 246.76 41.4271 246.531 42.25 246.531C43.0729 246.531 43.7812 246.76 44.375 247.219C44.9688 247.677 45.4219 248.341 45.7344 249.211C46.0469 250.081 46.2031 251.125 46.2031 252.344C46.2031 253.573 46.0495 254.622 45.7422 255.492C45.4349 256.362 44.9844 257.023 44.3906 257.477C43.7969 257.93 43.0833 258.156 42.25 258.156ZM42.25 256.906C42.7917 256.906 43.2552 256.729 43.6406 256.375C44.026 256.021 44.3203 255.503 44.5234 254.82C44.7266 254.138 44.8281 253.312 44.8281 252.344C44.8281 251.375 44.7266 250.547 44.5234 249.859C44.3203 249.172 44.026 248.648 43.6406 248.289C43.2552 247.93 42.7917 247.75 42.25 247.75C41.7083 247.75 41.2448 247.93 40.8594 248.289C40.474 248.648 40.1771 249.172 39.9688 249.859C39.7604 250.547 39.6562 251.375 39.6562 252.344C39.6562 253.312 39.7578 254.138 39.9609 254.82C40.1641 255.503 40.4609 256.021 40.8516 256.375C41.2422 256.729 41.7083 256.906 42.25 256.906ZM51.7812 258.156C50.9479 258.156 50.237 257.93 49.6484 257.477C49.0599 257.023 48.6094 256.362 48.2969 255.492C47.9844 254.622 47.8281 253.573 47.8281 252.344C47.8281 251.125 47.9844 250.081 48.2969 249.211C48.6094 248.341 49.0625 247.677 49.6562 247.219C50.25 246.76 50.9583 246.531 51.7812 246.531C52.6042 246.531 53.3125 246.76 53.9062 247.219C54.5 247.677 54.9531 248.341 55.2656 249.211C55.5781 250.081 55.7344 251.125 55.7344 252.344C55.7344 253.573 55.5807 254.622 55.2734 255.492C54.9661 256.362 54.5156 257.023 53.9219 257.477C53.3281 257.93 52.6146 258.156 51.7812 258.156ZM51.7812 256.906C52.3229 256.906 52.7865 256.729 53.1719 256.375C53.5573 256.021 53.8516 255.503 54.0547 254.82C54.2578 254.138 54.3594 253.312 54.3594 252.344C54.3594 251.375 54.2578 250.547 54.0547 249.859C53.8516 249.172 53.5573 248.648 53.1719 248.289C52.7865 247.93 52.3229 247.75 51.7812 247.75C51.2396 247.75 50.776 247.93 50.3906 248.289C50.0052 248.648 49.7083 249.172 49.5 249.859C49.2917 250.547 49.1875 251.375 49.1875 252.344C49.1875 253.312 49.2891 254.138 49.4922 254.82C49.6953 255.503 49.9922 256.021 50.3828 256.375C50.7734 256.729 51.2396 256.906 51.7812 256.906ZM61.3125 258.156C60.4792 258.156 59.7682 257.93 59.1797 257.477C58.5911 257.023 58.1406 256.362 57.8281 255.492C57.5156 254.622 57.3594 253.573 57.3594 252.344C57.3594 251.125 57.5156 250.081 57.8281 249.211C58.1406 248.341 58.5938 247.677 59.1875 247.219C59.7812 246.76 60.4896 246.531 61.3125 246.531C62.1354 246.531 62.8438 246.76 63.4375 247.219C64.0312 247.677 64.4844 248.341 64.7969 249.211C65.1094 250.081 65.2656 251.125 65.2656 252.344C65.2656 253.573 65.112 254.622 64.8047 255.492C64.4974 256.362 64.0469 257.023 63.4531 257.477C62.8594 257.93 62.1458 258.156 61.3125 258.156ZM61.3125 256.906C61.8542 256.906 62.3177 256.729 62.7031 256.375C63.0885 256.021 63.3828 255.503 63.5859 254.82C63.7891 254.138 63.8906 253.312 63.8906 252.344C63.8906 251.375 63.7891 250.547 63.5859 249.859C63.3828 249.172 63.0885 248.648 62.7031 248.289C62.3177 247.93 61.8542 247.75 61.3125 247.75C60.7708 247.75 60.3073 247.93 59.9219 248.289C59.5365 248.648 59.2396 249.172 59.0312 249.859C58.8229 250.547 58.7188 251.375 58.7188 252.344C58.7188 253.312 58.8203 254.138 59.0234 254.82C59.2266 255.503 59.5234 256.021 59.9141 256.375C60.3047 256.729 60.7708 256.906 61.3125 256.906ZM77.4062 248.656H73.3125V247.641H77.4062V248.656ZM77.4219 251.422H73.3125V250.391H77.4219V251.422ZM78.1562 253.609H76.9219V245.375H78.1562V253.609ZM73.6719 252.609H67.2969V246.438H73.6719V252.609ZM68.5156 251.609H72.4688V247.438H68.5156V251.609ZM73.5469 254.016C74.5156 254.016 75.349 254.117 76.0469 254.32C76.7448 254.523 77.2786 254.823 77.6484 255.219C78.0182 255.615 78.2031 256.089 78.2031 256.641C78.2031 257.182 78.0182 257.648 77.6484 258.039C77.2786 258.43 76.7448 258.727 76.0469 258.93C75.349 259.133 74.5156 259.234 73.5469 259.234C72.5885 259.234 71.7604 259.133 71.0625 258.93C70.3646 258.727 69.8281 258.43 69.4531 258.039C69.0781 257.648 68.8906 257.182 68.8906 256.641C68.8906 256.089 69.0781 255.615 69.4531 255.219C69.8281 254.823 70.3646 254.523 71.0625 254.32C71.7604 254.117 72.5885 254.016 73.5469 254.016ZM73.5469 254.969C72.8385 254.969 72.2266 255.036 71.7109 255.172C71.1953 255.307 70.7995 255.5 70.5234 255.75C70.2474 256 70.1094 256.297 70.1094 256.641C70.1094 256.964 70.2474 257.247 70.5234 257.492C70.7995 257.737 71.1979 257.927 71.7188 258.062C72.2396 258.198 72.849 258.266 73.5469 258.266C74.2552 258.266 74.8672 258.198 75.3828 258.062C75.8984 257.927 76.2943 257.74 76.5703 257.5C76.8464 257.26 76.9844 256.974 76.9844 256.641C76.9844 256.297 76.8464 256 76.5703 255.75C76.2943 255.5 75.8984 255.307 75.3828 255.172C74.8672 255.036 74.2552 254.969 73.5469 254.969Z" fill="black"/>
<rect x="19" y="187" width="73" height="26" rx="8" fill="#E6F9F3"/>
<path opacity="0.8" d="M37.8154 195.149C37.8154 196.462 37.6514 197.656 37.3232 198.731C36.9997 199.807 36.4277 200.807 35.6074 201.732C34.7917 202.658 33.666 203.478 32.2305 204.193L31.5127 203.202C32.7751 202.587 33.7754 201.885 34.5137 201.097C35.2565 200.304 35.7829 199.438 36.0928 198.499C36.4027 197.56 36.5576 196.496 36.5576 195.307V195.149H37.8154ZM37.3232 196.209H32.2236V195.149H37.3232V196.209ZM31.7861 199.62L31.5947 198.499L36.4414 198.185V199.183L31.7861 199.62ZM40.9941 206.148H39.7021V193.905H40.9941V206.148ZM42.8945 199.88H40.6592V198.8H42.8945V199.88ZM50.9404 199.559H48.6572V198.499H50.9404V199.559ZM44.7812 202.245C45.7793 202.236 46.5905 202.211 47.2148 202.17C47.8438 202.124 48.4863 202.045 49.1426 201.931L49.252 202.977C48.6048 203.1 47.9691 203.182 47.3447 203.223C46.7249 203.264 45.8704 203.286 44.7812 203.291H43.9951V202.245H44.7812ZM48.5615 196.394H45.2324V202.607H43.9951V195.361H48.5615V196.394ZM48.0283 199.675H44.8564V198.656H48.0283V199.675ZM54.0781 206.155H52.834V193.905H54.0781V206.155ZM51.542 205.554H50.3184V194.179H51.542V205.554ZM64.749 196.141H56.8262V195.088H64.749V196.141ZM66.8203 204.501H55.6504V203.435H66.8203V204.501ZM61.1807 203.988H59.9023V199.114H61.1807V203.988ZM65.5625 196.448C65.5579 197.455 65.5283 198.367 65.4736 199.183C65.4235 199.994 65.3005 200.937 65.1045 202.013L63.7852 201.869C63.9902 200.857 64.1201 199.944 64.1748 199.128C64.234 198.308 64.2637 197.417 64.2637 196.455V196.291V195.088H65.5625V196.291V196.448ZM77.915 206.189H76.623V193.905H77.915V206.189ZM69.4932 202.163C70.6279 202.168 71.667 202.138 72.6104 202.074C73.5583 202.01 74.5358 201.899 75.543 201.739L75.6729 202.806C74.652 202.974 73.6631 203.09 72.7061 203.154C71.749 203.214 70.6781 203.243 69.4932 203.243H68.4473V202.163H69.4932ZM74.1689 199.49H69.7734V202.573H68.4473V198.451H72.8564V196.072H68.4268V195.013H74.1689V199.49Z" fill="#02BE81"/>
<rect x="121" y="304" width="110" height="140" rx="15" fill="white"/>
<path d="M160.609 385.625H147.891V384.625H160.609V385.625ZM154.812 390.266H153.609V385.062H154.812V390.266ZM150.734 378.875H157.734V376.953H158.969V382.938H149.516V376.953H150.734V378.875ZM157.734 381.938V379.875H150.734V381.938H157.734ZM166.484 380.641C166.484 381.589 166.302 382.529 165.938 383.461C165.573 384.393 165.086 385.224 164.477 385.953C163.867 386.682 163.198 387.229 162.469 387.594L161.734 386.625C162.391 386.302 163.005 385.82 163.578 385.18C164.151 384.539 164.609 383.818 164.953 383.016C165.297 382.214 165.469 381.422 165.469 380.641V378.344H166.484V380.641ZM166.703 380.641C166.703 381.401 166.872 382.161 167.211 382.922C167.549 383.682 168.008 384.357 168.586 384.945C169.164 385.534 169.792 385.979 170.469 386.281L169.781 387.25C169.031 386.906 168.346 386.396 167.727 385.719C167.107 385.042 166.617 384.26 166.258 383.375C165.898 382.49 165.719 381.578 165.719 380.641V378.344H166.703V380.641ZM170.016 378.828H162.188V377.812H170.016V378.828ZM173.188 390.266H171.953V376.375H173.188V390.266ZM177.203 383.656C178.651 383.656 179.828 383.63 180.734 383.578C181.641 383.526 182.552 383.422 183.469 383.266L183.578 384.297C182.641 384.443 181.711 384.542 180.789 384.594C179.867 384.646 178.672 384.672 177.203 384.672H176.141V383.656H177.203ZM182.312 381.422H177.375V384.297H176.141V380.422H181.094V378.359H176.109V377.359H182.312V381.422ZM187.078 386.594H185.844V376.391H187.078V386.594ZM187.5 389.969H178.062V388.938H187.5V389.969ZM179.281 389.281H178.062V385.812H179.281V389.281ZM186.156 381.078H183.203V380.016H186.156V381.078ZM200.25 386.797H199.031V376.391H200.25V386.797ZM202.344 382H199.859V380.969H202.344V382ZM197.703 379.094H189.422V378.094H197.703V379.094ZM193.562 379.859C194.219 379.859 194.799 379.966 195.305 380.18C195.81 380.393 196.203 380.695 196.484 381.086C196.766 381.477 196.906 381.932 196.906 382.453C196.906 382.964 196.766 383.411 196.484 383.797C196.203 384.182 195.81 384.482 195.305 384.695C194.799 384.909 194.219 385.016 193.562 385.016C192.906 385.016 192.323 384.909 191.812 384.695C191.302 384.482 190.909 384.182 190.633 383.797C190.357 383.411 190.219 382.964 190.219 382.453C190.219 381.932 190.357 381.477 190.633 381.086C190.909 380.695 191.302 380.393 191.812 380.18C192.323 379.966 192.906 379.859 193.562 379.859ZM193.562 380.828C193.135 380.828 192.755 380.893 192.422 381.023C192.089 381.154 191.833 381.344 191.656 381.594C191.479 381.844 191.391 382.13 191.391 382.453C191.391 382.776 191.479 383.057 191.656 383.297C191.833 383.536 192.089 383.721 192.422 383.852C192.755 383.982 193.135 384.047 193.562 384.047C193.99 384.047 194.37 383.982 194.703 383.852C195.036 383.721 195.294 383.536 195.477 383.297C195.659 383.057 195.75 382.776 195.75 382.453C195.75 382.13 195.659 381.844 195.477 381.594C195.294 381.344 195.036 381.154 194.703 381.023C194.37 380.893 193.99 380.828 193.562 380.828ZM194.172 378.609H192.953V376.391H194.172V378.609ZM200.891 389.969H191.562V388.938H200.891V389.969ZM192.766 389.359H191.562V385.969H192.766V389.359ZM151.859 400.141C151.859 400.818 151.727 401.495 151.461 402.172C151.195 402.849 150.815 403.458 150.32 404C149.826 404.542 149.25 404.953 148.594 405.234L147.922 404.281C148.516 404.021 149.036 403.664 149.484 403.211C149.932 402.758 150.276 402.263 150.516 401.727C150.755 401.19 150.875 400.661 150.875 400.141V398.25H151.859V400.141ZM152.047 400.141C152.047 400.651 152.164 401.154 152.398 401.648C152.633 402.143 152.966 402.589 153.398 402.984C153.831 403.38 154.333 403.688 154.906 403.906L154.266 404.844C153.609 404.583 153.039 404.214 152.555 403.734C152.07 403.255 151.703 402.703 151.453 402.078C151.203 401.453 151.078 400.807 151.078 400.141V398.25H152.047V400.141ZM159.703 405.969H158.531V397.391H159.703V405.969ZM158.922 402.141H156.266V401.125H158.922V402.141ZM156.688 405.531H155.531V397.656H156.688V405.531ZM155.109 406.281C156.068 406.281 156.898 406.378 157.602 406.57C158.305 406.763 158.844 407.047 159.219 407.422C159.594 407.797 159.781 408.245 159.781 408.766C159.781 409.276 159.594 409.716 159.219 410.086C158.844 410.456 158.305 410.74 157.602 410.938C156.898 411.135 156.068 411.234 155.109 411.234C154.151 411.234 153.32 411.135 152.617 410.938C151.914 410.74 151.378 410.456 151.008 410.086C150.638 409.716 150.453 409.276 150.453 408.766C150.453 408.245 150.638 407.797 151.008 407.422C151.378 407.047 151.914 406.763 152.617 406.57C153.32 406.378 154.151 406.281 155.109 406.281ZM155.109 407.219C154.411 407.219 153.802 407.279 153.281 407.398C152.76 407.518 152.362 407.695 152.086 407.93C151.81 408.164 151.672 408.443 151.672 408.766C151.672 409.078 151.81 409.349 152.086 409.578C152.362 409.807 152.758 409.982 153.273 410.102C153.789 410.221 154.401 410.281 155.109 410.281C155.818 410.281 156.43 410.221 156.945 410.102C157.461 409.982 157.859 409.807 158.141 409.578C158.422 409.349 158.562 409.078 158.562 408.766C158.562 408.443 158.422 408.164 158.141 407.93C157.859 407.695 157.458 407.518 156.938 407.398C156.417 407.279 155.807 407.219 155.109 407.219ZM172.578 405.578H171.344V397.375H172.578V405.578ZM174.656 401.984H172.062V400.938H174.656V401.984ZM172.578 409H164.781V410.484H163.562V408.172H171.359V407.078H163.531V406.203H172.578V409ZM173.109 411.109H163.562V410.234H173.109V411.109ZM166.656 404.828H165.438V403.078H166.656V404.828ZM161.672 404.328C163.495 404.328 165.102 404.305 166.492 404.258C167.883 404.211 169.214 404.094 170.484 403.906L170.594 404.734C169.271 404.943 167.893 405.081 166.461 405.148C165.029 405.216 163.479 405.25 161.812 405.25L161.672 404.328ZM170.062 399.328H162.016V398.438H170.062V399.328ZM166.031 399.797C166.698 399.797 167.276 399.867 167.766 400.008C168.255 400.148 168.633 400.354 168.898 400.625C169.164 400.896 169.297 401.219 169.297 401.594C169.297 401.979 169.164 402.312 168.898 402.594C168.633 402.875 168.255 403.089 167.766 403.234C167.276 403.38 166.698 403.453 166.031 403.453C165.375 403.453 164.802 403.38 164.312 403.234C163.823 403.089 163.445 402.875 163.18 402.594C162.914 402.312 162.781 401.979 162.781 401.594C162.781 401.219 162.914 400.896 163.18 400.625C163.445 400.354 163.823 400.148 164.312 400.008C164.802 399.867 165.375 399.797 166.031 399.797ZM166.031 400.609C165.604 400.609 165.234 400.648 164.922 400.727C164.609 400.805 164.37 400.917 164.203 401.062C164.036 401.208 163.953 401.385 163.953 401.594C163.953 401.802 164.039 401.982 164.211 402.133C164.383 402.284 164.625 402.404 164.938 402.492C165.25 402.581 165.615 402.625 166.031 402.625C166.458 402.625 166.828 402.581 167.141 402.492C167.453 402.404 167.695 402.284 167.867 402.133C168.039 401.982 168.125 401.802 168.125 401.594C168.125 401.385 168.042 401.208 167.875 401.062C167.708 400.917 167.466 400.805 167.148 400.727C166.831 400.648 166.458 400.609 166.031 400.609ZM166.656 398.922H165.438V397.25H166.656V398.922ZM186.312 411.266H185.094V397.375H186.312V411.266ZM188.641 404.125H186.031V403.109H188.641V404.125ZM183.75 400.625H175.484V399.609H183.75V400.625ZM179.688 401.781C180.344 401.781 180.93 401.917 181.445 402.188C181.961 402.458 182.365 402.836 182.656 403.32C182.948 403.805 183.094 404.354 183.094 404.969C183.094 405.583 182.948 406.133 182.656 406.617C182.365 407.102 181.961 407.479 181.445 407.75C180.93 408.021 180.344 408.156 179.688 408.156C179.031 408.156 178.445 408.021 177.93 407.75C177.414 407.479 177.01 407.102 176.719 406.617C176.427 406.133 176.281 405.583 176.281 404.969C176.281 404.354 176.427 403.805 176.719 403.32C177.01 402.836 177.414 402.458 177.93 402.188C178.445 401.917 179.031 401.781 179.688 401.781ZM179.688 402.812C179.26 402.812 178.878 402.904 178.539 403.086C178.201 403.268 177.935 403.523 177.742 403.852C177.549 404.18 177.453 404.552 177.453 404.969C177.453 405.385 177.549 405.755 177.742 406.078C177.935 406.401 178.201 406.654 178.539 406.836C178.878 407.018 179.26 407.109 179.688 407.109C180.115 407.109 180.497 407.018 180.836 406.836C181.174 406.654 181.44 406.401 181.633 406.078C181.826 405.755 181.922 405.385 181.922 404.969C181.922 404.552 181.826 404.18 181.633 403.852C181.44 403.523 181.174 403.268 180.836 403.086C180.497 402.904 180.115 402.812 179.688 402.812ZM180.281 400.078H179.062V397.547H180.281V400.078ZM200.875 411.266H199.641V397.375H200.875V411.266ZM196.766 398.891C196.766 400.266 196.539 401.552 196.086 402.75C195.633 403.948 194.922 405.049 193.953 406.055C192.984 407.06 191.745 407.927 190.234 408.656L189.562 407.656C190.906 407.021 192.021 406.273 192.906 405.414C193.792 404.555 194.453 403.594 194.891 402.531C195.328 401.469 195.547 400.318 195.547 399.078V398.891H196.766ZM196.047 399.891H190.203V398.891H196.047V399.891Z" fill="black"/>
<rect x="140" y="339" width="73" height="26" rx="8" fill="#DDF7FF"/>
<path opacity="0.8" d="M167.972 348.257C167.972 348.895 167.86 349.521 167.637 350.137C167.418 350.752 167.092 351.306 166.659 351.798C166.226 352.285 165.709 352.655 165.107 352.905L164.403 351.9C164.937 351.668 165.395 351.354 165.777 350.957C166.16 350.561 166.45 350.13 166.646 349.665C166.846 349.196 166.946 348.726 166.946 348.257V346.671H167.972V348.257ZM168.19 348.257C168.19 348.713 168.286 349.155 168.478 349.583C168.674 350.011 168.956 350.399 169.325 350.745C169.694 351.091 170.134 351.363 170.645 351.559L169.961 352.55C169.368 352.317 168.86 351.985 168.437 351.552C168.017 351.114 167.701 350.611 167.486 350.041C167.277 349.471 167.172 348.877 167.172 348.257V346.671H168.19V348.257ZM174.896 353.459H173.659V345.919H174.896V353.459ZM174.042 350.178H171.827V349.111H174.042V350.178ZM172.237 353.076H171.027V346.145H172.237V353.076ZM170.802 353.698C171.649 353.698 172.385 353.785 173.01 353.958C173.639 354.131 174.122 354.386 174.459 354.724C174.796 355.056 174.965 355.455 174.965 355.92C174.965 356.38 174.796 356.774 174.459 357.103C174.122 357.435 173.639 357.69 173.01 357.868C172.385 358.05 171.649 358.142 170.802 358.142C169.95 358.142 169.209 358.05 168.58 357.868C167.956 357.69 167.477 357.435 167.145 357.103C166.812 356.774 166.646 356.38 166.646 355.92C166.646 355.455 166.812 355.056 167.145 354.724C167.477 354.386 167.956 354.131 168.58 353.958C169.209 353.785 169.95 353.698 170.802 353.698ZM170.802 354.683C170.214 354.683 169.703 354.73 169.271 354.826C168.838 354.917 168.507 355.059 168.279 355.25C168.056 355.437 167.944 355.66 167.944 355.92C167.944 356.18 168.056 356.401 168.279 356.583C168.507 356.765 168.835 356.904 169.264 357C169.692 357.096 170.205 357.144 170.802 357.144C171.394 357.144 171.905 357.096 172.333 357C172.761 356.904 173.09 356.765 173.317 356.583C173.55 356.401 173.666 356.18 173.666 355.92C173.666 355.66 173.55 355.437 173.317 355.25C173.09 355.059 172.759 354.917 172.326 354.826C171.893 354.73 171.385 354.683 170.802 354.683ZM186.196 353.131H184.891V345.905H186.196V353.131ZM187.939 350.062H185.684V348.968H187.939V350.062ZM186.196 356.207H179.422V357.417H178.13V355.366H184.897V354.539H178.109V353.644H186.196V356.207ZM186.641 358.039H178.13V357.144H186.641V358.039ZM180.96 352.495H179.675V350.889H180.96V352.495ZM176.469 351.962C178.059 351.962 179.465 351.941 180.687 351.9C181.912 351.859 183.081 351.759 184.193 351.6L184.303 352.447C183.141 352.63 181.935 352.75 180.687 352.81C179.438 352.869 178.08 352.898 176.612 352.898L176.469 351.962ZM183.845 347.696H176.776V346.787H183.845V347.696ZM180.304 348.052C180.901 348.052 181.418 348.113 181.855 348.236C182.293 348.359 182.63 348.542 182.867 348.783C183.109 349.02 183.229 349.303 183.229 349.631C183.229 349.973 183.109 350.269 182.867 350.52C182.63 350.766 182.293 350.952 181.855 351.08C181.418 351.208 180.901 351.274 180.304 351.278C179.716 351.274 179.203 351.208 178.766 351.08C178.328 350.952 177.989 350.766 177.747 350.52C177.51 350.269 177.392 349.973 177.392 349.631C177.392 349.303 177.51 349.02 177.747 348.783C177.989 348.542 178.328 348.359 178.766 348.236C179.203 348.113 179.716 348.052 180.304 348.052ZM180.304 348.886C179.953 348.886 179.652 348.915 179.401 348.975C179.155 349.034 178.964 349.118 178.827 349.228C178.695 349.337 178.629 349.471 178.629 349.631C178.629 349.795 178.697 349.936 178.834 350.055C178.971 350.169 179.164 350.26 179.415 350.328C179.666 350.392 179.962 350.426 180.304 350.431C180.655 350.426 180.953 350.392 181.199 350.328C181.45 350.26 181.644 350.169 181.78 350.055C181.917 349.936 181.985 349.795 181.985 349.631C181.985 349.471 181.919 349.337 181.787 349.228C181.655 349.118 181.461 349.034 181.206 348.975C180.955 348.915 180.655 348.886 180.304 348.886ZM180.96 347.293H179.675V345.803H180.96V347.293Z" fill="#00ABE1"/>
<rect width="110" height="140" rx="15" fill="white"/>
<path d="M17.7344 74.4219C17.7344 75.3802 17.4635 76.276 16.9219 77.1094C16.3802 77.9427 15.6797 78.6458 14.8203 79.2188C13.9609 79.7917 13.0573 80.1875 12.1094 80.4062L11.5469 79.375C12.3698 79.2083 13.1771 78.8828 13.9688 78.3984C14.7604 77.9141 15.4062 77.3203 15.9062 76.6172C16.4062 75.9141 16.6562 75.1823 16.6562 74.4219V73.3594H17.7344V74.4219ZM17.9375 74.4219C17.9375 75.1719 18.1927 75.901 18.7031 76.6094C19.2135 77.3177 19.8672 77.9167 20.6641 78.4062C21.4609 78.8958 22.2656 79.2188 23.0781 79.375L22.5156 80.4062C21.5781 80.1875 20.6797 79.7943 19.8203 79.2266C18.9609 78.6589 18.2578 77.9557 17.7109 77.1172C17.1641 76.2786 16.8906 75.3802 16.8906 74.4219V73.3594H17.9375V74.4219ZM23.7344 84.375H11.0156V83.3594H23.7344V84.375ZM31.8281 82.7344H25.4219V73.7812H31.8281V82.7344ZM26.6094 81.7344H30.6094V74.7656H26.6094V81.7344ZM35.5938 86.2656H34.375V72.375H35.5938V86.2656ZM37.9219 78.9844H35.3125V77.9219H37.9219V78.9844ZM49.9219 80.8906H40.3125V79.8906H49.9219V80.8906ZM51.3906 84.4531H38.6719V83.4375H51.3906V84.4531ZM49.7656 74.6094H41.5625V80.1875H40.3125V73.5781H49.7656V74.6094ZM49.4688 77.6562H41.1719V76.6719H49.4688V77.6562ZM59.2188 74.4219C59.2188 75.3802 58.9479 76.276 58.4062 77.1094C57.8646 77.9427 57.1641 78.6458 56.3047 79.2188C55.4453 79.7917 54.5417 80.1875 53.5938 80.4062L53.0312 79.375C53.8542 79.2083 54.6615 78.8828 55.4531 78.3984C56.2448 77.9141 56.8906 77.3203 57.3906 76.6172C57.8906 75.9141 58.1406 75.1823 58.1406 74.4219V73.3594H59.2188V74.4219ZM59.4219 74.4219C59.4219 75.1719 59.6771 75.901 60.1875 76.6094C60.6979 77.3177 61.3516 77.9167 62.1484 78.4062C62.9453 78.8958 63.75 79.2188 64.5625 79.375L64 80.4062C63.0625 80.1875 62.1641 79.7943 61.3047 79.2266C60.4453 78.6589 59.7422 77.9557 59.1953 77.1172C58.6484 76.2786 58.375 75.3802 58.375 74.4219V73.3594H59.4219V74.4219ZM65.2188 84.375H52.5V83.3594H65.2188V84.375ZM77.5781 80.6094H67.9688V79.6094H77.5781V80.6094ZM79.0469 84.5312H66.3281V83.5156H79.0469V84.5312ZM73.2656 83.9844H72.0469V80.125H73.2656V83.9844ZM77.4219 74.5312H69.2188V80H67.9688V73.5156H77.4219V74.5312ZM77.125 77.5156H68.8281V76.5156H77.125V77.5156ZM83.8906 73.4531C84.5677 73.4531 85.1667 73.6536 85.6875 74.0547C86.2083 74.4557 86.6172 75.0208 86.9141 75.75C87.2109 76.4792 87.3594 77.3281 87.3594 78.2969C87.3594 79.2656 87.2109 80.1146 86.9141 80.8438C86.6172 81.5729 86.2083 82.1354 85.6875 82.5312C85.1667 82.9271 84.5677 83.125 83.8906 83.125C83.2135 83.125 82.612 82.9271 82.0859 82.5312C81.5599 82.1354 81.1484 81.5729 80.8516 80.8438C80.5547 80.1146 80.4062 79.2656 80.4062 78.2969C80.4062 77.3281 80.5547 76.4792 80.8516 75.75C81.1484 75.0208 81.5599 74.4557 82.0859 74.0547C82.612 73.6536 83.2135 73.4531 83.8906 73.4531ZM83.8906 74.5469C83.4427 74.5469 83.0417 74.7031 82.6875 75.0156C82.3333 75.3281 82.0599 75.7656 81.8672 76.3281C81.6745 76.8906 81.5781 77.5469 81.5781 78.2969C81.5781 79.0365 81.6745 79.6901 81.8672 80.2578C82.0599 80.8255 82.3333 81.263 82.6875 81.5703C83.0417 81.8776 83.4427 82.0312 83.8906 82.0312C84.3385 82.0312 84.7396 81.8776 85.0938 81.5703C85.4479 81.263 85.7214 80.8255 85.9141 80.2578C86.1068 79.6901 86.2031 79.0365 86.2031 78.2969C86.2031 77.5469 86.1068 76.8906 85.9141 76.3281C85.7214 75.7656 85.4505 75.3281 85.1016 75.0156C84.7526 74.7031 84.349 74.5469 83.8906 74.5469ZM91.6719 86.2969H90.4531V72.375H91.6719V86.2969ZM91 78.7031H86.9531V77.6875H91V78.7031ZM95.0469 88.2031H93.8906L94.75 83.9531H96.2656L95.0469 88.2031ZM37.5391 94.4531C38.2266 94.4531 38.8333 94.6536 39.3594 95.0547C39.8854 95.4557 40.2995 96.0208 40.6016 96.75C40.9036 97.4792 41.0547 98.3281 41.0547 99.2969C41.0547 100.266 40.9036 101.115 40.6016 101.844C40.2995 102.573 39.8828 103.135 39.3516 103.531C38.8203 103.927 38.2161 104.125 37.5391 104.125C36.862 104.125 36.2578 103.927 35.7266 103.531C35.1953 103.135 34.7812 102.573 34.4844 101.844C34.1875 101.115 34.0391 100.266 34.0391 99.2969C34.0391 98.3281 34.1875 97.4792 34.4844 96.75C34.7812 96.0208 35.1953 95.4557 35.7266 95.0547C36.2578 94.6536 36.862 94.4531 37.5391 94.4531ZM37.5391 95.5469C37.0807 95.5469 36.6745 95.7031 36.3203 96.0156C35.9661 96.3281 35.6901 96.7656 35.4922 97.3281C35.2943 97.8906 35.1953 98.5469 35.1953 99.2969C35.1953 100.036 35.2943 100.69 35.4922 101.258C35.6901 101.826 35.9688 102.263 36.3281 102.57C36.6875 102.878 37.0911 103.031 37.5391 103.031C37.9974 103.031 38.4036 102.878 38.7578 102.57C39.112 102.263 39.3854 101.826 39.5781 101.258C39.7708 100.69 39.8672 100.036 39.8672 99.2969C39.8672 98.5469 39.7708 97.8906 39.5781 97.3281C39.3854 96.7656 39.112 96.3281 38.7578 96.0156C38.4036 95.7031 37.9974 95.5469 37.5391 95.5469ZM44.5703 107.266H43.3516V93.375H44.5703V107.266ZM46.8984 99.9844H44.2891V98.9219H46.8984V99.9844ZM54.6328 103.734H48.2266V94.7812H54.6328V103.734ZM49.4141 102.734H53.4141V95.7656H49.4141V102.734ZM58.3984 107.266H57.1797V93.375H58.3984V107.266ZM60.7266 99.9844H58.1172V98.9219H60.7266V99.9844ZM68.1016 95.1094C68.1016 95.8594 67.8568 96.5443 67.3672 97.1641C66.8776 97.7839 66.2214 98.2969 65.3984 98.7031C64.5755 99.1094 63.6797 99.3906 62.7109 99.5469L62.2578 98.5469C63.0807 98.4427 63.8568 98.224 64.5859 97.8906C65.3151 97.5573 65.901 97.1484 66.3438 96.6641C66.7865 96.1797 67.0078 95.6615 67.0078 95.1094V94.6875H68.1016V95.1094ZM68.6016 95.1094C68.6016 95.6615 68.8255 96.1797 69.2734 96.6641C69.7214 97.1484 70.3125 97.5573 71.0469 97.8906C71.7812 98.224 72.5599 98.4427 73.3828 98.5469L72.8984 99.5469C71.9401 99.3906 71.0495 99.1094 70.2266 98.7031C69.4036 98.2969 68.7448 97.7839 68.25 97.1641C67.7552 96.5443 67.5078 95.8594 67.5078 95.1094V94.6875H68.6016V95.1094ZM73.0078 95.0781H62.6328V94.0625H73.0078V95.0781ZM72.7266 106.969H63.1172V105.938H72.7266V106.969ZM64.3516 106.359H63.1172V103.016H64.3516V106.359ZM74.1797 101.891H61.4766V100.875H74.1797V101.891ZM68.3984 101.297H67.1953V98.5469H68.3984V101.297Z" fill="black"/>
<rect x="19" y="35" width="73" height="26" rx="8" fill="#E8EBFE"/>
<path opacity="0.8" d="M43.4463 43.6484C43.4463 44.5052 43.2161 45.3096 42.7559 46.0615C42.3001 46.8089 41.6917 47.4424 40.9307 47.9619C40.1696 48.4814 39.3379 48.8415 38.4355 49.042L37.8545 47.9551C38.6338 47.8001 39.3652 47.5085 40.0488 47.0801C40.7324 46.6517 41.2793 46.1344 41.6895 45.5283C42.0996 44.9222 42.3047 44.2956 42.3047 43.6484V42.7324H43.4463V43.6484ZM43.6719 43.6484C43.6719 44.291 43.8792 44.9176 44.2939 45.5283C44.7087 46.139 45.2601 46.6608 45.9482 47.0938C46.6364 47.5221 47.3678 47.8092 48.1426 47.9551L47.5615 49.042C46.6683 48.8415 45.8411 48.4837 45.0801 47.9688C44.319 47.4538 43.7083 46.8203 43.248 46.0684C42.7878 45.3164 42.5576 44.5098 42.5576 43.6484V42.7324H43.6719V43.6484ZM48.6621 52.5488H37.4512V51.4756H48.6621V52.5488ZM59.4971 49.2266H50.9521V48.1875H59.4971V49.2266ZM60.7617 52.6855H49.5508V51.626H60.7617V52.6855ZM55.7852 52.0977H54.4932V48.7139H55.7852V52.0977ZM59.374 43.915H52.2783V48.5908H50.9521V42.8555H59.374V43.915ZM59.1006 46.5332H51.875V45.4941H59.1006V46.5332ZM64.9727 42.8281C65.5742 42.8281 66.1074 43.0059 66.5723 43.3613C67.0417 43.7168 67.4085 44.2181 67.6729 44.8652C67.9372 45.5124 68.0693 46.2666 68.0693 47.1279C68.0693 47.9938 67.9372 48.7503 67.6729 49.3975C67.4085 50.0446 67.0417 50.5459 66.5723 50.9014C66.1074 51.2523 65.5742 51.4277 64.9727 51.4277C64.3711 51.4277 63.8333 51.2523 63.3594 50.9014C62.89 50.5505 62.5231 50.0514 62.2588 49.4043C61.9945 48.7526 61.8623 47.9938 61.8623 47.1279C61.8623 46.2666 61.9945 45.5124 62.2588 44.8652C62.5231 44.2181 62.89 43.7168 63.3594 43.3613C63.8333 43.0059 64.3711 42.8281 64.9727 42.8281ZM64.9727 43.9902C64.6081 43.9902 64.2822 44.1178 63.9951 44.373C63.708 44.6283 63.487 44.9928 63.332 45.4668C63.1816 45.9362 63.1064 46.4899 63.1064 47.1279C63.1064 47.7614 63.1816 48.3151 63.332 48.7891C63.487 49.263 63.708 49.6276 63.9951 49.8828C64.2822 50.1335 64.6081 50.2588 64.9727 50.2588C65.3372 50.2588 65.6631 50.1335 65.9502 49.8828C66.2373 49.6276 66.4583 49.263 66.6133 48.7891C66.7682 48.3151 66.8457 47.7614 66.8457 47.1279C66.8457 46.4899 66.766 45.9362 66.6064 45.4668C66.4515 44.9928 66.2327 44.6283 65.9502 44.373C65.6722 44.1178 65.3464 43.9902 64.9727 43.9902ZM71.8701 54.1895H70.5781V41.9053H71.8701V54.1895ZM71.1455 47.5654H67.6592V46.5059H71.1455V47.5654Z" fill="#475FFD"/>
<rect x="121" width="110" height="140" rx="15" fill="white"/>
<path d="M152.617 74.3438C152.617 75.1354 152.357 75.8646 151.836 76.5312C151.315 77.1979 150.638 77.7526 149.805 78.1953C148.971 78.638 148.081 78.9427 147.133 79.1094L146.648 78.1406C147.461 78.0156 148.245 77.7682 149 77.3984C149.755 77.0286 150.367 76.5755 150.836 76.0391C151.305 75.5026 151.539 74.9375 151.539 74.3438V73.75H152.617V74.3438ZM152.914 74.3438C152.914 74.9375 153.148 75.5026 153.617 76.0391C154.086 76.5755 154.698 77.0286 155.453 77.3984C156.208 77.7682 156.992 78.0156 157.805 78.1406L157.352 79.1094C156.393 78.9427 155.495 78.6406 154.656 78.2031C153.818 77.7656 153.141 77.2109 152.625 76.5391C152.109 75.8672 151.852 75.1354 151.852 74.3438V73.75H152.914V74.3438ZM152.805 86.2656H151.602V80.9531H152.805V86.2656ZM158.555 81.3125H145.898V80.2969H158.555V81.3125ZM157.352 74.25H147.086V73.25H157.352V74.25ZM170.461 75.9688H166.414V74.9375H170.461V75.9688ZM170.508 78.9375H166.414V77.9219H170.508V78.9375ZM171.242 82.6719H170.008V72.3906H171.242V82.6719ZM171.555 85.9688H162.258V84.9375H171.555V85.9688ZM163.492 85.4375H162.258V81.6562H163.492V85.4375ZM161.648 75.7812H165.523V73.3125H166.727V80.2969H160.43V73.3125H161.648V75.7812ZM165.523 79.2812V76.75H161.648V79.2812H165.523ZM182.023 76.1094C182.023 77.1094 181.854 78.0885 181.516 79.0469C181.177 80.0052 180.714 80.8542 180.125 81.5938C179.536 82.3333 178.878 82.901 178.148 83.2969L177.367 82.3125C178.044 81.9792 178.659 81.4844 179.211 80.8281C179.763 80.1719 180.203 79.4271 180.531 78.5938C180.859 77.7604 181.023 76.9323 181.023 76.1094V73.5781H182.023V76.1094ZM182.227 76.1094C182.227 76.901 182.388 77.6953 182.711 78.4922C183.034 79.2891 183.471 80 184.023 80.625C184.576 81.25 185.174 81.724 185.82 82.0469L185.07 83.0312C184.352 82.6458 183.701 82.0964 183.117 81.3828C182.534 80.6693 182.076 79.8516 181.742 78.9297C181.409 78.0078 181.242 77.0677 181.242 76.1094V73.5781H182.227V76.1094ZM188.32 86.2656H187.102V72.375H188.32V86.2656ZM190.648 79.0781H188.039V78.0156H190.648V79.0781ZM202.258 80.6719H201.039V72.3906H202.258V80.6719ZM204.367 77H201.867V75.9531H204.367V77ZM202.258 86.0781H193.461V81.3594H202.258V86.0781ZM194.664 85.0781H201.07V82.3125H194.664V85.0781ZM193.102 78.9062C194.487 78.9062 195.667 78.8776 196.641 78.8203C197.615 78.763 198.617 78.651 199.648 78.4844L199.773 79.4688C198.721 79.6458 197.695 79.7682 196.695 79.8359C195.695 79.9036 194.497 79.9375 193.102 79.9375H192.023V78.9062H193.102ZM198.289 76.9375H193.227V79.5156H192.023V75.9844H197.086V74.1562H191.992V73.1406H198.289V76.9375ZM158.727 96.3438C158.727 97.0729 158.599 97.7734 158.344 98.4453C158.089 99.1172 157.724 99.7188 157.25 100.25C156.776 100.781 156.211 101.193 155.555 101.484L154.93 100.578C155.503 100.318 156.005 99.9661 156.438 99.5234C156.87 99.0807 157.201 98.5807 157.43 98.0234C157.659 97.4661 157.773 96.9062 157.773 96.3438V95.9375H158.727V96.3438ZM158.93 96.3438C158.93 96.875 159.047 97.3984 159.281 97.9141C159.516 98.4297 159.849 98.8906 160.281 99.2969C160.714 99.7031 161.216 100.021 161.789 100.25L161.195 101.188C160.539 100.917 159.969 100.534 159.484 100.039C159 99.5443 158.633 98.9792 158.383 98.3438C158.133 97.7083 158.008 97.0417 158.008 96.3438V95.9375H158.93V96.3438ZM161.445 96.2812H155.211V95.2969H161.445V96.2812ZM158.93 95.75H157.773V93.6562H158.93V95.75ZM166.617 102.078H165.445V93.3906H166.617V102.078ZM165.836 98.1406H163.18V97.1406H165.836V98.1406ZM163.633 101.562H162.445V93.6562H163.633V101.562ZM162.023 102.297C162.982 102.286 163.812 102.38 164.516 102.578C165.219 102.776 165.758 103.062 166.133 103.438C166.508 103.812 166.695 104.26 166.695 104.781C166.695 105.292 166.508 105.732 166.133 106.102C165.758 106.471 165.221 106.753 164.523 106.945C163.826 107.138 162.992 107.234 162.023 107.234C161.055 107.234 160.221 107.138 159.523 106.945C158.826 106.753 158.292 106.471 157.922 106.102C157.552 105.732 157.367 105.292 157.367 104.781C157.367 104.26 157.552 103.812 157.922 103.438C158.292 103.062 158.828 102.776 159.531 102.578C160.234 102.38 161.065 102.286 162.023 102.297ZM162.023 103.266C161.315 103.266 160.703 103.326 160.188 103.445C159.672 103.565 159.276 103.74 159 103.969C158.724 104.198 158.586 104.469 158.586 104.781C158.586 105.083 158.724 105.346 159 105.57C159.276 105.794 159.672 105.966 160.188 106.086C160.703 106.206 161.315 106.266 162.023 106.266C162.732 106.266 163.344 106.206 163.859 106.086C164.375 105.966 164.773 105.794 165.055 105.57C165.336 105.346 165.477 105.083 165.477 104.781C165.477 104.469 165.336 104.198 165.055 103.969C164.773 103.74 164.375 103.565 163.859 103.445C163.344 103.326 162.732 103.266 162.023 103.266ZM180.133 107.266H178.898V93.375H180.133V107.266ZM176.023 94.8906C176.023 96.2656 175.797 97.5521 175.344 98.75C174.891 99.9479 174.18 101.049 173.211 102.055C172.242 103.06 171.003 103.927 169.492 104.656L168.82 103.656C170.164 103.021 171.279 102.273 172.164 101.414C173.049 100.555 173.711 99.5938 174.148 98.5312C174.586 97.4688 174.805 96.3177 174.805 95.0781V94.8906H176.023ZM175.305 95.8906H169.461V94.8906H175.305V95.8906ZM193.961 107.266H192.727V93.375H193.961V107.266ZM189.852 94.8906C189.852 96.2656 189.625 97.5521 189.172 98.75C188.719 99.9479 188.008 101.049 187.039 102.055C186.07 103.06 184.831 103.927 183.32 104.656L182.648 103.656C183.992 103.021 185.107 102.273 185.992 101.414C186.878 100.555 187.539 99.5938 187.977 98.5312C188.414 97.4688 188.633 96.3177 188.633 95.0781V94.8906H189.852ZM189.133 95.8906H183.289V94.8906H189.133V95.8906Z" fill="black"/>
<rect x="140" y="35" width="73" height="26" rx="8" fill="#FFE4EB"/>
<path opacity="0.8" d="M168.609 50.8262H167.317V41.9189H168.609V50.8262ZM168.979 53.916H160.604V52.8428H168.979V53.916ZM161.903 53.2324H160.604V49.9238H161.903V53.2324ZM161.965 42.7461C162.576 42.7461 163.129 42.876 163.626 43.1357C164.127 43.391 164.519 43.751 164.802 44.2158C165.084 44.6761 165.226 45.1979 165.226 45.7812C165.226 46.3737 165.084 46.9001 164.802 47.3604C164.519 47.8206 164.127 48.1807 163.626 48.4404C163.129 48.7002 162.576 48.8301 161.965 48.8301C161.354 48.8301 160.8 48.7002 160.304 48.4404C159.812 48.1807 159.422 47.8206 159.135 47.3604C158.848 46.9001 158.704 46.3737 158.704 45.7812C158.704 45.1979 158.848 44.6761 159.135 44.2158C159.422 43.751 159.812 43.391 160.304 43.1357C160.8 42.876 161.354 42.7461 161.965 42.7461ZM161.965 43.8809C161.591 43.8809 161.252 43.9606 160.946 44.1201C160.641 44.2796 160.402 44.5029 160.229 44.79C160.06 45.0771 159.976 45.4076 159.976 45.7812C159.976 46.1549 160.06 46.4876 160.229 46.7793C160.402 47.071 160.641 47.2965 160.946 47.4561C161.252 47.6156 161.591 47.6953 161.965 47.6953C162.339 47.6953 162.676 47.6156 162.977 47.4561C163.277 47.2965 163.514 47.071 163.688 46.7793C163.861 46.4876 163.947 46.1549 163.947 45.7812C163.947 45.4076 163.861 45.0771 163.688 44.79C163.514 44.5029 163.277 44.2796 162.977 44.1201C162.676 43.9606 162.339 43.8809 161.965 43.8809ZM180.176 50.8125H178.863V41.9053H180.176V50.8125ZM181.96 46.6221H179.779V45.542H181.96V46.6221ZM176.854 42.8418C176.854 43.8945 176.623 44.8561 176.163 45.7266C175.703 46.5924 175.04 47.3421 174.174 47.9756C173.312 48.6045 172.283 49.1035 171.084 49.4727L170.53 48.4336C171.565 48.1237 172.449 47.7204 173.183 47.2236C173.921 46.7223 174.486 46.1527 174.878 45.5146C175.27 44.8721 175.466 44.1839 175.466 43.4502V42.8418H176.854ZM176.163 43.9219H171.05V42.8418H176.163V43.9219ZM180.688 53.916H172.403V52.8428H180.688V53.916ZM173.702 53.2871H172.403V49.9102H173.702V53.2871ZM186.766 43.8057C186.766 44.6032 186.627 45.346 186.349 46.0342C186.075 46.7178 185.679 47.3148 185.159 47.8252C184.64 48.3311 184.022 48.7184 183.307 48.9873L182.603 47.9346C183.245 47.7158 183.801 47.3991 184.271 46.9844C184.74 46.5697 185.098 46.0889 185.344 45.542C185.59 44.9951 185.713 44.4163 185.713 43.8057V42.5889H186.766V43.8057ZM187.005 43.7441C187.005 44.3138 187.121 44.8561 187.354 45.3711C187.59 45.8861 187.932 46.3372 188.379 46.7246C188.826 47.1074 189.354 47.3991 189.965 47.5996L189.247 48.6113C188.563 48.3607 187.976 47.9984 187.483 47.5244C186.991 47.0505 186.611 46.4922 186.342 45.8496C186.077 45.2025 185.945 44.5007 185.945 43.7441V42.5889H187.005V43.7441ZM192.863 49.1377H191.564V41.9053H192.863V49.1377ZM188.755 49.4863C189.616 49.4863 190.357 49.5775 190.977 49.7598C191.601 49.9375 192.077 50.2041 192.405 50.5596C192.738 50.9105 192.904 51.332 192.904 51.8242C192.904 52.3073 192.738 52.722 192.405 53.0684C192.077 53.4193 191.601 53.6859 190.977 53.8682C190.357 54.0505 189.616 54.1416 188.755 54.1416C187.903 54.1416 187.167 54.0505 186.547 53.8682C185.927 53.6859 185.451 53.4193 185.118 53.0684C184.785 52.722 184.619 52.3073 184.619 51.8242C184.619 51.332 184.785 50.9105 185.118 50.5596C185.451 50.2041 185.927 49.9375 186.547 49.7598C187.167 49.5775 187.903 49.4863 188.755 49.4863ZM188.755 50.498C188.167 50.498 187.657 50.5505 187.224 50.6553C186.795 50.7555 186.467 50.9059 186.239 51.1064C186.016 51.3024 185.904 51.5417 185.904 51.8242C185.904 52.0885 186.016 52.3187 186.239 52.5146C186.467 52.7061 186.795 52.8542 187.224 52.959C187.657 53.0638 188.167 53.1162 188.755 53.1162C189.356 53.1162 189.869 53.0638 190.293 52.959C190.721 52.8542 191.047 52.7061 191.271 52.5146C191.498 52.3187 191.612 52.0885 191.612 51.8242C191.612 51.5417 191.498 51.3024 191.271 51.1064C191.047 50.9059 190.721 50.7555 190.293 50.6553C189.869 50.5505 189.356 50.498 188.755 50.498ZM191.797 45.4736H188.98V44.4072H191.797V45.4736Z" fill="#FF6B8E"/>
<rect x="242" width="110" height="140" rx="15" fill="white"/>
<path d="M271.375 94.3359H270.141V92.0391H271.375V94.3359ZM277.5 97.6016H276.282V83.7109H277.5V97.6016ZM266.282 93.8984C268.198 93.888 269.862 93.8568 271.274 93.8047C272.685 93.7526 274.047 93.638 275.36 93.4609L275.454 94.3984C274.079 94.6172 272.646 94.763 271.157 94.8359C269.667 94.9089 268.073 94.9453 266.375 94.9453L266.188 93.8984H266.282ZM275 86.4297H266.485V85.4297H275V86.4297ZM270.735 87.2266C271.402 87.2266 271.987 87.3333 272.493 87.5469C272.998 87.7604 273.391 88.0599 273.672 88.4453C273.954 88.8307 274.094 89.2839 274.094 89.8047C274.094 90.3151 273.954 90.7604 273.672 91.1406C273.391 91.5208 272.998 91.8177 272.493 92.0312C271.987 92.2448 271.402 92.3516 270.735 92.3516C270.079 92.3516 269.498 92.2474 268.993 92.0391C268.487 91.8307 268.097 91.5339 267.821 91.1484C267.545 90.763 267.407 90.3151 267.407 89.8047C267.407 89.2839 267.545 88.8307 267.821 88.4453C268.097 88.0599 268.487 87.7604 268.993 87.5469C269.498 87.3333 270.079 87.2266 270.735 87.2266ZM270.735 88.1797C270.318 88.1797 269.943 88.2474 269.61 88.3828C269.277 88.5182 269.016 88.7083 268.829 88.9531C268.641 89.1979 268.547 89.4818 268.547 89.8047C268.547 90.1172 268.641 90.3932 268.829 90.6328C269.016 90.8724 269.277 91.0573 269.61 91.1875C269.943 91.3177 270.318 91.3828 270.735 91.3828C271.162 91.3828 271.542 91.3203 271.875 91.1953C272.209 91.0703 272.467 90.8854 272.649 90.6406C272.831 90.3958 272.922 90.1172 272.922 89.8047C272.922 89.4818 272.831 89.1979 272.649 88.9531C272.467 88.7083 272.209 88.5182 271.875 88.3828C271.542 88.2474 271.162 88.1797 270.735 88.1797ZM271.375 85.9609H270.141V83.7266H271.375V85.9609ZM284.391 87.4453C284.391 88.4453 284.222 89.4245 283.883 90.3828C283.545 91.3411 283.081 92.1901 282.493 92.9297C281.904 93.6693 281.245 94.237 280.516 94.6328L279.735 93.6484C280.412 93.3151 281.027 92.8203 281.579 92.1641C282.131 91.5078 282.571 90.763 282.899 89.9297C283.227 89.0964 283.391 88.2682 283.391 87.4453V84.9141H284.391V87.4453ZM284.594 87.4453C284.594 88.237 284.756 89.0312 285.079 89.8281C285.402 90.625 285.839 91.3359 286.391 91.9609C286.943 92.5859 287.542 93.0599 288.188 93.3828L287.438 94.3672C286.719 93.9818 286.068 93.4323 285.485 92.7188C284.902 92.0052 284.443 91.1875 284.11 90.2656C283.777 89.3438 283.61 88.4036 283.61 87.4453V84.9141H284.594V87.4453ZM290.688 97.6016H289.469V83.7109H290.688V97.6016ZM293.016 90.4141H290.407V89.3516H293.016V90.4141ZM301.5 96.5078C300.803 96.5078 300.18 96.3281 299.633 95.9688C299.086 95.6094 298.659 95.0964 298.352 94.4297C298.045 93.763 297.891 92.9922 297.891 92.1172C297.891 91.2318 298.045 90.4583 298.352 89.7969C298.659 89.1354 299.086 88.6276 299.633 88.2734C300.18 87.9193 300.808 87.7422 301.516 87.7422C301.995 87.7422 302.396 87.8177 302.719 87.9688C303.042 88.1198 303.29 88.2917 303.461 88.4844C303.633 88.6771 303.787 88.8932 303.922 89.1328L303.969 89.1953H304.063V85.0234H305.422V96.3359H304.11V95.0391H303.969L303.922 95.1016C303.777 95.3411 303.618 95.5599 303.446 95.7578C303.274 95.9557 303.027 96.1302 302.704 96.2812C302.381 96.4323 301.98 96.5078 301.5 96.5078ZM301.688 95.3047C302.198 95.3047 302.636 95.1693 303 94.8984C303.365 94.6276 303.641 94.25 303.829 93.7656C304.016 93.2812 304.11 92.7214 304.11 92.0859C304.11 91.4505 304.019 90.8984 303.836 90.4297C303.654 89.9609 303.381 89.5964 303.016 89.3359C302.652 89.0755 302.209 88.9453 301.688 88.9453C301.167 88.9453 300.724 89.0807 300.36 89.3516C299.995 89.6224 299.719 89.9948 299.532 90.4688C299.344 90.9427 299.25 91.4818 299.25 92.0859C299.25 92.7005 299.344 93.25 299.532 93.7344C299.719 94.2188 299.995 94.6016 300.36 94.8828C300.724 95.1641 301.167 95.3047 301.688 95.3047ZM312.938 92.3984C312.844 92.3984 312.391 92.4297 311.579 92.4922L310.688 92.5547C310.053 92.5964 309.56 92.7344 309.211 92.9688C308.862 93.2031 308.688 93.5443 308.688 93.9922C308.688 94.2839 308.764 94.5286 308.915 94.7266C309.066 94.9245 309.277 95.0755 309.547 95.1797C309.818 95.2839 310.125 95.3359 310.469 95.3359C310.959 95.3359 311.381 95.2396 311.735 95.0469C312.089 94.8542 312.36 94.599 312.547 94.2812C312.735 93.9635 312.829 93.6224 312.829 93.2578V90.6172C312.829 90.2526 312.758 89.9427 312.618 89.6875C312.477 89.4323 312.264 89.2396 311.977 89.1094C311.691 88.9792 311.334 88.9141 310.907 88.9141C310.396 88.9141 309.977 89.0182 309.649 89.2266C309.321 89.4349 309.105 89.7109 309 90.0547H307.594C307.657 89.5964 307.836 89.1927 308.133 88.8438C308.43 88.4948 308.823 88.224 309.313 88.0312C309.803 87.8385 310.355 87.7422 310.969 87.7422C311.459 87.7422 311.938 87.8151 312.407 87.9609C312.875 88.1068 313.284 88.401 313.633 88.8438C313.982 89.2865 314.157 89.9193 314.157 90.7422V96.3359H312.829V95.1797H312.766C312.662 95.3984 312.503 95.6094 312.29 95.8125C312.076 96.0156 311.795 96.1875 311.446 96.3281C311.097 96.4688 310.693 96.5391 310.235 96.5391C309.693 96.5391 309.204 96.4349 308.766 96.2266C308.329 96.0182 307.982 95.7161 307.727 95.3203C307.472 94.9245 307.344 94.4609 307.344 93.9297C307.344 93.0443 307.646 92.4219 308.25 92.0625C308.855 91.7031 309.615 91.4922 310.532 91.4297C310.636 91.4193 311.136 91.388 312.032 91.3359L312.922 91.3047L312.938 92.3984ZM320.016 88.9766H315.594V87.8516H320.016V88.9766ZM318.235 85.8203V93.8984C318.235 94.2422 318.284 94.5052 318.383 94.6875C318.482 94.8698 318.612 94.9948 318.774 95.0625C318.935 95.1302 319.125 95.1641 319.344 95.1641C319.605 95.1641 319.87 95.1536 320.141 95.1328V96.3828C319.87 96.4245 319.558 96.4453 319.204 96.4453C318.808 96.4453 318.433 96.362 318.079 96.1953C317.724 96.0286 317.435 95.7786 317.211 95.4453C316.987 95.112 316.875 94.7109 316.875 94.2422V85.8203H318.235ZM326.938 92.3984C326.844 92.3984 326.391 92.4297 325.579 92.4922L324.688 92.5547C324.053 92.5964 323.56 92.7344 323.211 92.9688C322.862 93.2031 322.688 93.5443 322.688 93.9922C322.688 94.2839 322.764 94.5286 322.915 94.7266C323.066 94.9245 323.277 95.0755 323.547 95.1797C323.818 95.2839 324.125 95.3359 324.469 95.3359C324.959 95.3359 325.381 95.2396 325.735 95.0469C326.089 94.8542 326.36 94.599 326.547 94.2812C326.735 93.9635 326.829 93.6224 326.829 93.2578V90.6172C326.829 90.2526 326.758 89.9427 326.618 89.6875C326.477 89.4323 326.264 89.2396 325.977 89.1094C325.691 88.9792 325.334 88.9141 324.907 88.9141C324.396 88.9141 323.977 89.0182 323.649 89.2266C323.321 89.4349 323.105 89.7109 323 90.0547H321.594C321.657 89.5964 321.836 89.1927 322.133 88.8438C322.43 88.4948 322.823 88.224 323.313 88.0312C323.803 87.8385 324.355 87.7422 324.969 87.7422C325.459 87.7422 325.938 87.8151 326.407 87.9609C326.875 88.1068 327.284 88.401 327.633 88.8438C327.982 89.2865 328.157 89.9193 328.157 90.7422V96.3359H326.829V95.1797H326.766C326.662 95.3984 326.503 95.6094 326.29 95.8125C326.076 96.0156 325.795 96.1875 325.446 96.3281C325.097 96.4688 324.693 96.5391 324.235 96.5391C323.693 96.5391 323.204 96.4349 322.766 96.2266C322.329 96.0182 321.982 95.7161 321.727 95.3203C321.472 94.9245 321.344 94.4609 321.344 93.9297C321.344 93.0443 321.646 92.4219 322.25 92.0625C322.855 91.7031 323.615 91.4922 324.532 91.4297C324.636 91.4193 325.136 91.388 326.032 91.3359L326.922 91.3047L326.938 92.3984ZM279.102 109.055H275.336V108.039H279.102V109.055ZM272.118 105.367C272.805 105.357 273.42 105.487 273.961 105.758C274.503 106.029 274.93 106.409 275.243 106.898C275.555 107.388 275.711 107.945 275.711 108.57C275.711 109.195 275.555 109.753 275.243 110.242C274.93 110.732 274.503 111.112 273.961 111.383C273.42 111.654 272.805 111.789 272.118 111.789C271.42 111.789 270.797 111.654 270.25 111.383C269.704 111.112 269.277 110.732 268.969 110.242C268.662 109.753 268.508 109.195 268.508 108.57C268.508 107.945 268.662 107.388 268.969 106.898C269.277 106.409 269.706 106.029 270.258 105.758C270.81 105.487 271.43 105.357 272.118 105.367ZM272.118 106.414C271.649 106.404 271.23 106.49 270.86 106.672C270.49 106.854 270.201 107.109 269.993 107.438C269.784 107.766 269.68 108.143 269.68 108.57C269.68 108.987 269.784 109.362 269.993 109.695C270.201 110.029 270.49 110.289 270.86 110.477C271.23 110.664 271.649 110.758 272.118 110.758C272.586 110.758 273.003 110.664 273.368 110.477C273.732 110.289 274.016 110.029 274.219 109.695C274.422 109.362 274.524 108.987 274.524 108.57C274.524 108.143 274.422 107.766 274.219 107.438C274.016 107.109 273.732 106.854 273.368 106.672C273.003 106.49 272.586 106.404 272.118 106.414ZM279.805 112.164H278.571V104.711H279.805V112.164ZM272.086 114.633H278.571V112.867H279.805V118.414H270.852V112.867H272.086V114.633ZM278.571 117.414V115.617H272.086V117.414H278.571ZM294.821 113.805H282.102V112.789H294.821V113.805ZM289.024 118.602H287.821V113.398H289.024V118.602ZM293.165 110.898H283.743V105.492H293.165V110.898ZM284.946 109.93H291.946V106.492H284.946V109.93ZM301.758 107.305H305.805V105.305H307.024V111.352H300.555V105.305H301.758V107.305ZM305.805 110.352V108.258H301.758V110.352H305.805ZM310.821 111.898H309.602V104.711H310.821V111.898ZM312.915 108.758H310.274V107.727H312.915V108.758ZM310.821 115.914H303.196V118.008H301.993V114.977H309.602V113.539H301.961V112.555H310.821V115.914ZM311.336 118.445H301.993V117.445H311.336V118.445ZM324.774 109.586H321.211V108.57H324.774V109.586ZM325.305 114.914H324.071V104.727H325.305V114.914ZM325.696 118.305H316.383V117.273H325.696V118.305ZM317.618 117.773H316.383V113.992H317.618V117.773ZM318.399 107.586C318.399 108.409 318.235 109.19 317.907 109.93C317.579 110.669 317.12 111.315 316.532 111.867C315.943 112.419 315.264 112.841 314.493 113.133L313.852 112.133C314.529 111.893 315.136 111.542 315.672 111.078C316.209 110.615 316.628 110.081 316.93 109.477C317.232 108.872 317.383 108.242 317.383 107.586V106.445H318.399V107.586ZM318.618 107.586C318.618 108.18 318.764 108.758 319.055 109.32C319.347 109.883 319.75 110.383 320.266 110.82C320.782 111.258 321.373 111.591 322.04 111.82L321.399 112.805C320.649 112.534 319.99 112.135 319.422 111.609C318.855 111.083 318.412 110.471 318.094 109.773C317.777 109.076 317.618 108.346 317.618 107.586V106.445H318.618V107.586ZM321.727 106.867H314.243V105.852H321.727V106.867Z" fill="black"/>
<rect x="261" y="35" width="73" height="26" rx="8" fill="#FFF5D3"/>
<path opacity="0.8" d="M294.762 44.7217H291.043V43.6553H294.762V44.7217ZM294.762 47.4424H291.043V46.3828H294.762V47.4424ZM295.664 54.1553H294.365V50.7988H287.365V49.7666H295.664V54.1553ZM295.664 49.1377H294.365V41.9053H295.664V49.1377ZM288.842 42.5957C289.443 42.5911 289.986 42.7165 290.469 42.9717C290.956 43.2223 291.339 43.5732 291.617 44.0244C291.895 44.471 292.034 44.9769 292.034 45.542C292.034 46.1162 291.895 46.6289 291.617 47.0801C291.339 47.5312 290.956 47.8844 290.469 48.1396C289.986 48.3903 289.443 48.5156 288.842 48.5156C288.231 48.5156 287.682 48.3903 287.194 48.1396C286.711 47.8844 286.328 47.5312 286.046 47.0801C285.768 46.6289 285.629 46.1162 285.629 45.542C285.629 44.9769 285.768 44.471 286.046 44.0244C286.328 43.5732 286.711 43.2223 287.194 42.9717C287.682 42.7165 288.231 42.5911 288.842 42.5957ZM288.842 43.6963C288.459 43.6963 288.117 43.7738 287.816 43.9287C287.52 44.0791 287.288 44.2956 287.119 44.5781C286.951 44.8561 286.866 45.1774 286.866 45.542C286.866 45.9111 286.951 46.2393 287.119 46.5264C287.288 46.8135 287.52 47.0345 287.816 47.1895C288.117 47.3444 288.459 47.4219 288.842 47.4219C289.206 47.4219 289.537 47.3421 289.833 47.1826C290.134 47.0231 290.368 46.8021 290.537 46.5195C290.706 46.2324 290.79 45.9066 290.79 45.542C290.79 45.1774 290.706 44.8561 290.537 44.5781C290.368 44.2956 290.134 44.0791 289.833 43.9287C289.537 43.7738 289.206 43.6963 288.842 43.6963ZM308.974 44.8242H306.772V43.7441H308.974V44.8242ZM308.974 47.415H306.772V46.3213H308.974V47.415ZM307.176 49.3223H305.884V41.9189H307.176V49.3223ZM299.041 47.5859C300.276 47.5859 301.317 47.5609 302.165 47.5107C303.017 47.4561 303.885 47.3512 304.77 47.1963L304.906 48.2627C304.013 48.4176 303.129 48.5225 302.254 48.5771C301.383 48.6318 300.312 48.6592 299.041 48.6592H298.063V47.5859H299.041ZM303.621 46.0889H299.349V48.2764H298.063V45.0908H302.356V43.7168H298.043V42.6641H303.621V46.0889ZM303.211 49.623C304.045 49.623 304.767 49.7142 305.378 49.8965C305.989 50.0742 306.458 50.334 306.786 50.6758C307.119 51.0176 307.285 51.4255 307.285 51.8994C307.285 52.3643 307.121 52.763 306.793 53.0957C306.469 53.4329 306.002 53.6904 305.392 53.8682C304.781 54.0459 304.054 54.1348 303.211 54.1348C302.359 54.1348 301.625 54.0459 301.01 53.8682C300.399 53.6904 299.927 53.4329 299.595 53.0957C299.267 52.763 299.103 52.3643 299.103 51.8994C299.103 51.4255 299.267 51.0176 299.595 50.6758C299.927 50.334 300.401 50.0742 301.017 49.8965C301.636 49.7142 302.368 49.623 303.211 49.623ZM303.211 50.6416C302.618 50.6416 302.108 50.6917 301.68 50.792C301.256 50.8877 300.932 51.0312 300.709 51.2227C300.486 51.4095 300.374 51.6351 300.374 51.8994C300.374 52.1546 300.486 52.3779 300.709 52.5693C300.932 52.7562 301.256 52.8997 301.68 53C302.108 53.0957 302.618 53.1436 303.211 53.1436C303.803 53.1436 304.309 53.0957 304.729 53C305.148 52.8997 305.467 52.7585 305.686 52.5762C305.909 52.3893 306.021 52.1637 306.021 51.8994C306.021 51.6351 305.909 51.4095 305.686 51.2227C305.467 51.0312 305.146 50.8877 304.722 50.792C304.302 50.6917 303.799 50.6416 303.211 50.6416Z" fill="#F98A08"/>
<rect x="242" y="304" width="110" height="140" rx="15" fill="white"/>
<path d="M263.664 380.516H259.383V379.484H263.664V380.516ZM263.664 384.906H259.383V383.891H263.664V384.906ZM256.805 377.453C257.482 377.453 258.081 377.654 258.602 378.055C259.122 378.456 259.531 379.021 259.828 379.75C260.125 380.479 260.273 381.328 260.273 382.297C260.273 383.266 260.125 384.115 259.828 384.844C259.531 385.573 259.122 386.135 258.602 386.531C258.081 386.927 257.482 387.125 256.805 387.125C256.128 387.125 255.526 386.927 255 386.531C254.474 386.135 254.062 385.573 253.766 384.844C253.469 384.115 253.32 383.266 253.32 382.297C253.32 381.328 253.469 380.479 253.766 379.75C254.062 379.021 254.474 378.456 255 378.055C255.526 377.654 256.128 377.453 256.805 377.453ZM256.805 378.547C256.357 378.547 255.956 378.703 255.602 379.016C255.247 379.328 254.974 379.766 254.781 380.328C254.589 380.891 254.492 381.547 254.492 382.297C254.492 383.036 254.589 383.69 254.781 384.258C254.974 384.826 255.247 385.263 255.602 385.57C255.956 385.878 256.357 386.031 256.805 386.031C257.253 386.031 257.654 385.878 258.008 385.57C258.362 385.263 258.635 384.826 258.828 384.258C259.021 383.69 259.117 383.036 259.117 382.297C259.117 381.547 259.021 380.891 258.828 380.328C258.635 379.766 258.365 379.328 258.016 379.016C257.667 378.703 257.263 378.547 256.805 378.547ZM264.586 390.297H263.367V376.375H264.586V390.297ZM271.445 390.266H270.18V384.953H271.445V390.266ZM276.242 390.266H275.008V384.953H276.242V390.266ZM279.602 385.312H266.883V384.297H279.602V385.312ZM273.211 376.938C274.18 376.938 275.034 377.06 275.773 377.305C276.513 377.549 277.086 377.901 277.492 378.359C277.898 378.818 278.102 379.354 278.102 379.969C278.102 380.573 277.898 381.102 277.492 381.555C277.086 382.008 276.513 382.357 275.773 382.602C275.034 382.846 274.18 382.969 273.211 382.969C272.242 382.969 271.391 382.846 270.656 382.602C269.922 382.357 269.349 382.008 268.938 381.555C268.526 381.102 268.32 380.573 268.32 379.969C268.32 379.354 268.523 378.818 268.93 378.359C269.336 377.901 269.909 377.549 270.648 377.305C271.388 377.06 272.242 376.938 273.211 376.938ZM273.211 377.938C272.492 377.938 271.859 378.021 271.312 378.188C270.766 378.354 270.341 378.591 270.039 378.898C269.737 379.206 269.586 379.562 269.586 379.969C269.586 380.375 269.737 380.729 270.039 381.031C270.341 381.333 270.766 381.568 271.312 381.734C271.859 381.901 272.492 381.984 273.211 381.984C273.93 381.984 274.565 381.901 275.117 381.734C275.669 381.568 276.096 381.333 276.398 381.031C276.701 380.729 276.852 380.375 276.852 379.969C276.852 379.562 276.701 379.206 276.398 378.898C276.096 378.591 275.669 378.354 275.117 378.188C274.565 378.021 273.93 377.938 273.211 377.938ZM293.445 388.547H280.727V387.516H293.445V388.547ZM287.648 387.969H286.445V384.531H287.648V387.969ZM291.836 381.609H283.539V384.422H282.32V380.609H290.633V378.422H282.289V377.406H291.836V381.609ZM292.164 384.891H282.32V383.875H292.164V384.891ZM307.258 384.453H294.539V383.438H307.258V384.453ZM301.617 387.297H300.383V384.078H301.617V387.297ZM305.836 389.969H296.18V388.922H305.836V389.969ZM297.414 389.234H296.18V385.906H297.414V389.234ZM300.883 376.734C301.872 376.734 302.734 376.849 303.469 377.078C304.203 377.307 304.771 377.63 305.172 378.047C305.573 378.464 305.773 378.958 305.773 379.531C305.773 380.094 305.573 380.583 305.172 381C304.771 381.417 304.203 381.737 303.469 381.961C302.734 382.185 301.872 382.297 300.883 382.297C299.904 382.297 299.044 382.185 298.305 381.961C297.565 381.737 296.992 381.417 296.586 381C296.18 380.583 295.977 380.094 295.977 379.531C295.977 378.958 296.18 378.464 296.586 378.047C296.992 377.63 297.565 377.307 298.305 377.078C299.044 376.849 299.904 376.734 300.883 376.734ZM300.883 377.734C300.174 377.734 299.547 377.807 299 377.953C298.453 378.099 298.031 378.307 297.734 378.578C297.438 378.849 297.289 379.167 297.289 379.531C297.289 379.885 297.438 380.195 297.734 380.461C298.031 380.727 298.453 380.932 299 381.078C299.547 381.224 300.174 381.297 300.883 381.297C301.602 381.297 302.232 381.224 302.773 381.078C303.315 380.932 303.734 380.727 304.031 380.461C304.328 380.195 304.477 379.885 304.477 379.531C304.477 379.167 304.328 378.849 304.031 378.578C303.734 378.307 303.315 378.099 302.773 377.953C302.232 377.807 301.602 377.734 300.883 377.734ZM319.383 386.734H312.977V377.781H319.383V386.734ZM314.164 385.734H318.164V378.766H314.164V385.734ZM323.148 390.266H321.93V376.375H323.148V390.266ZM325.477 382.984H322.867V381.922H325.477V382.984ZM332.555 376.688C333.565 376.688 334.438 376.792 335.172 377C335.906 377.208 336.471 377.51 336.867 377.906C337.263 378.302 337.461 378.776 337.461 379.328C337.461 379.87 337.263 380.333 336.867 380.719C336.471 381.104 335.906 381.401 335.172 381.609C334.438 381.818 333.565 381.922 332.555 381.922C331.555 381.922 330.685 381.818 329.945 381.609C329.206 381.401 328.635 381.104 328.234 380.719C327.833 380.333 327.633 379.87 327.633 379.328C327.633 378.776 327.833 378.302 328.234 377.906C328.635 377.51 329.206 377.208 329.945 377C330.685 376.792 331.555 376.688 332.555 376.688ZM332.555 377.672C331.815 377.672 331.169 377.737 330.617 377.867C330.065 377.997 329.641 378.188 329.344 378.438C329.047 378.688 328.898 378.984 328.898 379.328C328.898 379.661 329.044 379.948 329.336 380.188C329.628 380.427 330.049 380.612 330.602 380.742C331.154 380.872 331.805 380.943 332.555 380.953C333.294 380.943 333.94 380.872 334.492 380.742C335.044 380.612 335.469 380.427 335.766 380.188C336.062 379.948 336.211 379.661 336.211 379.328C336.211 378.984 336.062 378.688 335.766 378.438C335.469 378.188 335.044 377.997 334.492 377.867C333.94 377.737 333.294 377.672 332.555 377.672ZM337.336 390.078H327.773V385.516H337.336V390.078ZM328.992 389.078H336.133V386.5H328.992V389.078ZM338.883 384.141H326.227V383.125H338.883V384.141ZM279.898 403.953H277.336V402.922H279.898V403.953ZM277.648 411.266H276.43V397.375H277.648V411.266ZM268.695 407.344H267.477V398.75H268.695V407.344ZM268.586 406.703C269.69 406.703 270.773 406.654 271.836 406.555C272.898 406.456 273.982 406.292 275.086 406.062L275.242 407.109C274.117 407.339 273.013 407.5 271.93 407.594C270.846 407.688 269.732 407.734 268.586 407.734H267.477V406.703H268.586ZM291.945 403.078H282.367V402.062H291.945V403.078ZM293.445 406.203H280.727V405.172H293.445V406.203ZM287.633 411.266H286.414V405.719H287.633V411.266ZM283.586 402.578H282.367V398.094H283.586V402.578ZM305.789 402.578H296.273V401.594H305.789V402.578ZM307.258 405.469H294.539V404.469H307.258V405.469ZM297.492 402.094H296.273V397.891H297.492V402.094ZM305.867 410.922H296.195V409.906H305.867V410.922ZM297.414 410.203H296.195V406.891H297.414V410.203ZM316.852 399.094C316.852 399.958 316.69 400.766 316.367 401.516C316.044 402.266 315.589 402.911 315 403.453C314.411 403.995 313.727 404.411 312.945 404.703L312.305 403.719C313.013 403.469 313.633 403.115 314.164 402.656C314.695 402.198 315.109 401.661 315.406 401.047C315.703 400.432 315.852 399.781 315.852 399.094V397.938H316.852V399.094ZM317.055 399.078C317.055 399.703 317.201 400.297 317.492 400.859C317.784 401.422 318.193 401.911 318.719 402.328C319.245 402.745 319.852 403.068 320.539 403.297L319.852 404.25C319.102 403.979 318.44 403.591 317.867 403.086C317.294 402.581 316.852 401.984 316.539 401.297C316.227 400.609 316.07 399.87 316.07 399.078V397.938H317.055V399.078ZM323.258 404.797H322.039V397.375H323.258V404.797ZM325.352 401.469H322.711V400.438H325.352V401.469ZM318.023 408.656H314.836V410.625H313.633V407.75H316.836V406.453H313.602V405.516H318.023V408.656ZM323.258 411.156H318.883V405.516H323.258V411.156ZM319.977 410.219H322.18V406.438H319.977V410.219ZM314.367 410.188C315.357 410.188 316.12 410.172 316.656 410.141C317.193 410.109 317.747 410.036 318.32 409.922L318.445 410.891C317.831 410.995 317.242 411.065 316.68 411.102C316.117 411.138 315.346 411.156 314.367 411.156H313.633V410.188H314.367Z" fill="black"/>
<rect x="261" y="339" width="73" height="26" rx="8" fill="#FFE8E8"/>
<path opacity="0.8" d="M296.621 353.035H285.451V351.976H296.621V353.035ZM291.679 352.317H290.38V350.355H291.679V352.317ZM291.029 353.828C291.913 353.828 292.672 353.912 293.306 354.081C293.939 354.25 294.424 354.496 294.762 354.819C295.099 355.143 295.268 355.533 295.268 355.988C295.268 356.444 295.099 356.834 294.762 357.157C294.424 357.481 293.939 357.725 293.306 357.889C292.672 358.057 291.913 358.142 291.029 358.142C290.141 358.142 289.377 358.057 288.739 357.889C288.106 357.725 287.62 357.481 287.283 357.157C286.951 356.834 286.784 356.444 286.784 355.988C286.784 355.533 286.951 355.143 287.283 354.819C287.62 354.496 288.108 354.25 288.746 354.081C289.384 353.912 290.145 353.828 291.029 353.828ZM291.029 354.826C290.405 354.826 289.874 354.872 289.437 354.963C288.999 355.049 288.666 355.179 288.438 355.353C288.211 355.521 288.097 355.733 288.097 355.988C288.097 356.239 288.211 356.451 288.438 356.624C288.666 356.793 288.999 356.92 289.437 357.007C289.874 357.098 290.405 357.144 291.029 357.144C291.654 357.144 292.18 357.098 292.608 357.007C293.041 356.92 293.372 356.79 293.6 356.617C293.832 356.439 293.948 356.23 293.948 355.988C293.948 355.733 293.834 355.521 293.606 355.353C293.379 355.179 293.048 355.049 292.615 354.963C292.182 354.872 291.654 354.826 291.029 354.826ZM288.206 347.512H293.88V346.247H295.165V350.779H286.921V346.247H288.206V347.512ZM293.88 349.768V348.517H288.206V349.768H293.88ZM301.563 349.022C301.563 349.957 301.422 350.859 301.14 351.729C300.857 352.595 300.458 353.363 299.943 354.033C299.428 354.703 298.831 355.216 298.152 355.571L297.339 354.525C297.963 354.229 298.512 353.792 298.986 353.213C299.465 352.63 299.839 351.973 300.107 351.244C300.376 350.51 300.511 349.77 300.511 349.022V346.924H301.563V349.022ZM301.789 349.022C301.789 349.743 301.919 350.453 302.179 351.155C302.443 351.853 302.81 352.479 303.279 353.035C303.749 353.587 304.28 354.008 304.872 354.3L304.079 355.339C303.418 354.993 302.835 354.496 302.329 353.849C301.828 353.201 301.44 352.461 301.167 351.627C300.894 350.793 300.757 349.925 300.757 349.022V346.924H301.789V349.022ZM307.094 358.155H305.802V345.905H307.094V358.155ZM309.069 351.907H306.8V350.793H309.069V351.907Z" fill="#FF2F2F"/>
<rect x="242" y="152" width="110" height="140" rx="15" fill="white"/>
<path d="M279.805 245.992H278.571V235.727H279.805V245.992ZM278.821 241.039H275.493V240.008H278.821V241.039ZM275.555 236.789C275.555 237.956 275.29 239.034 274.758 240.023C274.227 241.013 273.474 241.875 272.5 242.609C271.527 243.344 270.373 243.93 269.04 244.367L268.508 243.383C269.665 242.997 270.672 242.505 271.532 241.906C272.391 241.307 273.058 240.612 273.532 239.82C274.006 239.029 274.243 238.185 274.243 237.289V236.789H275.555ZM275.04 237.82H269.211V236.789H275.04V237.82ZM280.165 249.305H270.961V248.273H280.165V249.305ZM272.211 248.773H270.961V244.945H272.211V248.773ZM292.977 244.055H291.758V235.711H292.977V244.055ZM295.071 240.352H292.633V239.336H295.071V240.352ZM289.196 236.742C289.196 237.898 288.933 238.958 288.407 239.922C287.881 240.885 287.128 241.719 286.149 242.422C285.17 243.125 284.003 243.674 282.649 244.07L282.133 243.07C283.321 242.727 284.347 242.268 285.211 241.695C286.076 241.122 286.74 240.464 287.204 239.719C287.667 238.974 287.899 238.169 287.899 237.305V236.742H289.196ZM288.586 237.758H282.743V236.742H288.586V237.758ZM288.586 244.211C289.514 244.211 290.321 244.318 291.008 244.531C291.696 244.745 292.222 245.052 292.586 245.453C292.951 245.854 293.133 246.331 293.133 246.883C293.133 247.435 292.951 247.914 292.586 248.32C292.222 248.727 291.696 249.036 291.008 249.25C290.321 249.464 289.514 249.57 288.586 249.57C287.67 249.57 286.868 249.464 286.18 249.25C285.493 249.036 284.964 248.727 284.594 248.32C284.224 247.914 284.04 247.435 284.04 246.883C284.04 246.331 284.224 245.854 284.594 245.453C284.964 245.052 285.493 244.745 286.18 244.531C286.868 244.318 287.67 244.211 288.586 244.211ZM288.586 245.195C287.92 245.185 287.334 245.247 286.829 245.383C286.323 245.518 285.935 245.716 285.665 245.977C285.394 246.237 285.258 246.539 285.258 246.883C285.258 247.227 285.394 247.526 285.665 247.781C285.935 248.036 286.323 248.234 286.829 248.375C287.334 248.516 287.92 248.586 288.586 248.586C289.264 248.586 289.855 248.516 290.36 248.375C290.865 248.234 291.256 248.036 291.532 247.781C291.808 247.526 291.946 247.227 291.946 246.883C291.946 246.539 291.808 246.237 291.532 245.977C291.256 245.716 290.865 245.518 290.36 245.383C289.855 245.247 289.264 245.185 288.586 245.195ZM306.805 246.133H305.586V235.727H306.805V246.133ZM308.899 241.336H306.415V240.305H308.899V241.336ZM304.258 238.43H295.977V237.43H304.258V238.43ZM300.118 239.195C300.774 239.195 301.355 239.302 301.86 239.516C302.365 239.729 302.758 240.031 303.04 240.422C303.321 240.812 303.461 241.268 303.461 241.789C303.461 242.299 303.321 242.747 303.04 243.133C302.758 243.518 302.365 243.818 301.86 244.031C301.355 244.245 300.774 244.352 300.118 244.352C299.461 244.352 298.878 244.245 298.368 244.031C297.857 243.818 297.464 243.518 297.188 243.133C296.912 242.747 296.774 242.299 296.774 241.789C296.774 241.268 296.912 240.812 297.188 240.422C297.464 240.031 297.857 239.729 298.368 239.516C298.878 239.302 299.461 239.195 300.118 239.195ZM300.118 240.164C299.691 240.164 299.31 240.229 298.977 240.359C298.644 240.49 298.389 240.68 298.211 240.93C298.034 241.18 297.946 241.466 297.946 241.789C297.946 242.112 298.034 242.393 298.211 242.633C298.389 242.872 298.644 243.057 298.977 243.188C299.31 243.318 299.691 243.383 300.118 243.383C300.545 243.383 300.925 243.318 301.258 243.188C301.592 243.057 301.849 242.872 302.032 242.633C302.214 242.393 302.305 242.112 302.305 241.789C302.305 241.466 302.214 241.18 302.032 240.93C301.849 240.68 301.592 240.49 301.258 240.359C300.925 240.229 300.545 240.164 300.118 240.164ZM300.727 237.945H299.508V235.727H300.727V237.945ZM307.446 249.305H298.118V248.273H307.446V249.305ZM299.321 248.695H298.118V245.305H299.321V248.695ZM324.899 249.414H315.336V244.852H324.899V249.414ZM316.555 248.414H323.696V245.836H316.555V248.414ZM324.836 240.883H315.43V236.227H324.836V240.883ZM316.633 239.883H323.618V237.227H316.633V239.883ZM326.446 243.477H313.79V242.461H326.446V243.477ZM320.727 242.898H319.508V240.617H320.727V242.898ZM284.227 264.367H277.805V257.977H284.227V264.367ZM279.008 263.383H283.04V258.977H279.008V263.383ZM288.071 266.898H286.852V256.711H288.071V266.898ZM290.165 261.977H287.68V260.945H290.165V261.977ZM288.711 270.305H279.383V269.273H288.711V270.305ZM280.586 269.695H279.383V265.93H280.586V269.695ZM303.711 263.539H291.04V262.555H303.711V263.539ZM302.196 261.414H292.727V260.414H302.196V261.414ZM302.055 258.18H293.961V261.195H292.727V257.195H302.055V258.18ZM302.071 268.008H293.821V269.789H292.602V267.086H300.868V265.742H292.571V264.789H302.071V268.008ZM302.493 270.445H292.602V269.445H302.493V270.445ZM316.352 270.602H315.118V256.711H316.352V270.602ZM312.243 258.227C312.243 259.602 312.016 260.888 311.563 262.086C311.11 263.284 310.399 264.385 309.43 265.391C308.461 266.396 307.222 267.263 305.711 267.992L305.04 266.992C306.383 266.357 307.498 265.609 308.383 264.75C309.269 263.891 309.93 262.93 310.368 261.867C310.805 260.805 311.024 259.654 311.024 258.414V258.227H312.243ZM311.524 259.227H305.68V258.227H311.524V259.227Z" fill="black"/>
<rect x="261" y="187" width="73" height="26" rx="8" fill="#FFF0E2"/>
<path opacity="0.8" d="M295.664 202.942H294.365V193.919H295.664V202.942ZM294.591 198.697H291.829V197.617H294.591V198.697ZM291.904 194.842C291.904 195.89 291.672 196.856 291.207 197.74C290.747 198.62 290.088 199.385 289.231 200.037C288.379 200.684 287.363 201.199 286.183 201.582L285.629 200.543C286.627 200.219 287.491 199.805 288.22 199.299C288.953 198.788 289.519 198.201 289.915 197.535C290.316 196.865 290.517 196.152 290.517 195.396V194.842H291.904ZM291.357 195.922H286.258V194.842H291.357V195.922ZM295.979 205.916H287.769V204.843H295.979V205.916ZM289.088 205.403H287.769V202.02H289.088V205.403ZM307.176 201.186H305.884V193.905H307.176V201.186ZM308.96 198.068H306.813V197.002H308.96V198.068ZM303.819 194.78C303.819 195.819 303.589 196.767 303.129 197.624C302.673 198.481 302.015 199.219 301.153 199.839C300.297 200.454 299.269 200.935 298.07 201.281L297.53 200.229C298.556 199.937 299.435 199.552 300.169 199.073C300.907 198.595 301.47 198.043 301.857 197.419C302.245 196.795 302.438 196.122 302.438 195.402V194.78H303.819ZM303.197 195.84H298.084V194.78H303.197V195.84ZM303.259 201.322C304.079 201.322 304.795 201.42 305.405 201.616C306.021 201.808 306.492 202.083 306.82 202.443C307.148 202.803 307.312 203.232 307.312 203.729C307.312 204.221 307.148 204.649 306.82 205.014C306.492 205.378 306.021 205.656 305.405 205.848C304.795 206.044 304.079 206.142 303.259 206.142C302.448 206.142 301.734 206.044 301.119 205.848C300.508 205.656 300.037 205.378 299.704 205.014C299.371 204.649 299.205 204.221 299.205 203.729C299.205 203.232 299.371 202.803 299.704 202.443C300.037 202.083 300.508 201.808 301.119 201.616C301.734 201.42 302.448 201.322 303.259 201.322ZM303.259 202.348C302.698 202.343 302.208 202.396 301.789 202.505C301.37 202.614 301.049 202.774 300.825 202.983C300.602 203.193 300.49 203.441 300.49 203.729C300.49 204.011 300.602 204.257 300.825 204.467C301.049 204.672 301.37 204.831 301.789 204.945C302.208 205.059 302.698 205.116 303.259 205.116C303.828 205.116 304.321 205.059 304.735 204.945C305.155 204.831 305.478 204.672 305.706 204.467C305.934 204.257 306.048 204.011 306.048 203.729C306.048 203.441 305.934 203.193 305.706 202.983C305.478 202.774 305.155 202.614 304.735 202.505C304.321 202.396 303.828 202.343 303.259 202.348Z" fill="#FF4D00"/>
<defs>
<filter id="filter0_d_4631_32740" x="110" y="144" width="130" height="160" filterUnits="userSpaceOnUse" color-interpolation-filters="sRGB">
<feFlood flood-opacity="0" result="BackgroundImageFix"/>
<feColorMatrix in="SourceAlpha" type="matrix" values="0 0 0 0 0 0 0 0 0 0 0 0 0 0 0 0 0 0 127 0" result="hardAlpha"/>
<feOffset dy="2"/>
<feGaussianBlur stdDeviation="5"/>
<feComposite in2="hardAlpha" operator="out"/>
<feColorMatrix type="matrix" values="0 0 0 0 0.74902 0 0 0 0 0.764706 0 0 0 0 0.831373 0 0 0 0.5 0"/>
<feBlend mode="normal" in2="BackgroundImageFix" result="effect1_dropShadow_4631_32740"/>
<feBlend mode="normal" in="SourceGraphic" in2="effect1_dropShadow_4631_32740" result="shape"/>
</filter>
</defs>
</svg>
