<svg width="335" height="342" viewBox="0 0 335 342" fill="none" xmlns="http://www.w3.org/2000/svg">
<ellipse cx="167.5" cy="170.5" rx="167.5" ry="170.5" fill="#E8EBFE"/>
<path d="M167.5 212L273.588 128.75H61.4119L167.5 212Z" fill="#24252E"/>
<path d="M179.866 55.7289C172.61 50.0204 162.39 50.0204 155.134 55.7289L62 129H273L179.866 55.7289Z" fill="#24252E"/>
<rect x="84" y="79" width="166" height="157" rx="20" fill="white"/>
<path d="M207.045 116.548C204.541 122.201 197.929 124.754 192.276 122.25V122.25C186.623 119.747 184.07 113.134 186.573 107.481L187.568 105.235L208.04 114.301L207.045 116.548Z" fill="#24252E"/>
<path d="M185.304 51.8603C193.06 34.3485 213.543 26.4393 231.055 34.1947V34.1947C248.567 41.9501 256.476 62.4332 248.72 79.9451L234.415 112.246L170.999 84.161L185.304 51.8603Z" fill="#475FFD"/>
<path d="M222.865 30.4015C224.855 25.9071 230.112 23.8772 234.607 25.8676V25.8676C239.101 27.8581 241.131 33.1151 239.14 37.6095L238.08 40.003L221.805 32.795L222.865 30.4015Z" fill="#475FFD"/>
<rect x="159.99" y="79.2832" width="93.7137" height="12.565" rx="6.28248" transform="rotate(23.8869 159.99 79.2832)" fill="#475FFD"/>
<path d="M107 135H155" stroke="#E8EBFE" stroke-width="4" stroke-linecap="round"/>
<path d="M120 151H205" stroke="#E8EBFE" stroke-width="4" stroke-linecap="round"/>
<path d="M107 167L179 167" stroke="#E8EBFE" stroke-width="4" stroke-linecap="round"/>
<path fill-rule="evenodd" clip-rule="evenodd" d="M179.851 202.024C172.603 207.711 162.409 207.711 155.161 202.024L61.8006 128.776H61.2988V247C61.2988 258.045 70.2531 267 81.2988 267H253.713C264.759 267 273.713 258.045 273.713 247V128.776H273.212L179.851 202.024Z" fill="#475FFD"/>
<mask id="mask0_2507_30981" style="mask-type:alpha" maskUnits="userSpaceOnUse" x="12" y="169" width="66" height="66">
<rect y="195.365" width="64.2235" height="64.2235" rx="32.1117" transform="rotate(-36.6823 0 195.365)" fill="#BFC3D5"/>
</mask>
<g mask="url(#mask0_2507_30981)">
<rect y="195.365" width="64.2235" height="64.2235" rx="32.1117" transform="rotate(-36.6823 0 195.365)" fill="#475FFD"/>
<path d="M65.0773 228.975C62.4322 225.424 59.1469 222.404 55.409 220.088C51.6711 217.771 47.5538 216.203 43.2921 215.473C39.0304 214.744 34.7079 214.867 30.5712 215.835C26.4346 216.804 22.5648 218.599 19.183 221.118L39.325 248.158L65.0773 228.975Z" fill="white"/>
<path d="M25.7525 176.183C28.2716 179.565 30.1 183.41 31.1332 187.498C32.1664 191.586 32.3842 195.838 31.7741 200.011C31.1641 204.184 29.7382 208.195 27.5778 211.817C25.4174 215.438 22.5648 218.599 19.183 221.118L0.00016836 195.366L25.7525 176.183Z" fill="white"/>
<path d="M65.0768 228.975C62.4317 225.424 60.4786 221.412 59.329 217.167C58.1795 212.922 57.8559 208.528 58.3769 204.236C58.8979 199.944 60.2532 195.838 62.3653 192.151C64.4775 188.465 67.3053 185.271 70.6871 182.752L90.8291 209.792L65.0768 228.975Z" fill="white"/>
<path d="M25.7519 176.183C28.2711 179.565 31.4316 182.417 35.0532 184.577C38.6747 186.738 42.6863 188.164 46.8589 188.774C51.0316 189.384 55.2835 189.166 59.3719 188.133C63.4604 187.1 67.3053 185.271 70.6871 182.752L51.5043 157L25.7519 176.183Z" fill="white"/>
</g>
<mask id="mask1_2507_30981" style="mask-type:alpha" maskUnits="userSpaceOnUse" x="234" y="275" width="57" height="57">
<rect x="271.62" y="265" width="55.673" height="55.673" rx="27.8365" transform="rotate(58.7996 271.62 265)" fill="#BFC3D5"/>
</mask>
<g mask="url(#mask1_2507_30981)">
<rect x="271.62" y="265" width="55.673" height="55.673" rx="27.8365" transform="rotate(58.7996 271.62 265)" fill="white"/>
<path d="M237.229 318.372C240.512 316.384 243.39 313.799 245.699 310.765C248.008 307.732 249.701 304.309 250.684 300.692C251.666 297.075 251.918 293.335 251.425 289.685C250.932 286.035 249.704 282.547 247.81 279.421L222.809 294.562L237.229 318.372Z" fill="#475FFD"/>
<path d="M286.04 288.811C282.914 290.704 279.444 291.964 275.831 292.517C272.217 293.07 268.53 292.905 264.98 292.033C261.43 291.161 258.087 289.599 255.141 287.435C252.195 285.271 249.704 282.547 247.81 279.421L271.62 265L286.04 288.811Z" fill="#475FFD"/>
<path d="M237.229 318.371C240.512 316.383 244.136 315.03 247.894 314.389C251.652 313.749 255.47 313.834 259.131 314.639C262.791 315.444 266.223 316.953 269.229 319.081C272.235 321.209 274.756 323.914 276.65 327.04L251.649 342.182L237.229 318.371Z" fill="#475FFD"/>
<path d="M286.04 288.81C282.913 290.704 280.19 293.195 278.026 296.141C275.862 299.087 274.299 302.43 273.427 305.98C272.555 309.53 272.391 313.217 272.944 316.831C273.497 320.444 274.756 323.914 276.65 327.04L300.46 312.62L286.04 288.81Z" fill="#475FFD"/>
</g>
</svg>
