<svg width="335" height="341" viewBox="0 0 335 341" fill="none" xmlns="http://www.w3.org/2000/svg">
<ellipse cx="167.5" cy="170.5" rx="167.5" ry="170.5" fill="#E8EBFE"/>
<path d="M167.5 212L273.588 128.75H61.4119L167.5 212Z" fill="#24252E"/>
<path d="M179.866 55.7289C172.61 50.0204 162.39 50.0204 155.134 55.7289L62 129H273L179.866 55.7289Z" fill="#24252E"/>
<rect x="84" y="79" width="166" height="157" rx="20" fill="white"/>
<path d="M207.045 116.548C204.541 122.201 197.929 124.754 192.276 122.25C186.623 119.747 184.07 113.134 186.573 107.481L187.568 105.235L208.04 114.301L207.045 116.548Z" fill="#24252E"/>
<path d="M185.304 51.8603C193.06 34.3485 213.543 26.4393 231.055 34.1947C248.567 41.9501 256.476 62.4332 248.72 79.9451L234.415 112.246L170.999 84.161L185.304 51.8603Z" fill="#475FFD"/>
<path d="M222.865 30.4015C224.855 25.9071 230.112 23.8772 234.607 25.8676C239.101 27.8581 241.131 33.1151 239.14 37.6095L238.08 40.003L221.805 32.795L222.865 30.4015Z" fill="#475FFD"/>
<rect x="159.99" y="79.2832" width="93.7137" height="12.565" rx="6.28248" transform="rotate(23.8869 159.99 79.2832)" fill="#475FFD"/>
<path d="M107 135H155" stroke="#E8EBFE" stroke-width="4" stroke-linecap="round"/>
<path d="M120 151H205" stroke="#E8EBFE" stroke-width="4" stroke-linecap="round"/>
<path d="M107 167L179 167" stroke="#E8EBFE" stroke-width="4" stroke-linecap="round"/>
<path fill-rule="evenodd" clip-rule="evenodd" d="M179.851 202.024C172.603 207.711 162.409 207.711 155.161 202.024L61.8006 128.776H61.2988V247C61.2988 258.045 70.2531 267 81.2988 267H253.713C264.759 267 273.713 258.045 273.713 247V128.776H273.212L179.851 202.024Z" fill="#475FFD"/>
</svg>
