<svg width="322" height="326" viewBox="0 0 322 326" fill="none" xmlns="http://www.w3.org/2000/svg">
<ellipse cx="160" cy="162.866" rx="160" ry="162.866" fill="#E8EBFE"/>
<path d="M113.256 61.8596C112.958 60.7959 113.612 59.9102 114.716 59.8812L238.277 56.6457C241.364 56.5648 244.19 59.7423 243.35 62.3511L227.368 112.014C227.172 112.624 227.38 113.367 227.912 113.958L271.248 162.067C273.524 164.595 272.505 167.873 269.417 167.954L145.857 171.189C144.753 171.218 143.616 170.379 143.319 169.316L113.256 61.8596Z" fill="#11D796"/>
<path d="M7.64233 38.3145L137.568 34.9122C148.61 34.6231 159.974 43.0119 162.95 53.6491L188.702 145.697L38.7829 149.623L7.64233 38.3145Z" fill="#475FFD"/>
<path d="M143.762 171.568L188.657 145.777L137.075 147.21L143.762 171.568Z" fill="black"/>
<path d="M7.64233 38.3145L75.4632 272.822" stroke="#24252E" stroke-width="10" stroke-linecap="round" stroke-linejoin="round"/>
<path d="M74.5078 85.0146L96.478 101.731L128.956 65.9102" stroke="white" stroke-width="6" stroke-linecap="round" stroke-linejoin="round"/>
<rect x="107" y="189" width="215" height="38" rx="19" fill="#475FFD"/>
<path d="M133.429 201.88C133.429 202.823 133.171 203.688 132.655 204.473C132.146 205.258 131.41 205.917 130.449 206.45C129.488 206.978 128.346 207.332 127.021 207.514L126.187 205.765C127.306 205.624 128.264 205.354 129.061 204.956C129.863 204.558 130.467 204.089 130.871 203.55C131.275 203.011 131.478 202.454 131.478 201.88V201.396H133.429V201.88ZM134.07 201.88C134.07 202.454 134.27 203.011 134.668 203.55C135.072 204.089 135.676 204.558 136.479 204.956C137.281 205.354 138.248 205.624 139.379 205.765L138.57 207.514C137.24 207.332 136.089 206.978 135.116 206.45C134.149 205.923 133.408 205.267 132.893 204.481C132.377 203.69 132.119 202.823 132.119 201.88V201.396H134.07V201.88ZM133.842 215.626H131.618V209.729H133.842V215.626ZM140.073 210.238H125.483V208.454H140.073V210.238ZM138.755 202.214H126.793V200.465H138.755V202.214ZM154.065 208.56H142.763V206.775H154.065V208.56ZM155.665 213.807H141.04V211.97H155.665V213.807ZM149.425 212.559H147.219V207.593H149.425V212.559ZM153.951 202.53H145.004V207.584H142.763V200.755H153.951V202.53ZM162.169 202.275C162.169 203.295 162.002 204.256 161.668 205.158C161.334 206.061 160.827 206.849 160.147 207.522C159.474 208.19 158.645 208.686 157.66 209.008L156.5 207.241C157.344 206.96 158.053 206.562 158.627 206.046C159.207 205.53 159.638 204.947 159.919 204.297C160.2 203.641 160.341 202.967 160.341 202.275V201.194H162.169V202.275ZM162.626 202.249C162.626 202.905 162.758 203.538 163.021 204.147C163.291 204.757 163.701 205.308 164.252 205.8C164.803 206.286 165.488 206.667 166.309 206.942L165.201 208.683C164.234 208.372 163.42 207.897 162.758 207.259C162.102 206.614 161.612 205.861 161.29 205C160.968 204.139 160.807 203.222 160.807 202.249V201.194H162.626V202.249ZM168.479 205.299H165.359V203.462H168.479V205.299ZM165.816 202.302H157.133V200.509H165.816V202.302ZM170.07 215.617H167.838V211.653H159.084V209.852H170.07V215.617ZM170.07 209.148H167.838V199.604H170.07V209.148ZM185.53 211.135H183.289V199.639H185.53V211.135ZM185.97 215.345H174.816V213.534H185.97V215.345ZM177.084 214.272H174.816V209.983H177.084V214.272ZM176.768 200.649C177.582 200.649 178.323 200.822 178.991 201.168C179.665 201.508 180.192 201.988 180.573 202.609C180.954 203.225 181.145 203.913 181.145 204.675C181.145 205.46 180.954 206.16 180.573 206.775C180.192 207.391 179.665 207.874 178.991 208.226C178.323 208.571 177.582 208.744 176.768 208.744C175.953 208.744 175.212 208.571 174.544 208.226C173.882 207.874 173.357 207.391 172.971 206.775C172.584 206.16 172.391 205.46 172.391 204.675C172.391 203.913 172.584 203.225 172.971 202.609C173.357 201.988 173.882 201.508 174.544 201.168C175.212 200.822 175.953 200.649 176.768 200.649ZM176.768 202.601C176.352 202.595 175.977 202.677 175.643 202.847C175.314 203.011 175.054 203.251 174.86 203.567C174.673 203.884 174.579 204.253 174.579 204.675C174.579 205.108 174.673 205.486 174.86 205.809C175.054 206.125 175.314 206.368 175.643 206.538C175.977 206.702 176.352 206.784 176.768 206.784C177.178 206.784 177.544 206.702 177.866 206.538C178.194 206.368 178.452 206.125 178.64 205.809C178.827 205.486 178.921 205.108 178.921 204.675C178.921 204.253 178.827 203.884 178.64 203.567C178.452 203.251 178.194 203.011 177.866 202.847C177.544 202.677 177.178 202.595 176.768 202.601ZM196.561 202.469C196.561 203.395 196.429 204.285 196.165 205.141C195.907 205.99 195.5 206.749 194.943 207.417C194.387 208.085 193.692 208.592 192.86 208.938L191.647 207.206C192.368 206.896 192.963 206.485 193.432 205.976C193.9 205.466 194.246 204.912 194.469 204.314C194.697 203.711 194.812 203.096 194.812 202.469V200.588H196.561V202.469ZM196.982 202.469C196.982 203.066 197.091 203.638 197.308 204.183C197.524 204.728 197.858 205.22 198.31 205.659C198.761 206.099 199.323 206.45 199.997 206.714L198.811 208.428C198.002 208.117 197.328 207.663 196.789 207.065C196.256 206.462 195.86 205.768 195.603 204.982C195.351 204.197 195.225 203.359 195.225 202.469V200.588H196.982V202.469ZM205.613 209.421H203.478V199.639H205.613V209.421ZM204.066 205.36H201.5V203.541H204.066V205.36ZM202.142 208.92H200.067V199.911H202.142V208.92ZM200.146 209.641C201.271 209.641 202.25 209.758 203.082 209.992C203.92 210.227 204.564 210.569 205.016 211.021C205.467 211.466 205.692 211.999 205.692 212.62C205.692 213.235 205.467 213.766 205.016 214.211C204.564 214.662 203.92 215.008 203.082 215.248C202.25 215.494 201.271 215.617 200.146 215.617C199.027 215.617 198.049 215.494 197.211 215.248C196.379 215.008 195.737 214.662 195.286 214.211C194.835 213.766 194.609 213.235 194.609 212.62C194.609 211.999 194.835 211.466 195.286 211.021C195.737 210.569 196.379 210.227 197.211 209.992C198.043 209.758 199.021 209.641 200.146 209.641ZM200.146 211.311C199.449 211.311 198.854 211.36 198.362 211.46C197.87 211.554 197.495 211.7 197.237 211.899C196.985 212.093 196.859 212.333 196.859 212.62C196.859 212.907 196.985 213.147 197.237 213.341C197.495 213.534 197.867 213.681 198.354 213.78C198.846 213.88 199.443 213.93 200.146 213.93C200.85 213.93 201.444 213.88 201.931 213.78C202.423 213.681 202.798 213.534 203.056 213.341C203.313 213.147 203.442 212.907 203.442 212.62C203.442 212.333 203.313 212.093 203.056 211.899C202.798 211.7 202.42 211.554 201.922 211.46C201.43 211.36 200.838 211.311 200.146 211.311ZM220.221 209.034H217.962V199.604H220.221V209.034ZM222.269 205.272H219.421V203.4H222.269V205.272ZM220.221 213.191H211.643V214.519H209.401V211.82H217.971V211.091H209.384V209.605H220.221V213.191ZM220.748 215.503H209.401V214.018H220.748V215.503ZM213.365 208.27H211.133V206.002H213.365V208.27ZM207.257 207.329C209.278 207.329 211.083 207.303 212.671 207.25C214.265 207.197 215.782 207.071 217.224 206.872L217.391 208.278C215.891 208.524 214.344 208.686 212.75 208.762C211.156 208.832 209.398 208.867 207.477 208.867L207.257 207.329ZM216.819 202.126H207.661V200.623H216.819V202.126ZM212.24 202.442C213.037 202.442 213.729 202.524 214.314 202.688C214.906 202.847 215.36 203.081 215.677 203.392C215.999 203.702 216.16 204.071 216.16 204.499C216.16 204.95 215.999 205.337 215.677 205.659C215.36 205.981 214.909 206.228 214.323 206.397C213.737 206.562 213.043 206.646 212.24 206.652C211.438 206.646 210.743 206.562 210.157 206.397C209.571 206.228 209.117 205.981 208.795 205.659C208.473 205.337 208.312 204.95 208.312 204.499C208.312 204.071 208.473 203.702 208.795 203.392C209.117 203.081 209.574 202.847 210.166 202.688C210.758 202.524 211.449 202.442 212.24 202.442ZM212.24 203.831C211.848 203.831 211.52 203.857 211.256 203.91C210.998 203.957 210.799 204.03 210.658 204.13C210.523 204.224 210.456 204.347 210.456 204.499C210.456 204.663 210.526 204.801 210.667 204.912C210.808 205.018 211.007 205.1 211.265 205.158C211.528 205.211 211.854 205.24 212.24 205.246C212.627 205.24 212.949 205.211 213.207 205.158C213.465 205.1 213.661 205.018 213.796 204.912C213.937 204.801 214.007 204.663 214.007 204.499C214.007 204.347 213.939 204.224 213.805 204.13C213.67 204.03 213.471 203.957 213.207 203.91C212.949 203.857 212.627 203.831 212.24 203.831ZM213.365 201.476H211.133V199.489H213.365V201.476ZM235.602 215.617H233.387V199.604H235.602V215.617ZM237.975 207.725H235.109V205.888H237.975V207.725ZM232.297 203.805H222.901V202.003H232.297V203.805ZM227.639 204.692C228.418 204.692 229.118 204.856 229.739 205.185C230.36 205.507 230.847 205.958 231.198 206.538C231.556 207.118 231.734 207.774 231.734 208.507C231.734 209.239 231.556 209.896 231.198 210.476C230.847 211.056 230.36 211.51 229.739 211.838C229.118 212.16 228.418 212.321 227.639 212.321C226.859 212.321 226.159 212.16 225.538 211.838C224.917 211.51 224.431 211.056 224.079 210.476C223.728 209.896 223.552 209.239 223.552 208.507C223.552 207.774 223.728 207.118 224.079 206.538C224.431 205.958 224.917 205.507 225.538 205.185C226.159 204.856 226.859 204.692 227.639 204.692ZM227.639 206.521C227.27 206.521 226.936 206.603 226.637 206.767C226.344 206.925 226.112 207.156 225.942 207.461C225.778 207.76 225.696 208.108 225.696 208.507C225.696 208.911 225.778 209.263 225.942 209.562C226.112 209.86 226.344 210.092 226.637 210.256C226.936 210.414 227.27 210.493 227.639 210.493C228.02 210.493 228.356 210.414 228.649 210.256C228.942 210.092 229.168 209.86 229.326 209.562C229.49 209.263 229.572 208.911 229.572 208.507C229.572 208.108 229.49 207.76 229.326 207.461C229.168 207.156 228.942 206.925 228.649 206.767C228.356 206.603 228.02 206.521 227.639 206.521ZM228.755 202.688H226.522V199.858H228.755V202.688ZM251.536 205.738H240.348V203.989H251.536V205.738ZM253.153 209.21H238.528V207.452H253.153V209.21ZM242.589 204.868H240.348V200.184H242.589V204.868ZM251.633 215.266H240.207V213.455H251.633V215.266ZM242.457 213.974H240.207V210.52H242.457V213.974ZM258.77 212.093L263.349 207.883C263.8 207.449 264.151 207.092 264.403 206.811C264.655 206.523 264.846 206.236 264.975 205.949C265.109 205.656 265.177 205.346 265.177 205.018C265.177 204.654 265.089 204.335 264.913 204.06C264.737 203.778 264.497 203.564 264.192 203.418C263.888 203.271 263.542 203.198 263.155 203.198C262.763 203.198 262.414 203.277 262.109 203.436C261.811 203.594 261.579 203.825 261.415 204.13C261.257 204.429 261.178 204.777 261.178 205.176H258.664C258.664 204.361 258.852 203.646 259.227 203.031C259.607 202.41 260.138 201.933 260.817 201.599C261.503 201.265 262.291 201.098 263.182 201.098C264.078 201.098 264.869 201.256 265.555 201.572C266.24 201.889 266.771 202.331 267.146 202.899C267.526 203.468 267.717 204.118 267.717 204.851C267.717 205.349 267.62 205.829 267.427 206.292C267.239 206.755 266.905 207.268 266.425 207.83C265.95 208.393 265.273 209.072 264.395 209.869L262.452 211.741V211.829H267.901V214H258.778L258.77 212.093ZM274.713 214.176C273.652 214.176 272.738 213.921 271.971 213.411C271.209 212.901 270.623 212.157 270.213 211.179C269.809 210.194 269.606 209.014 269.606 207.637C269.606 206.26 269.809 205.082 270.213 204.104C270.623 203.125 271.212 202.381 271.979 201.871C272.747 201.355 273.658 201.098 274.713 201.098C275.768 201.098 276.679 201.355 277.446 201.871C278.214 202.381 278.803 203.128 279.213 204.112C279.623 205.091 279.828 206.266 279.828 207.637C279.828 209.02 279.623 210.2 279.213 211.179C278.809 212.157 278.223 212.901 277.455 213.411C276.688 213.921 275.773 214.176 274.713 214.176ZM274.713 211.996C275.205 211.996 275.633 211.835 275.996 211.513C276.365 211.19 276.646 210.704 276.84 210.054C277.033 209.397 277.127 208.592 277.121 207.637C277.121 206.688 277.024 205.888 276.831 205.237C276.638 204.581 276.359 204.089 275.996 203.761C275.633 203.433 275.205 203.269 274.713 203.269C274.221 203.269 273.793 203.433 273.43 203.761C273.072 204.089 272.794 204.581 272.595 205.237C272.396 205.888 272.296 206.688 272.296 207.637C272.296 208.592 272.393 209.397 272.586 210.054C272.785 210.704 273.066 211.19 273.43 211.513C273.793 211.835 274.221 211.996 274.713 211.996ZM281.639 212.093L286.218 207.883C286.669 207.449 287.021 207.092 287.272 206.811C287.524 206.523 287.715 206.236 287.844 205.949C287.979 205.656 288.046 205.346 288.046 205.018C288.046 204.654 287.958 204.335 287.782 204.06C287.606 203.778 287.366 203.564 287.062 203.418C286.757 203.271 286.411 203.198 286.024 203.198C285.632 203.198 285.283 203.277 284.979 203.436C284.68 203.594 284.448 203.825 284.284 204.13C284.126 204.429 284.047 204.777 284.047 205.176H281.533C281.533 204.361 281.721 203.646 282.096 203.031C282.477 202.41 283.007 201.933 283.687 201.599C284.372 201.265 285.16 201.098 286.051 201.098C286.947 201.098 287.738 201.256 288.424 201.572C289.109 201.889 289.64 202.331 290.015 202.899C290.396 203.468 290.586 204.118 290.586 204.851C290.586 205.349 290.489 205.829 290.296 206.292C290.108 206.755 289.774 207.268 289.294 207.83C288.819 208.393 288.143 209.072 287.264 209.869L285.321 211.741V211.829H290.771V214H281.647L281.639 212.093ZM292.15 209.658L297.529 201.273H299.322V204.174H298.25L294.822 209.518V209.623H302.46V211.75H292.15V209.658ZM298.329 211.108L298.364 210.186V201.273H300.852V214H298.329V211.108Z" fill="white"/>
<rect x="107" y="236" width="168" height="36" rx="18" fill="#475FFD" fill-opacity="0.6"/>
<path d="M138.5 259.781H125.5V258.141H138.5V259.781ZM137.414 250.062H126.508V248.461H137.414V250.062ZM137.352 255.945H126.578V254.367H137.352V255.945ZM130.469 254.523H128.477V249.906H130.469V254.523ZM135.414 254.523H133.453V249.906H135.414V254.523ZM152.312 256.672H139.312V255.07H152.312V256.672ZM151.047 261.516H140.945V259.922H151.047V261.516ZM142.945 260.406H140.945V257.398H142.945V260.406ZM146.797 255.82H144.82V253.109H146.797V255.82ZM150.742 251.469H142.914V252.961H140.93V250.062H148.742V249.07H140.906V247.531H150.742V251.469ZM151.008 253.984H140.93V252.477H151.008V253.984ZM164.742 256.141H154.68V254.57H164.742V256.141ZM166.156 259.781H153.156V258.164H166.156V259.781ZM164.633 249.883H156.711V254.992H154.68V248.258H164.633V249.883ZM164.297 252.938H156.117V251.383H164.297V252.938ZM182.945 261.438H181.023V247.203H182.945V261.438ZM181.602 254.203H179.18V252.602H181.602V254.203ZM176.867 248.977C176.867 250.367 176.706 251.635 176.383 252.781C176.06 253.922 175.516 254.977 174.75 255.945C173.99 256.909 172.961 257.763 171.664 258.508L170.508 257.141C171.596 256.505 172.466 255.805 173.117 255.039C173.768 254.268 174.24 253.422 174.531 252.5C174.823 251.573 174.969 250.529 174.969 249.367V248.977H176.867ZM175.547 250.562H171.227V248.977H175.547V250.562ZM179.727 260.805H177.867V247.578H179.727V260.805ZM186.906 249.547H189.82V247.852H191.82V254.062H184.93V247.852H186.906V249.547ZM189.82 252.492V251.039H186.906V252.492H189.82ZM195.789 254.453H193.797V247.203H195.789V254.453ZM197.711 251.602H194.961V249.984H197.711V251.602ZM195.789 258.852H188.344V260.555H186.383V257.422H193.805V256.531H186.359V254.992H195.789V258.852ZM196.203 261.336H186.383V259.773H196.203V261.336ZM203.164 251.086C203.164 252.174 203.01 253.232 202.703 254.258C202.396 255.279 201.94 256.188 201.336 256.984C200.732 257.776 200.01 258.37 199.172 258.766L198 257.195C198.771 256.836 199.422 256.328 199.953 255.672C200.49 255.016 200.896 254.292 201.172 253.5C201.448 252.708 201.586 251.904 201.586 251.086V249.43H203.164V251.086ZM203.586 251.086C203.586 251.836 203.716 252.586 203.977 253.336C204.242 254.081 204.635 254.766 205.156 255.391C205.682 256.01 206.32 256.492 207.07 256.836L205.961 258.398C205.128 258.018 204.414 257.448 203.82 256.688C203.227 255.927 202.776 255.062 202.469 254.094C202.161 253.12 202.008 252.117 202.008 251.086V249.43H203.586V251.086ZM206.453 250.219H198.57V248.594H206.453V250.219ZM209.555 261.438H207.555V247.203H209.555V261.438ZM211.664 254.312H209.117V252.648H211.664V254.312ZM225.172 259.859H212.172V258.227H225.172V259.859ZM219.625 258.906H217.664V255.531H219.625V258.906ZM223.672 252.852H215.656V255.281H213.672V251.289H221.703V249.742H213.648V248.141H223.672V252.852ZM224.008 256.07H213.672V254.453H224.008V256.07ZM240.742 252.523H237.367V250.906H240.742V252.523ZM241.68 257.617H239.695V247.234H241.68V257.617ZM242.023 261.195H232.242V259.586H242.023V261.195ZM234.242 260.523H232.242V256.703H234.242V260.523ZM234.656 249.992C234.656 250.909 234.508 251.768 234.211 252.57C233.919 253.372 233.471 254.076 232.867 254.68C232.268 255.279 231.529 255.727 230.648 256.023L229.617 254.414C230.367 254.174 230.997 253.826 231.508 253.367C232.023 252.904 232.406 252.385 232.656 251.812C232.906 251.234 233.031 250.628 233.031 249.992V249.07H234.656V249.992ZM235.062 250.008C235.062 250.586 235.182 251.146 235.422 251.688C235.661 252.224 236.023 252.711 236.508 253.148C236.997 253.586 237.607 253.922 238.336 254.156L237.352 255.734C236.492 255.453 235.768 255.023 235.18 254.445C234.596 253.867 234.161 253.198 233.875 252.438C233.589 251.677 233.445 250.867 233.445 250.008V249.07H235.062V250.008ZM237.898 249.789H230.18V248.188H237.898V249.789ZM248.703 249.609C248.703 250.51 248.547 251.357 248.234 252.148C247.927 252.94 247.466 253.633 246.852 254.227C246.242 254.82 245.497 255.263 244.617 255.555L243.586 254.016C244.341 253.766 244.979 253.411 245.5 252.953C246.021 252.49 246.406 251.971 246.656 251.398C246.911 250.82 247.039 250.224 247.039 249.609V248.672H248.703V249.609ZM249.062 249.609C249.062 250.193 249.185 250.755 249.43 251.297C249.674 251.839 250.052 252.326 250.562 252.758C251.078 253.19 251.708 253.523 252.453 253.758L251.445 255.297C250.581 255.026 249.846 254.607 249.242 254.039C248.643 253.466 248.193 252.802 247.891 252.047C247.589 251.286 247.438 250.474 247.438 249.609V248.672H249.062V249.609ZM255.422 255.789H253.43V247.203H255.422V255.789ZM255.422 261.438H253.43V258H245.656V256.406H255.422V261.438ZM251.93 249.641H244.109V248.047H251.93V249.641Z" fill="white"/>
<rect x="107" y="280" width="96" height="36" rx="18" fill="#475FFD" fill-opacity="0.3"/>
<path d="M138.203 305.438H136.328V291.203H138.203V305.438ZM136.781 298.305H134.367V296.711H136.781V298.305ZM134.953 304.75H133.125V291.461H134.953V304.75ZM127.312 300.555C128.349 300.555 129.242 300.531 129.992 300.484C130.742 300.438 131.508 300.344 132.289 300.203L132.43 301.82C131.633 301.971 130.849 302.076 130.078 302.133C129.307 302.185 128.385 302.214 127.312 302.219H126.312V300.555H127.312ZM131.625 294.469H128.312V301.359H126.312V292.867H131.625V294.469ZM148.18 294.062H139.734V292.492H148.18V294.062ZM143.969 294.516C144.651 294.516 145.255 294.625 145.781 294.844C146.312 295.062 146.727 295.37 147.023 295.766C147.32 296.161 147.469 296.617 147.469 297.133C147.469 297.654 147.32 298.112 147.023 298.508C146.727 298.904 146.312 299.211 145.781 299.43C145.255 299.648 144.651 299.758 143.969 299.758C143.286 299.758 142.677 299.648 142.141 299.43C141.604 299.211 141.185 298.904 140.883 298.508C140.586 298.107 140.438 297.648 140.438 297.133C140.438 296.617 140.586 296.161 140.883 295.766C141.185 295.37 141.604 295.062 142.141 294.844C142.677 294.625 143.286 294.516 143.969 294.516ZM143.969 296.008C143.651 296.008 143.37 296.052 143.125 296.141C142.885 296.224 142.701 296.352 142.57 296.523C142.44 296.69 142.375 296.893 142.375 297.133C142.375 297.372 142.44 297.576 142.57 297.742C142.701 297.904 142.885 298.026 143.125 298.109C143.365 298.193 143.646 298.234 143.969 298.234C144.286 298.234 144.565 298.193 144.805 298.109C145.049 298.026 145.24 297.904 145.375 297.742C145.51 297.576 145.578 297.372 145.578 297.133C145.578 296.893 145.51 296.69 145.375 296.523C145.24 296.352 145.049 296.224 144.805 296.141C144.565 296.052 144.286 296.008 143.969 296.008ZM151.023 300.141H149.031V291.203H151.023V300.141ZM152.945 296.531H150.461V294.906H152.945V296.531ZM151.023 305.438H149.031V302.32H141.453V300.734H151.023V305.438ZM144.961 293.375H142.969V291.141H144.961V293.375ZM168.555 299.547H166.562V291.203H168.555V299.547ZM170.477 296.305H167.758V294.648H170.477V296.305ZM161.234 301.172H166.562V300.086H168.555V305.281H159.242V300.086H161.234V301.172ZM166.562 303.711V302.703H161.234V303.711H166.562ZM165.711 294.039H157.266V292.469H165.711V294.039ZM161.5 294.43C162.182 294.43 162.786 294.536 163.312 294.75C163.844 294.958 164.258 295.255 164.555 295.641C164.852 296.021 165 296.458 165 296.953C165 297.448 164.852 297.885 164.555 298.266C164.258 298.641 163.844 298.935 163.312 299.148C162.786 299.362 162.182 299.469 161.5 299.469C160.807 299.469 160.193 299.362 159.656 299.148C159.125 298.935 158.711 298.641 158.414 298.266C158.117 297.891 157.969 297.453 157.969 296.953C157.969 296.448 158.117 296.008 158.414 295.633C158.711 295.253 159.125 294.958 159.656 294.75C160.193 294.536 160.807 294.43 161.5 294.43ZM161.5 295.906C161.182 295.896 160.901 295.932 160.656 296.016C160.417 296.099 160.232 296.221 160.102 296.383C159.971 296.544 159.906 296.734 159.906 296.953C159.906 297.172 159.971 297.362 160.102 297.523C160.232 297.685 160.417 297.807 160.656 297.891C160.896 297.969 161.177 298.008 161.5 298.008C161.818 298.008 162.096 297.969 162.336 297.891C162.581 297.807 162.771 297.685 162.906 297.523C163.042 297.362 163.109 297.172 163.109 296.953C163.109 296.734 163.039 296.544 162.898 296.383C162.763 296.221 162.576 296.099 162.336 296.016C162.096 295.932 161.818 295.896 161.5 295.906ZM162.492 293.352H160.5V291.117H162.492V293.352ZM178.703 292.109C178.703 293.375 178.445 294.508 177.93 295.508C177.414 296.503 176.656 297.346 175.656 298.039C174.661 298.732 173.445 299.271 172.008 299.656L171.266 298.07C172.427 297.768 173.406 297.37 174.203 296.875C175.005 296.375 175.607 295.807 176.008 295.172C176.414 294.531 176.617 293.844 176.617 293.109V292.109H178.703ZM177.883 293.719H172.055V292.109H177.883V293.719ZM183.086 305.398H181.102V301.812H173.32V300.258H183.086V305.398ZM183.086 299.672H181.102V291.234H183.086V299.672ZM181.43 295.102H178.016V293.531H181.43V295.102ZM181.297 298.125H177.859V296.539H181.297V298.125Z" fill="white"/>
<rect x="208" y="280" width="96" height="36" rx="18" fill="#475FFD" fill-opacity="0.2"/>
<path d="M232.242 294.086C232.242 294.789 232.094 295.438 231.797 296.031C231.505 296.62 231.06 297.125 230.461 297.547C229.862 297.969 229.125 298.271 228.25 298.453L227.422 296.898C228.135 296.768 228.732 296.562 229.211 296.281C229.695 295.995 230.055 295.664 230.289 295.289C230.523 294.914 230.641 294.513 230.641 294.086V293.906H232.242V294.086ZM232.641 294.086C232.641 294.487 232.758 294.862 232.992 295.211C233.227 295.555 233.578 295.859 234.047 296.125C234.521 296.391 235.107 296.586 235.805 296.711L235.023 298.242C234.154 298.076 233.419 297.794 232.82 297.398C232.227 296.997 231.781 296.516 231.484 295.953C231.188 295.385 231.039 294.763 231.039 294.086V293.906H232.641V294.086ZM235.461 294.18H227.805V292.641H235.461V294.18ZM232.641 293.75H230.656V291.242H232.641V293.75ZM232.641 305H230.641V299.289H232.641V305ZM238.898 305.43H236.914V291.234H238.898V305.43ZM226.945 299.062C228.732 299.062 230.367 299.036 231.852 298.984C233.341 298.932 234.747 298.823 236.07 298.656L236.195 300.102C234.815 300.336 233.391 300.492 231.922 300.57C230.453 300.643 228.878 300.68 227.195 300.68L226.945 299.062ZM251.586 295.969H247.992V294.375H251.586V295.969ZM244.711 291.82C245.409 291.815 246.044 291.958 246.617 292.25C247.19 292.536 247.643 292.938 247.977 293.453C248.31 293.969 248.477 294.547 248.477 295.188C248.477 295.839 248.31 296.424 247.977 296.945C247.643 297.461 247.19 297.865 246.617 298.156C246.049 298.448 245.414 298.594 244.711 298.594C243.987 298.594 243.336 298.448 242.758 298.156C242.185 297.865 241.734 297.461 241.406 296.945C241.083 296.424 240.922 295.839 240.922 295.188C240.922 294.547 241.083 293.969 241.406 293.453C241.734 292.938 242.188 292.536 242.766 292.25C243.344 291.958 243.992 291.815 244.711 291.82ZM244.711 293.484C244.341 293.479 244.013 293.544 243.727 293.68C243.44 293.815 243.216 294.013 243.055 294.273C242.893 294.529 242.812 294.833 242.812 295.188C242.812 295.536 242.893 295.844 243.055 296.109C243.216 296.37 243.44 296.573 243.727 296.719C244.013 296.859 244.341 296.93 244.711 296.93C245.076 296.93 245.398 296.859 245.68 296.719C245.961 296.573 246.18 296.37 246.336 296.109C246.492 295.844 246.57 295.536 246.57 295.188C246.57 294.839 246.492 294.534 246.336 294.273C246.18 294.013 245.961 293.815 245.68 293.68C245.398 293.544 245.076 293.479 244.711 293.484ZM252.727 298.867H250.742V291.203H252.727V298.867ZM245.211 300.852H250.742V299.484H252.727V305.281H243.242V299.484H245.211V300.852ZM250.742 303.672V302.391H245.211V303.672H250.742ZM263.266 293.25C263.266 294.224 263.115 295.128 262.812 295.961C262.516 296.789 262.065 297.51 261.461 298.125C260.857 298.74 260.104 299.203 259.203 299.516L258.141 297.914C258.927 297.664 259.581 297.302 260.102 296.828C260.628 296.349 261.016 295.805 261.266 295.195C261.516 294.586 261.641 293.938 261.641 293.25V291.961H263.266V293.25ZM263.648 293.148C263.648 293.805 263.763 294.422 263.992 295C264.221 295.573 264.581 296.081 265.07 296.523C265.56 296.961 266.172 297.294 266.906 297.523L265.836 299.078C264.987 298.781 264.279 298.346 263.711 297.773C263.148 297.201 262.729 296.523 262.453 295.742C262.182 294.961 262.047 294.096 262.047 293.148V291.961H263.648V293.148ZM270.258 299.547H268.273V291.203H270.258V299.547ZM265.398 299.922C266.414 299.922 267.289 300.029 268.023 300.242C268.758 300.456 269.32 300.771 269.711 301.188C270.107 301.604 270.305 302.104 270.305 302.688C270.305 303.26 270.107 303.755 269.711 304.172C269.32 304.589 268.758 304.904 268.023 305.117C267.289 305.331 266.414 305.438 265.398 305.438C264.393 305.438 263.523 305.331 262.789 305.117C262.06 304.904 261.497 304.589 261.102 304.172C260.711 303.755 260.516 303.26 260.516 302.688C260.516 302.104 260.711 301.604 261.102 301.188C261.497 300.771 262.06 300.456 262.789 300.242C263.523 300.029 264.393 299.922 265.398 299.922ZM265.398 301.461C264.773 301.461 264.245 301.505 263.812 301.594C263.38 301.682 263.052 301.818 262.828 302C262.604 302.182 262.492 302.411 262.492 302.688C262.492 302.943 262.604 303.161 262.828 303.344C263.052 303.521 263.38 303.656 263.812 303.75C264.245 303.844 264.773 303.891 265.398 303.891C266.039 303.891 266.576 303.844 267.008 303.75C267.44 303.656 267.766 303.521 267.984 303.344C268.203 303.161 268.312 302.943 268.312 302.688C268.312 302.411 268.203 302.182 267.984 302C267.766 301.818 267.44 301.682 267.008 301.594C266.576 301.505 266.039 301.461 265.398 301.461ZM268.547 295.453H265.602V293.828H268.547V295.453ZM278.508 300.078C279.549 300.078 280.448 300.182 281.203 300.391C281.964 300.599 282.549 300.906 282.961 301.312C283.378 301.714 283.586 302.198 283.586 302.766C283.586 303.318 283.378 303.794 282.961 304.195C282.549 304.596 281.961 304.904 281.195 305.117C280.435 305.331 279.539 305.438 278.508 305.438C277.487 305.438 276.596 305.331 275.836 305.117C275.076 304.904 274.487 304.596 274.07 304.195C273.654 303.794 273.445 303.318 273.445 302.766C273.445 302.203 273.651 301.719 274.062 301.312C274.474 300.906 275.06 300.599 275.82 300.391C276.586 300.182 277.482 300.078 278.508 300.078ZM278.508 301.555C277.852 301.555 277.294 301.602 276.836 301.695C276.383 301.784 276.034 301.919 275.789 302.102C275.549 302.279 275.43 302.5 275.43 302.766C275.43 303.021 275.549 303.234 275.789 303.406C276.034 303.578 276.383 303.708 276.836 303.797C277.294 303.88 277.852 303.922 278.508 303.922C279.169 303.922 279.729 303.88 280.188 303.797C280.646 303.708 280.995 303.576 281.234 303.398C281.479 303.221 281.602 303.01 281.602 302.766C281.602 302.5 281.479 302.279 281.234 302.102C280.995 301.919 280.646 301.784 280.188 301.695C279.729 301.602 279.169 301.555 278.508 301.555ZM282.664 293.422H273.586V291.852H282.664V293.422ZM285.047 299.18H272.133V297.57H285.047V299.18ZM278.945 298H276.969V295.078H278.945V298ZM283.516 293.016C283.516 293.786 283.492 294.453 283.445 295.016C283.404 295.573 283.292 296.177 283.109 296.828L281.148 296.633C281.31 295.997 281.411 295.43 281.453 294.93C281.495 294.424 281.518 293.828 281.523 293.141V293.016V291.852H283.516V293.016Z" fill="white"/>
</svg>
