<svg width="320" height="326" viewBox="0 0 320 326" fill="none" xmlns="http://www.w3.org/2000/svg">
<ellipse opacity="0.1" cx="160" cy="162.866" rx="160" ry="162.866" fill="#475FFD"/>
<path d="M113.256 61.8596C112.958 60.7959 113.612 59.9102 114.716 59.8812L238.277 56.6457C241.364 56.5648 244.19 59.7423 243.35 62.3511L227.368 112.014C227.172 112.624 227.38 113.367 227.912 113.958L271.248 162.067C273.524 164.595 272.505 167.873 269.417 167.954L145.857 171.189C144.753 171.218 143.616 170.379 143.319 169.316L113.256 61.8596Z" fill="#11D796"/>
<path d="M7.64233 38.3145L137.568 34.9122C148.61 34.6231 159.974 43.0119 162.95 53.6491L188.702 145.697L38.7829 149.623L7.64233 38.3145Z" fill="#475FFD"/>
<path d="M143.762 171.568L188.657 145.777L137.075 147.21L143.762 171.568Z" fill="black"/>
<path d="M7.64233 38.3145L75.4632 272.822" stroke="#24252E" stroke-width="10" stroke-linecap="round" stroke-linejoin="round"/>
<path d="M74.5078 85.0146L96.478 101.731L128.956 65.9102" stroke="white" stroke-width="6" stroke-linecap="round" stroke-linejoin="round"/>
<rect x="107" y="189" width="210" height="38" rx="19" fill="#475FFD"/>
<path d="M133.429 201.88C133.429 202.823 133.171 203.688 132.655 204.473C132.146 205.258 131.41 205.917 130.449 206.45C129.488 206.978 128.346 207.332 127.021 207.514L126.187 205.765C127.306 205.624 128.264 205.354 129.061 204.956C129.863 204.558 130.467 204.089 130.871 203.55C131.275 203.011 131.478 202.454 131.478 201.88V201.396H133.429V201.88ZM134.07 201.88C134.07 202.454 134.27 203.011 134.668 203.55C135.072 204.089 135.676 204.558 136.479 204.956C137.281 205.354 138.248 205.624 139.379 205.765L138.57 207.514C137.24 207.332 136.089 206.978 135.116 206.45C134.149 205.923 133.408 205.267 132.893 204.481C132.377 203.69 132.119 202.823 132.119 201.88V201.396H134.07V201.88ZM133.842 215.626H131.618V209.729H133.842V215.626ZM140.073 210.238H125.483V208.454H140.073V210.238ZM138.755 202.214H126.793V200.465H138.755V202.214ZM153.705 208.56H142.403V206.775H153.705V208.56ZM155.305 213.807H140.68V211.97H155.305V213.807ZM149.065 212.559H146.859V207.593H149.065V212.559ZM153.591 202.53H144.644V207.584H142.403V200.755H153.591V202.53ZM161.449 202.275C161.449 203.295 161.282 204.256 160.948 205.158C160.614 206.061 160.107 206.849 159.427 207.522C158.754 208.19 157.925 208.686 156.94 209.008L155.78 207.241C156.624 206.96 157.333 206.562 157.907 206.046C158.487 205.53 158.918 204.947 159.199 204.297C159.48 203.641 159.621 202.967 159.621 202.275V201.194H161.449V202.275ZM161.906 202.249C161.906 202.905 162.038 203.538 162.301 204.147C162.571 204.757 162.981 205.308 163.532 205.8C164.083 206.286 164.768 206.667 165.589 206.942L164.481 208.683C163.514 208.372 162.7 207.897 162.038 207.259C161.382 206.614 160.892 205.861 160.57 205C160.248 204.139 160.087 203.222 160.087 202.249V201.194H161.906V202.249ZM167.759 205.299H164.639V203.462H167.759V205.299ZM165.096 202.302H156.413V200.509H165.096V202.302ZM169.35 215.617H167.118V211.653H158.364V209.852H169.35V215.617ZM169.35 209.148H167.118V199.604H169.35V209.148ZM184.45 211.135H182.209V199.639H184.45V211.135ZM184.89 215.345H173.736V213.534H184.89V215.345ZM176.004 214.272H173.736V209.983H176.004V214.272ZM175.688 200.649C176.502 200.649 177.243 200.822 177.911 201.168C178.585 201.508 179.112 201.988 179.493 202.609C179.874 203.225 180.065 203.913 180.065 204.675C180.065 205.46 179.874 206.16 179.493 206.775C179.112 207.391 178.585 207.874 177.911 208.226C177.243 208.571 176.502 208.744 175.688 208.744C174.873 208.744 174.132 208.571 173.464 208.226C172.802 207.874 172.277 207.391 171.891 206.775C171.504 206.16 171.311 205.46 171.311 204.675C171.311 203.913 171.504 203.225 171.891 202.609C172.277 201.988 172.802 201.508 173.464 201.168C174.132 200.822 174.873 200.649 175.688 200.649ZM175.688 202.601C175.272 202.595 174.897 202.677 174.563 202.847C174.234 203.011 173.974 203.251 173.78 203.567C173.593 203.884 173.499 204.253 173.499 204.675C173.499 205.108 173.593 205.486 173.78 205.809C173.974 206.125 174.234 206.368 174.563 206.538C174.897 206.702 175.272 206.784 175.688 206.784C176.098 206.784 176.464 206.702 176.786 206.538C177.114 206.368 177.372 206.125 177.56 205.809C177.747 205.486 177.841 205.108 177.841 204.675C177.841 204.253 177.747 203.884 177.56 203.567C177.372 203.251 177.114 203.011 176.786 202.847C176.464 202.677 176.098 202.595 175.688 202.601ZM194.761 202.469C194.761 203.395 194.629 204.285 194.365 205.141C194.107 205.99 193.7 206.749 193.143 207.417C192.587 208.085 191.892 208.592 191.06 208.938L189.847 207.206C190.568 206.896 191.163 206.485 191.632 205.976C192.1 205.466 192.446 204.912 192.669 204.314C192.897 203.711 193.012 203.096 193.012 202.469V200.588H194.761V202.469ZM195.182 202.469C195.182 203.066 195.291 203.638 195.508 204.183C195.724 204.728 196.058 205.22 196.51 205.659C196.961 206.099 197.523 206.45 198.197 206.714L197.011 208.428C196.202 208.117 195.528 207.663 194.989 207.065C194.456 206.462 194.06 205.768 193.803 204.982C193.551 204.197 193.425 203.359 193.425 202.469V200.588H195.182V202.469ZM203.813 209.421H201.678V199.639H203.813V209.421ZM202.266 205.36H199.7V203.541H202.266V205.36ZM200.342 208.92H198.267V199.911H200.342V208.92ZM198.346 209.641C199.471 209.641 200.45 209.758 201.282 209.992C202.12 210.227 202.764 210.569 203.216 211.021C203.667 211.466 203.892 211.999 203.892 212.62C203.892 213.235 203.667 213.766 203.216 214.211C202.764 214.662 202.12 215.008 201.282 215.248C200.45 215.494 199.471 215.617 198.346 215.617C197.227 215.617 196.249 215.494 195.411 215.248C194.579 215.008 193.937 214.662 193.486 214.211C193.035 213.766 192.809 213.235 192.809 212.62C192.809 211.999 193.035 211.466 193.486 211.021C193.937 210.569 194.579 210.227 195.411 209.992C196.243 209.758 197.221 209.641 198.346 209.641ZM198.346 211.311C197.649 211.311 197.054 211.36 196.562 211.46C196.07 211.554 195.695 211.7 195.437 211.899C195.185 212.093 195.059 212.333 195.059 212.62C195.059 212.907 195.185 213.147 195.437 213.341C195.695 213.534 196.067 213.681 196.554 213.78C197.046 213.88 197.643 213.93 198.346 213.93C199.05 213.93 199.644 213.88 200.131 213.78C200.623 213.681 200.998 213.534 201.256 213.341C201.513 213.147 201.642 212.907 201.642 212.62C201.642 212.333 201.513 212.093 201.256 211.899C200.998 211.7 200.62 211.554 200.122 211.46C199.63 211.36 199.038 211.311 198.346 211.311ZM218.061 209.034H215.802V199.604H218.061V209.034ZM220.109 205.272H217.261V203.4H220.109V205.272ZM218.061 213.191H209.483V214.519H207.241V211.82H215.811V211.091H207.224V209.605H218.061V213.191ZM218.588 215.503H207.241V214.018H218.588V215.503ZM211.205 208.27H208.973V206.002H211.205V208.27ZM205.097 207.329C207.118 207.329 208.923 207.303 210.511 207.25C212.105 207.197 213.622 207.071 215.064 206.872L215.231 208.278C213.731 208.524 212.184 208.686 210.59 208.762C208.996 208.832 207.238 208.867 205.317 208.867L205.097 207.329ZM214.659 202.126H205.501V200.623H214.659V202.126ZM210.08 202.442C210.877 202.442 211.569 202.524 212.154 202.688C212.746 202.847 213.2 203.081 213.517 203.392C213.839 203.702 214 204.071 214 204.499C214 204.95 213.839 205.337 213.517 205.659C213.2 205.981 212.749 206.228 212.163 206.397C211.577 206.562 210.883 206.646 210.08 206.652C209.277 206.646 208.583 206.562 207.997 206.397C207.411 206.228 206.957 205.981 206.635 205.659C206.313 205.337 206.152 204.95 206.152 204.499C206.152 204.071 206.313 203.702 206.635 203.392C206.957 203.081 207.414 202.847 208.006 202.688C208.598 202.524 209.289 202.442 210.08 202.442ZM210.08 203.831C209.688 203.831 209.36 203.857 209.096 203.91C208.838 203.957 208.639 204.03 208.498 204.13C208.363 204.224 208.296 204.347 208.296 204.499C208.296 204.663 208.366 204.801 208.507 204.912C208.648 205.018 208.847 205.1 209.105 205.158C209.368 205.211 209.694 205.24 210.08 205.246C210.467 205.24 210.789 205.211 211.047 205.158C211.305 205.1 211.501 205.018 211.636 204.912C211.777 204.801 211.847 204.663 211.847 204.499C211.847 204.347 211.779 204.224 211.645 204.13C211.51 204.03 211.311 203.957 211.047 203.91C210.789 203.857 210.467 203.831 210.08 203.831ZM211.205 201.476H208.973V199.489H211.205V201.476ZM233.082 215.617H230.867V199.604H233.082V215.617ZM235.455 207.725H232.589V205.888H235.455V207.725ZM229.777 203.805H220.381V202.003H229.777V203.805ZM225.119 204.692C225.898 204.692 226.598 204.856 227.219 205.185C227.84 205.507 228.327 205.958 228.678 206.538C229.036 207.118 229.214 207.774 229.214 208.507C229.214 209.239 229.036 209.896 228.678 210.476C228.327 211.056 227.84 211.51 227.219 211.838C226.598 212.16 225.898 212.321 225.119 212.321C224.339 212.321 223.639 212.16 223.018 211.838C222.397 211.51 221.911 211.056 221.559 210.476C221.208 209.896 221.032 209.239 221.032 208.507C221.032 207.774 221.208 207.118 221.559 206.538C221.911 205.958 222.397 205.507 223.018 205.185C223.639 204.856 224.339 204.692 225.119 204.692ZM225.119 206.521C224.75 206.521 224.416 206.603 224.117 206.767C223.824 206.925 223.592 207.156 223.422 207.461C223.258 207.76 223.176 208.108 223.176 208.507C223.176 208.911 223.258 209.263 223.422 209.562C223.592 209.86 223.824 210.092 224.117 210.256C224.416 210.414 224.75 210.493 225.119 210.493C225.5 210.493 225.836 210.414 226.129 210.256C226.422 210.092 226.648 209.86 226.806 209.562C226.97 209.263 227.052 208.911 227.052 208.507C227.052 208.108 226.97 207.76 226.806 207.461C226.648 207.156 226.422 206.925 226.129 206.767C225.836 206.603 225.5 206.521 225.119 206.521ZM226.235 202.688H224.002V199.858H226.235V202.688ZM248.656 205.738H237.468V203.989H248.656V205.738ZM250.273 209.21H235.648V207.452H250.273V209.21ZM239.709 204.868H237.468V200.184H239.709V204.868ZM248.753 215.266H237.327V213.455H248.753V215.266ZM239.577 213.974H237.327V210.52H239.577V213.974ZM255.17 212.093L259.749 207.883C260.2 207.449 260.551 207.092 260.803 206.811C261.055 206.523 261.246 206.236 261.375 205.949C261.509 205.656 261.577 205.346 261.577 205.018C261.577 204.654 261.489 204.335 261.313 204.06C261.137 203.778 260.897 203.564 260.592 203.418C260.288 203.271 259.942 203.198 259.555 203.198C259.163 203.198 258.814 203.277 258.509 203.436C258.211 203.594 257.979 203.825 257.815 204.13C257.657 204.429 257.578 204.777 257.578 205.176H255.064C255.064 204.361 255.252 203.646 255.627 203.031C256.007 202.41 256.538 201.933 257.217 201.599C257.903 201.265 258.691 201.098 259.582 201.098C260.478 201.098 261.269 201.256 261.955 201.572C262.64 201.889 263.171 202.331 263.546 202.899C263.926 203.468 264.117 204.118 264.117 204.851C264.117 205.349 264.02 205.829 263.827 206.292C263.639 206.755 263.305 207.268 262.825 207.83C262.35 208.393 261.673 209.072 260.795 209.869L258.852 211.741V211.829H264.301V214H255.178L255.17 212.093ZM270.753 214.176C269.692 214.176 268.778 213.921 268.011 213.411C267.249 212.901 266.663 212.157 266.253 211.179C265.849 210.194 265.646 209.014 265.646 207.637C265.646 206.26 265.849 205.082 266.253 204.104C266.663 203.125 267.252 202.381 268.019 201.871C268.787 201.355 269.698 201.098 270.753 201.098C271.808 201.098 272.719 201.355 273.486 201.871C274.254 202.381 274.843 203.128 275.253 204.112C275.663 205.091 275.868 206.266 275.868 207.637C275.868 209.02 275.663 210.2 275.253 211.179C274.849 212.157 274.263 212.901 273.495 213.411C272.727 213.921 271.813 214.176 270.753 214.176ZM270.753 211.996C271.245 211.996 271.673 211.835 272.036 211.513C272.405 211.19 272.686 210.704 272.88 210.054C273.073 209.397 273.167 208.592 273.161 207.637C273.161 206.688 273.064 205.888 272.871 205.237C272.678 204.581 272.399 204.089 272.036 203.761C271.673 203.433 271.245 203.269 270.753 203.269C270.261 203.269 269.833 203.433 269.47 203.761C269.112 204.089 268.834 204.581 268.635 205.237C268.436 205.888 268.336 206.688 268.336 207.637C268.336 208.592 268.433 209.397 268.626 210.054C268.825 210.704 269.106 211.19 269.47 211.513C269.833 211.835 270.261 211.996 270.753 211.996ZM277.319 212.093L281.898 207.883C282.349 207.449 282.701 207.092 282.952 206.811C283.204 206.523 283.395 206.236 283.524 205.949C283.659 205.656 283.726 205.346 283.726 205.018C283.726 204.654 283.638 204.335 283.462 204.06C283.286 203.778 283.046 203.564 282.742 203.418C282.437 203.271 282.091 203.198 281.704 203.198C281.312 203.198 280.963 203.277 280.659 203.436C280.36 203.594 280.128 203.825 279.964 204.13C279.806 204.429 279.727 204.777 279.727 205.176H277.213C277.213 204.361 277.401 203.646 277.776 203.031C278.157 202.41 278.687 201.933 279.367 201.599C280.052 201.265 280.84 201.098 281.731 201.098C282.627 201.098 283.418 201.256 284.104 201.572C284.789 201.889 285.32 202.331 285.695 202.899C286.076 203.468 286.266 204.118 286.266 204.851C286.266 205.349 286.169 205.829 285.976 206.292C285.788 206.755 285.454 207.268 284.974 207.83C284.499 208.393 283.823 209.072 282.944 209.869L281.001 211.741V211.829H286.451V214H277.327L277.319 212.093ZM287.47 209.658L292.849 201.273H294.642V204.174H293.57L290.142 209.518V209.623H297.78V211.75H287.47V209.658ZM293.649 211.108L293.684 210.186V201.273H296.172V214H293.649V211.108Z" fill="white"/>
<rect x="107" y="236" width="168" height="36" rx="18" fill="#475FFD" fill-opacity="0.6"/>
<path d="M140.1 259.781H127.1V258.141H140.1V259.781ZM139.014 250.062H128.108V248.461H139.014V250.062ZM138.952 255.945H128.178V254.367H138.952V255.945ZM132.069 254.523H130.077V249.906H132.069V254.523ZM137.014 254.523H135.053V249.906H137.014V254.523ZM153.592 256.672H140.592V255.07H153.592V256.672ZM152.327 261.516H142.225V259.922H152.327V261.516ZM144.225 260.406H142.225V257.398H144.225V260.406ZM148.077 255.82H146.1V253.109H148.077V255.82ZM152.022 251.469H144.194V252.961H142.21V250.062H150.022V249.07H142.186V247.531H152.022V251.469ZM152.288 253.984H142.21V252.477H152.288V253.984ZM165.702 256.141H155.64V254.57H165.702V256.141ZM167.116 259.781H154.116V258.164H167.116V259.781ZM165.593 249.883H157.671V254.992H155.64V248.258H165.593V249.883ZM165.257 252.938H157.077V251.383H165.257V252.938ZM183.265 261.438H181.343V247.203H183.265V261.438ZM181.922 254.203H179.5V252.602H181.922V254.203ZM177.187 248.977C177.187 250.367 177.026 251.635 176.703 252.781C176.38 253.922 175.836 254.977 175.07 255.945C174.31 256.909 173.281 257.763 171.984 258.508L170.828 257.141C171.916 256.505 172.786 255.805 173.437 255.039C174.088 254.268 174.56 253.422 174.851 252.5C175.143 251.573 175.289 250.529 175.289 249.367V248.977H177.187ZM175.867 250.562H171.547V248.977H175.867V250.562ZM180.047 260.805H178.187V247.578H180.047V260.805ZM186.906 249.547H189.82V247.852H191.82V254.062H184.93V247.852H186.906V249.547ZM189.82 252.492V251.039H186.906V252.492H189.82ZM195.789 254.453H193.797V247.203H195.789V254.453ZM197.711 251.602H194.961V249.984H197.711V251.602ZM195.789 258.852H188.344V260.555H186.383V257.422H193.805V256.531H186.359V254.992H195.789V258.852ZM196.203 261.336H186.383V259.773H196.203V261.336ZM202.844 251.086C202.844 252.174 202.69 253.232 202.383 254.258C202.076 255.279 201.62 256.188 201.016 256.984C200.412 257.776 199.69 258.37 198.852 258.766L197.68 257.195C198.451 256.836 199.102 256.328 199.633 255.672C200.17 255.016 200.576 254.292 200.852 253.5C201.128 252.708 201.266 251.904 201.266 251.086V249.43H202.844V251.086ZM203.266 251.086C203.266 251.836 203.396 252.586 203.657 253.336C203.922 254.081 204.315 254.766 204.836 255.391C205.362 256.01 206 256.492 206.75 256.836L205.641 258.398C204.808 258.018 204.094 257.448 203.5 256.688C202.907 255.927 202.456 255.062 202.149 254.094C201.841 253.12 201.688 252.117 201.688 251.086V249.43H203.266V251.086ZM206.133 250.219H198.25V248.594H206.133V250.219ZM209.235 261.438H207.235V247.203H209.235V261.438ZM211.344 254.312H208.797V252.648H211.344V254.312ZM224.532 259.859H211.532V258.227H224.532V259.859ZM218.985 258.906H217.024V255.531H218.985V258.906ZM223.032 252.852H215.016V255.281H213.032V251.289H221.063V249.742H213.008V248.141H223.032V252.852ZM223.368 256.07H213.032V254.453H223.368V256.07ZM239.462 252.523H236.087V250.906H239.462V252.523ZM240.4 257.617H238.415V247.234H240.4V257.617ZM240.743 261.195H230.962V259.586H240.743V261.195ZM232.962 260.523H230.962V256.703H232.962V260.523ZM233.376 249.992C233.376 250.909 233.228 251.768 232.931 252.57C232.639 253.372 232.191 254.076 231.587 254.68C230.988 255.279 230.249 255.727 229.368 256.023L228.337 254.414C229.087 254.174 229.717 253.826 230.228 253.367C230.743 252.904 231.126 252.385 231.376 251.812C231.626 251.234 231.751 250.628 231.751 249.992V249.07H233.376V249.992ZM233.783 250.008C233.783 250.586 233.902 251.146 234.142 251.688C234.381 252.224 234.743 252.711 235.228 253.148C235.717 253.586 236.327 253.922 237.056 254.156L236.072 255.734C235.212 255.453 234.488 255.023 233.9 254.445C233.316 253.867 232.881 253.198 232.595 252.438C232.309 251.677 232.165 250.867 232.165 250.008V249.07H233.783V250.008ZM236.618 249.789H228.9V248.188H236.618V249.789ZM247.103 249.609C247.103 250.51 246.947 251.357 246.634 252.148C246.327 252.94 245.866 253.633 245.252 254.227C244.642 254.82 243.897 255.263 243.017 255.555L241.986 254.016C242.741 253.766 243.379 253.411 243.9 252.953C244.421 252.49 244.806 251.971 245.056 251.398C245.311 250.82 245.439 250.224 245.439 249.609V248.672H247.103V249.609ZM247.463 249.609C247.463 250.193 247.585 250.755 247.83 251.297C248.074 251.839 248.452 252.326 248.963 252.758C249.478 253.19 250.108 253.523 250.853 253.758L249.845 255.297C248.981 255.026 248.246 254.607 247.642 254.039C247.043 253.466 246.593 252.802 246.291 252.047C245.989 251.286 245.838 250.474 245.838 249.609V248.672H247.463V249.609ZM253.822 255.789H251.83V247.203H253.822V255.789ZM253.822 261.438H251.83V258H244.056V256.406H253.822V261.438ZM250.33 249.641H242.509V248.047H250.33V249.641Z" fill="white"/>
<rect x="107" y="280" width="94" height="36" rx="18" fill="#475FFD" fill-opacity="0.3"/>
<path d="M137.843 305.438H135.968V291.203H137.843V305.438ZM136.421 298.305H134.007V296.711H136.421V298.305ZM134.593 304.75H132.765V291.461H134.593V304.75ZM126.952 300.555C127.989 300.555 128.882 300.531 129.632 300.484C130.382 300.438 131.148 300.344 131.929 300.203L132.07 301.82C131.273 301.971 130.489 302.076 129.718 302.133C128.947 302.185 128.025 302.214 126.952 302.219H125.952V300.555H126.952ZM131.265 294.469H127.952V301.359H125.952V292.867H131.265V294.469ZM147.5 294.062H139.054V292.492H147.5V294.062ZM143.289 294.516C143.971 294.516 144.575 294.625 145.101 294.844C145.632 295.062 146.047 295.37 146.343 295.766C146.64 296.161 146.789 296.617 146.789 297.133C146.789 297.654 146.64 298.112 146.343 298.508C146.047 298.904 145.632 299.211 145.101 299.43C144.575 299.648 143.971 299.758 143.289 299.758C142.606 299.758 141.997 299.648 141.461 299.43C140.924 299.211 140.505 298.904 140.203 298.508C139.906 298.107 139.757 297.648 139.757 297.133C139.757 296.617 139.906 296.161 140.203 295.766C140.505 295.37 140.924 295.062 141.461 294.844C141.997 294.625 142.606 294.516 143.289 294.516ZM143.289 296.008C142.971 296.008 142.69 296.052 142.445 296.141C142.205 296.224 142.021 296.352 141.89 296.523C141.76 296.69 141.695 296.893 141.695 297.133C141.695 297.372 141.76 297.576 141.89 297.742C142.021 297.904 142.205 298.026 142.445 298.109C142.685 298.193 142.966 298.234 143.289 298.234C143.606 298.234 143.885 298.193 144.125 298.109C144.369 298.026 144.56 297.904 144.695 297.742C144.83 297.576 144.898 297.372 144.898 297.133C144.898 296.893 144.83 296.69 144.695 296.523C144.56 296.352 144.369 296.224 144.125 296.141C143.885 296.052 143.606 296.008 143.289 296.008ZM150.343 300.141H148.351V291.203H150.343V300.141ZM152.265 296.531H149.781V294.906H152.265V296.531ZM150.343 305.438H148.351V302.32H140.773V300.734H150.343V305.438ZM144.281 293.375H142.289V291.141H144.281V293.375ZM167.235 299.547H165.243V291.203H167.235V299.547ZM169.157 296.305H166.438V294.648H169.157V296.305ZM159.914 301.172H165.243V300.086H167.235V305.281H157.922V300.086H159.914V301.172ZM165.243 303.711V302.703H159.914V303.711H165.243ZM164.391 294.039H155.946V292.469H164.391V294.039ZM160.18 294.43C160.862 294.43 161.466 294.536 161.993 294.75C162.524 294.958 162.938 295.255 163.235 295.641C163.532 296.021 163.68 296.458 163.68 296.953C163.68 297.448 163.532 297.885 163.235 298.266C162.938 298.641 162.524 298.935 161.993 299.148C161.466 299.362 160.862 299.469 160.18 299.469C159.487 299.469 158.873 299.362 158.336 299.148C157.805 298.935 157.391 298.641 157.094 298.266C156.797 297.891 156.649 297.453 156.649 296.953C156.649 296.448 156.797 296.008 157.094 295.633C157.391 295.253 157.805 294.958 158.336 294.75C158.873 294.536 159.487 294.43 160.18 294.43ZM160.18 295.906C159.862 295.896 159.581 295.932 159.336 296.016C159.097 296.099 158.912 296.221 158.782 296.383C158.651 296.544 158.586 296.734 158.586 296.953C158.586 297.172 158.651 297.362 158.782 297.523C158.912 297.685 159.097 297.807 159.336 297.891C159.576 297.969 159.857 298.008 160.18 298.008C160.498 298.008 160.776 297.969 161.016 297.891C161.261 297.807 161.451 297.685 161.586 297.523C161.722 297.362 161.789 297.172 161.789 296.953C161.789 296.734 161.719 296.544 161.578 296.383C161.443 296.221 161.256 296.099 161.016 296.016C160.776 295.932 160.498 295.896 160.18 295.906ZM161.172 293.352H159.18V291.117H161.172V293.352ZM177.063 292.109C177.063 293.375 176.805 294.508 176.29 295.508C175.774 296.503 175.016 297.346 174.016 298.039C173.021 298.732 171.805 299.271 170.368 299.656L169.626 298.07C170.787 297.768 171.766 297.37 172.563 296.875C173.365 296.375 173.967 295.807 174.368 295.172C174.774 294.531 174.977 293.844 174.977 293.109V292.109H177.063ZM176.243 293.719H170.415V292.109H176.243V293.719ZM181.446 305.398H179.462V301.812H171.68V300.258H181.446V305.398ZM181.446 299.672H179.462V291.234H181.446V299.672ZM179.79 295.102H176.376V293.531H179.79V295.102ZM179.657 298.125H176.219V296.539H179.657V298.125Z" fill="white"/>
<rect x="208" y="280" width="94" height="36" rx="18" fill="#CBD2FF"/>
<path d="M231.882 294.086C231.882 294.789 231.734 295.438 231.437 296.031C231.145 296.62 230.7 297.125 230.101 297.547C229.502 297.969 228.765 298.271 227.89 298.453L227.062 296.898C227.775 296.768 228.372 296.562 228.851 296.281C229.335 295.995 229.695 295.664 229.929 295.289C230.163 294.914 230.281 294.513 230.281 294.086V293.906H231.882V294.086ZM232.281 294.086C232.281 294.487 232.398 294.862 232.632 295.211C232.867 295.555 233.218 295.859 233.687 296.125C234.161 296.391 234.747 296.586 235.445 296.711L234.663 298.242C233.794 298.076 233.059 297.794 232.46 297.398C231.867 296.997 231.421 296.516 231.124 295.953C230.827 295.385 230.679 294.763 230.679 294.086V293.906H232.281V294.086ZM235.101 294.18H227.445V292.641H235.101V294.18ZM232.281 293.75H230.296V291.242H232.281V293.75ZM232.281 305H230.281V299.289H232.281V305ZM238.538 305.43H236.554V291.234H238.538V305.43ZM226.585 299.062C228.372 299.062 230.007 299.036 231.492 298.984C232.981 298.932 234.387 298.823 235.71 298.656L235.835 300.102C234.455 300.336 233.031 300.492 231.562 300.57C230.093 300.643 228.518 300.68 226.835 300.68L226.585 299.062ZM250.906 295.969H247.312V294.375H250.906V295.969ZM244.031 291.82C244.729 291.815 245.364 291.958 245.937 292.25C246.51 292.536 246.963 292.938 247.297 293.453C247.63 293.969 247.797 294.547 247.797 295.188C247.797 295.839 247.63 296.424 247.297 296.945C246.963 297.461 246.51 297.865 245.937 298.156C245.369 298.448 244.734 298.594 244.031 298.594C243.307 298.594 242.656 298.448 242.078 298.156C241.505 297.865 241.054 297.461 240.726 296.945C240.403 296.424 240.242 295.839 240.242 295.188C240.242 294.547 240.403 293.969 240.726 293.453C241.054 292.938 241.507 292.536 242.086 292.25C242.664 291.958 243.312 291.815 244.031 291.82ZM244.031 293.484C243.661 293.479 243.333 293.544 243.047 293.68C242.76 293.815 242.536 294.013 242.375 294.273C242.213 294.529 242.132 294.833 242.132 295.188C242.132 295.536 242.213 295.844 242.375 296.109C242.536 296.37 242.76 296.573 243.047 296.719C243.333 296.859 243.661 296.93 244.031 296.93C244.396 296.93 244.718 296.859 245 296.719C245.281 296.573 245.5 296.37 245.656 296.109C245.812 295.844 245.89 295.536 245.89 295.188C245.89 294.839 245.812 294.534 245.656 294.273C245.5 294.013 245.281 293.815 245 293.68C244.718 293.544 244.396 293.479 244.031 293.484ZM252.047 298.867H250.062V291.203H252.047V298.867ZM244.531 300.852H250.062V299.484H252.047V305.281H242.562V299.484H244.531V300.852ZM250.062 303.672V302.391H244.531V303.672H250.062ZM261.946 293.25C261.946 294.224 261.795 295.128 261.493 295.961C261.196 296.789 260.745 297.51 260.141 298.125C259.537 298.74 258.784 299.203 257.883 299.516L256.821 297.914C257.607 297.664 258.261 297.302 258.782 296.828C259.308 296.349 259.696 295.805 259.946 295.195C260.196 294.586 260.321 293.938 260.321 293.25V291.961H261.946V293.25ZM262.328 293.148C262.328 293.805 262.443 294.422 262.672 295C262.901 295.573 263.261 296.081 263.75 296.523C264.24 296.961 264.852 297.294 265.586 297.523L264.516 299.078C263.667 298.781 262.959 298.346 262.391 297.773C261.828 297.201 261.409 296.523 261.133 295.742C260.862 294.961 260.727 294.096 260.727 293.148V291.961H262.328V293.148ZM268.938 299.547H266.953V291.203H268.938V299.547ZM264.078 299.922C265.094 299.922 265.969 300.029 266.703 300.242C267.438 300.456 268 300.771 268.391 301.188C268.787 301.604 268.985 302.104 268.985 302.688C268.985 303.26 268.787 303.755 268.391 304.172C268 304.589 267.438 304.904 266.703 305.117C265.969 305.331 265.094 305.438 264.078 305.438C263.073 305.438 262.203 305.331 261.469 305.117C260.74 304.904 260.177 304.589 259.782 304.172C259.391 303.755 259.196 303.26 259.196 302.688C259.196 302.104 259.391 301.604 259.782 301.188C260.177 300.771 260.74 300.456 261.469 300.242C262.203 300.029 263.073 299.922 264.078 299.922ZM264.078 301.461C263.453 301.461 262.925 301.505 262.493 301.594C262.06 301.682 261.732 301.818 261.508 302C261.284 302.182 261.172 302.411 261.172 302.688C261.172 302.943 261.284 303.161 261.508 303.344C261.732 303.521 262.06 303.656 262.493 303.75C262.925 303.844 263.453 303.891 264.078 303.891C264.719 303.891 265.256 303.844 265.688 303.75C266.12 303.656 266.446 303.521 266.664 303.344C266.883 303.161 266.993 302.943 266.993 302.688C266.993 302.411 266.883 302.182 266.664 302C266.446 301.818 266.12 301.682 265.688 301.594C265.256 301.505 264.719 301.461 264.078 301.461ZM267.227 295.453H264.282V293.828H267.227V295.453ZM276.868 300.078C277.909 300.078 278.808 300.182 279.563 300.391C280.324 300.599 280.909 300.906 281.321 301.312C281.738 301.714 281.946 302.198 281.946 302.766C281.946 303.318 281.738 303.794 281.321 304.195C280.909 304.596 280.321 304.904 279.555 305.117C278.795 305.331 277.899 305.438 276.868 305.438C275.847 305.438 274.956 305.331 274.196 305.117C273.436 304.904 272.847 304.596 272.43 304.195C272.014 303.794 271.805 303.318 271.805 302.766C271.805 302.203 272.011 301.719 272.423 301.312C272.834 300.906 273.42 300.599 274.18 300.391C274.946 300.182 275.842 300.078 276.868 300.078ZM276.868 301.555C276.212 301.555 275.654 301.602 275.196 301.695C274.743 301.784 274.394 301.919 274.149 302.102C273.909 302.279 273.79 302.5 273.79 302.766C273.79 303.021 273.909 303.234 274.149 303.406C274.394 303.578 274.743 303.708 275.196 303.797C275.654 303.88 276.212 303.922 276.868 303.922C277.529 303.922 278.089 303.88 278.548 303.797C279.006 303.708 279.355 303.576 279.594 303.398C279.839 303.221 279.962 303.01 279.962 302.766C279.962 302.5 279.839 302.279 279.594 302.102C279.355 301.919 279.006 301.784 278.548 301.695C278.089 301.602 277.529 301.555 276.868 301.555ZM281.024 293.422H271.946V291.852H281.024V293.422ZM283.407 299.18H270.493V297.57H283.407V299.18ZM277.305 298H275.329V295.078H277.305V298ZM281.876 293.016C281.876 293.786 281.852 294.453 281.805 295.016C281.764 295.573 281.652 296.177 281.469 296.828L279.508 296.633C279.67 295.997 279.771 295.43 279.813 294.93C279.855 294.424 279.878 293.828 279.883 293.141V293.016V291.852H281.876V293.016Z" fill="white"/>
</svg>
