<svg width="27" height="28" viewBox="0 0 27 28" fill="none" xmlns="http://www.w3.org/2000/svg">
<path d="M6.66634 3.66663H3.99967C3.29243 3.66663 2.61415 3.94758 2.11406 4.44767C1.61396 4.94777 1.33301 5.62605 1.33301 6.33329V22.3333C1.33301 23.0405 1.61396 23.7188 2.11406 24.2189C2.61415 24.719 3.29243 25 3.99967 25H11.5957M19.9997 15.6666V21H25.333M19.9997 11.6666V6.33329C19.9997 5.62605 19.7187 4.94777 19.2186 4.44767C18.7185 3.94758 18.0403 3.66663 17.333 3.66663H14.6663" stroke="#24252E" stroke-width="2" stroke-linecap="round" stroke-linejoin="round"/>
<path d="M6.66602 11.6667H11.9993M6.66602 17H10.666M6.66602 3.66667C6.66602 2.95942 6.94697 2.28115 7.44706 1.78105C7.94716 1.28095 8.62544 1 9.33268 1H11.9993C12.7066 1 13.3849 1.28095 13.885 1.78105C14.3851 2.28115 14.666 2.95942 14.666 3.66667C14.666 4.37391 14.3851 5.05219 13.885 5.55229C13.3849 6.05238 12.7066 6.33333 11.9993 6.33333H9.33268C8.62544 6.33333 7.94716 6.05238 7.44706 5.55229C6.94697 5.05219 6.66602 4.37391 6.66602 3.66667ZM14.666 21C14.666 22.4145 15.2279 23.771 16.2281 24.7712C17.2283 25.7714 18.5849 26.3333 19.9993 26.3333C21.4138 26.3333 22.7704 25.7714 23.7706 24.7712C24.7708 23.771 25.3327 22.4145 25.3327 21C25.3327 19.5855 24.7708 18.229 23.7706 17.2288C22.7704 16.2286 21.4138 15.6667 19.9993 15.6667C18.5849 15.6667 17.2283 16.2286 16.2281 17.2288C15.2279 18.229 14.666 19.5855 14.666 21Z" stroke="#24252E" stroke-width="2" stroke-linecap="round" stroke-linejoin="round"/>
</svg>
