<svg width="32" height="32" viewBox="0 0 32 32" fill="none" xmlns="http://www.w3.org/2000/svg">
<mask id="path-1-outside-1_3808_2416" maskUnits="userSpaceOnUse" x="1" y="2" width="30" height="29" fill="black">
<rect fill="white" x="1" y="2" width="30" height="29"/>
<path fill-rule="evenodd" clip-rule="evenodd" d="M5 4C3.89543 4 3 4.89543 3 6V21C3 22.1046 3.89543 23 5 23H10V27.7929C10 28.2383 10.5386 28.4614 10.8536 28.1464L16 23H27C28.1046 23 29 22.1046 29 21V6C29 4.89543 28.1046 4 27 4H5Z"/>
</mask>
<path d="M10 23H12V21H10V23ZM10.8536 28.1464L9.43934 26.7322L9.43934 26.7322L10.8536 28.1464ZM16 23V21H15.1716L14.5858 21.5858L16 23ZM5 6V6V2C2.79086 2 1 3.79086 1 6H5ZM5 21V6H1V21H5ZM5 21H5H1C1 23.2091 2.79086 25 5 25V21ZM10 21H5V25H10V21ZM12 27.7929V23H8V27.7929H12ZM9.43934 26.7322C10.3843 25.7873 12 26.4565 12 27.7929H8C8 30.0201 10.6929 31.1356 12.2678 29.5607L9.43934 26.7322ZM14.5858 21.5858L9.43934 26.7322L12.2678 29.5607L17.4142 24.4142L14.5858 21.5858ZM27 21H16V25H27V21ZM27 21V25C29.2091 25 31 23.2091 31 21H27ZM27 6V21H31V6H27ZM27 6H31C31 3.79086 29.2091 2 27 2V6ZM5 6H27V2H5V6Z" fill="#BFC3D5" mask="url(#path-1-outside-1_3808_2416)"/>
<circle cx="16" cy="10" r="3" fill="#BFC3D5"/>
<path d="M10 18C10 15.7909 11.7909 14 14 14H18C20.2091 14 22 15.7909 22 18C22 18.5523 21.5523 19 21 19H11C10.4477 19 10 18.5523 10 18Z" fill="#BFC3D5"/>
</svg>
