<svg width="179" height="109" viewBox="0 0 179 109" fill="none" xmlns="http://www.w3.org/2000/svg">
<rect opacity="0.5" width="179" height="109" fill="white"/>
<mask id="mask0_2230_28428" style="mask-type:alpha" maskUnits="userSpaceOnUse" x="32" y="24" width="57" height="57">
<rect x="32" y="24" width="57" height="57" rx="5" fill="#00A861"/>
</mask>
<g mask="url(#mask0_2230_28428)">
<path d="M60.3033 81C60.3033 77.2315 59.561 73.4999 58.1189 70.0183C56.6767 66.5367 54.563 63.3732 51.8982 60.7085C49.2335 58.0438 46.07 55.93 42.5884 54.4878C39.1068 53.0457 35.3752 52.3035 31.6067 52.3035L31.6067 81H60.3033Z" fill="#475FFD"/>
<path d="M60.3033 23.6069C60.3033 27.3754 59.561 31.107 58.1189 34.5886C56.6767 38.0702 54.563 41.2337 51.8982 43.8984C49.2335 46.5631 46.07 48.6769 42.5884 50.1191C39.1068 51.5612 35.3752 52.3035 31.6067 52.3035L31.6067 23.6069H60.3033Z" fill="#475FFD"/>
<path d="M60.6967 81C60.6967 77.2315 61.439 73.4999 62.8811 70.0183C64.3233 66.5367 66.437 63.3732 69.1018 60.7085C71.7665 58.0438 74.93 55.93 78.4116 54.4878C81.8932 53.0457 85.6248 52.3035 89.3933 52.3035L89.3933 81H60.6967Z" fill="#475FFD"/>
<path d="M60.6967 81C60.6967 77.2315 61.439 73.4999 62.8811 70.0183C64.3233 66.5367 66.437 63.3732 69.1018 60.7085C71.7665 58.0438 74.93 55.93 78.4116 54.4878C81.8932 53.0457 85.6248 52.3035 89.3933 52.3035L89.3933 81H60.6967Z" fill="#475FFD"/>
<path d="M60.6967 23.6069C60.6967 27.3754 61.439 31.107 62.8811 34.5886C64.3233 38.0702 66.437 41.2337 69.1018 43.8984C71.7665 46.5631 74.93 48.6769 78.4116 50.1191C81.8932 51.5612 85.6248 52.3035 89.3933 52.3035L89.3933 23.6069H60.6967Z" fill="#475FFD"/>
</g>
<path d="M120 52.5C120 48.7573 119.263 45.0513 117.831 41.5935C116.398 38.1357 114.299 34.9939 111.653 32.3475C109.006 29.701 105.864 27.6017 102.406 26.1694C98.9487 24.7372 95.2427 24 91.5 24L91.5 52.5H120Z" fill="#11D796"/>
<path d="M123 80.5C123 76.7573 123.724 73.0513 125.131 69.5935C126.539 66.1357 128.601 62.9939 131.201 60.3475C133.801 57.701 136.888 55.6017 140.285 54.1694C143.682 52.7372 147.323 52 151 52L151 80.5H123Z" fill="#11D796"/>
<path d="M151 52.5C151 48.7573 150.263 45.0513 148.831 41.5935C147.398 38.1357 145.299 34.9939 142.653 32.3475C140.006 29.701 136.864 27.6017 133.406 26.1694C129.949 24.7372 126.243 24 122.5 24L122.5 52.5H151Z" fill="#11D796"/>
</svg>
