<svg width="27" height="23" viewBox="0 0 27 23" fill="none" xmlns="http://www.w3.org/2000/svg">
<circle cx="9.5" cy="4.5" r="3.5" fill="white" stroke="#24252E" stroke-width="2" stroke-linecap="round"/>
<mask id="path-2-inside-1_1333_7234" fill="white">
<path d="M0 21C0 15.4772 4.47715 11 10 11V11C15.5228 11 20 15.4772 20 21V22C20 22.5523 19.5523 23 19 23H1C0.447716 23 0 22.5523 0 22V21Z"/>
</mask>
<path d="M0 21C0 15.4772 4.47715 11 10 11V11C15.5228 11 20 15.4772 20 21V22C20 22.5523 19.5523 23 19 23H1C0.447716 23 0 22.5523 0 22V21Z" fill="white" stroke="#24252E" stroke-width="4" mask="url(#path-2-inside-1_1333_7234)"/>
<path fill-rule="evenodd" clip-rule="evenodd" d="M14.5 8.53224C15.1025 8.83165 15.7816 9 16.5 9C18.9853 9 21 6.98528 21 4.5C21 2.01472 18.9853 0 16.5 0C15.7816 0 15.1025 0.168353 14.5 0.46776C15.2104 0.820789 15.8142 1.35602 16.2504 2.0123C16.3325 2.00417 16.4158 2 16.5 2C17.8807 2 19 3.11929 19 4.5C19 5.88071 17.8807 7 16.5 7C16.4158 7 16.3325 6.99583 16.2504 6.9877C15.8142 7.64398 15.2104 8.17921 14.5 8.53224ZM22 23H26.0909C26.593 23 27 22.5116 27 21.9091C27 15.8842 22.9299 11 17.9091 11H16.3641C17.6849 11.6416 18.8432 12.5654 19.7607 13.693C22.4371 14.5595 24.4867 17.2589 24.9166 20.6H22V23Z" fill="#24252E"/>
</svg>
