<svg width="45" height="22" viewBox="0 0 45 22" fill="none" xmlns="http://www.w3.org/2000/svg">
<rect width="45" height="22" rx="8" fill="#EEF0F8"/>
<path opacity="0.8" d="M21.0869 4.92578V12.1035H19.7881V11.5156H17.3955V10.6953H19.7881V4.92578H21.0869ZM10.874 9.4375C13.2461 9.44434 16.2402 9.41699 18.8857 9.13672L18.9541 9.9707C17.7988 10.1348 16.5957 10.2305 15.4268 10.292V12.1309H14.1416V10.3398C13.041 10.374 11.9814 10.374 11.0244 10.3672L10.874 9.4375ZM11.79 6.97656C11.7832 5.85547 12.9932 5.13086 14.8525 5.13086C16.6777 5.13086 17.9014 5.85547 17.915 6.97656C17.9014 8.11816 16.6777 8.80859 14.8525 8.80859C12.9932 8.80859 11.7832 8.11816 11.79 6.97656ZM12.7061 13.416V12.5137H21.0869V15.1523H14.0322V16.0957H21.4561V17.0391H12.7607V14.291H19.8018V13.416H12.7061ZM13.0068 6.97656C13 7.55762 13.7246 7.93359 14.8525 7.93359C15.9668 7.93359 16.6846 7.55762 16.6846 6.97656C16.6846 6.38867 15.9668 6.00586 14.8525 6.00586C13.7246 6.00586 13 6.38867 13.0068 6.97656Z" fill="#6E707B"/>
<path d="M27 9L31 13L35 9" stroke="#BFC3D5" stroke-width="1.5" stroke-linecap="round" stroke-linejoin="round"/>
</svg>
