<svg width="49" height="30" viewBox="0 0 49 30" fill="none" xmlns="http://www.w3.org/2000/svg">
<rect width="49" height="30" rx="8" fill="#EEF0F8"/>
<path opacity="0.8" d="M23.0869 8.92578V16.1035H21.7881V15.5156H19.3955V14.6953H21.7881V8.92578H23.0869ZM12.874 13.4375C15.2461 13.4443 18.2402 13.417 20.8857 13.1367L20.9541 13.9707C19.7988 14.1348 18.5957 14.2305 17.4268 14.292V16.1309H16.1416V14.3398C15.041 14.374 13.9814 14.374 13.0244 14.3672L12.874 13.4375ZM13.79 10.9766C13.7832 9.85547 14.9932 9.13086 16.8525 9.13086C18.6777 9.13086 19.9014 9.85547 19.915 10.9766C19.9014 12.1182 18.6777 12.8086 16.8525 12.8086C14.9932 12.8086 13.7832 12.1182 13.79 10.9766ZM14.7061 17.416V16.5137H23.0869V19.1523H16.0322V20.0957H23.4561V21.0391H14.7607V18.291H21.8018V17.416H14.7061ZM15.0068 10.9766C15 11.5576 15.7246 11.9336 16.8525 11.9336C17.9668 11.9336 18.6846 11.5576 18.6846 10.9766C18.6846 10.3887 17.9668 10.0059 16.8525 10.0059C15.7246 10.0059 15 10.3887 15.0068 10.9766Z" fill="#6E707B"/>
<path d="M29 13L33 17L37 13" stroke="#BFC3D5" stroke-width="1.5" stroke-linecap="round" stroke-linejoin="round"/>
</svg>
