<svg width="20" height="20" viewBox="0 0 20 20" fill="none" xmlns="http://www.w3.org/2000/svg">
<path d="M11.3332 17.5639L15.8832 14.9372C16.3699 14.6564 16.6124 14.5164 16.789 14.3206C16.9454 14.1471 17.0635 13.9426 17.1357 13.7206C17.2165 13.4697 17.2165 13.1897 17.2165 12.6314V7.36973C17.2165 6.8114 17.2165 6.5314 17.1349 6.28057C17.0626 6.05849 16.9445 5.85407 16.7882 5.68057C16.6132 5.48557 16.3715 5.34557 15.889 5.06723L11.3332 2.43723C10.8474 2.1564 10.6049 2.0164 10.3465 1.96223C10.118 1.91363 9.88176 1.91363 9.6532 1.96223C9.39487 2.0164 9.15237 2.1564 8.66654 2.43723L4.11487 5.06473C3.62987 5.34473 3.38737 5.48473 3.21154 5.68057C3.05522 5.85407 2.93711 6.05849 2.86487 6.28057C2.7832 6.53223 2.7832 6.81223 2.7832 7.37307V12.6272C2.7832 13.1881 2.7832 13.4689 2.86487 13.7197C2.93711 13.9418 3.05522 14.1462 3.21154 14.3197C3.38737 14.5164 3.6307 14.6564 4.1157 14.9364L8.6657 17.5639C9.15237 17.8447 9.39487 17.9847 9.6532 18.0389C9.88154 18.0881 10.1182 18.0881 10.3465 18.0389C10.6049 17.9847 10.8474 17.8447 11.3332 17.5639Z" stroke="#BFC3D5" stroke-width="2" stroke-linecap="round" stroke-linejoin="round"/>
<path d="M7.5 10C7.5 10.663 7.76339 11.2989 8.23223 11.7678C8.70107 12.2366 9.33696 12.5 10 12.5C10.663 12.5 11.2989 12.2366 11.7678 11.7678C12.2366 11.2989 12.5 10.663 12.5 10C12.5 9.33696 12.2366 8.70107 11.7678 8.23223C11.2989 7.76339 10.663 7.5 10 7.5C9.33696 7.5 8.70107 7.76339 8.23223 8.23223C7.76339 8.70107 7.5 9.33696 7.5 10Z" stroke="#BFC3D5" stroke-width="2" stroke-linecap="round" stroke-linejoin="round"/>
</svg>
