<svg width="384" height="448" viewBox="0 0 384 448" fill="none" xmlns="http://www.w3.org/2000/svg">
<path d="M125 191C125 182.333 123.383 173.75 120.242 165.743C117.102 157.735 112.498 150.46 106.694 144.331C100.891 138.202 94.0006 133.341 86.4177 130.024C78.8349 126.707 70.7076 125 62.5 125L62.5 191H125Z" fill="#11D796"/>
<path d="M314 382C314 373.333 312.383 364.75 309.242 356.743C306.102 348.735 301.498 341.46 295.694 335.331C289.891 329.202 283.001 324.341 275.418 321.024C267.835 317.707 259.708 316 251.5 316L251.5 382H314Z" fill="#11D796"/>
<path d="M125 190C125 198.273 123.383 206.466 120.242 214.109C117.102 221.753 112.498 228.698 106.694 234.548C100.891 240.398 94.0006 245.038 86.4177 248.204C78.8349 251.37 70.7076 253 62.5 253L62.5 190H125Z" fill="#11D796"/>
<path d="M251 316C251 307.727 249.383 299.534 246.242 291.891C243.102 284.247 238.498 277.302 232.694 271.452C226.891 265.602 220.001 260.962 212.418 257.796C204.835 254.63 196.708 253 188.5 253L188.5 316H251Z" fill="#11D796"/>
<path d="M377 316.5C377 308.292 375.383 300.165 372.242 292.582C369.102 284.999 364.498 278.109 358.694 272.306C352.891 266.502 346.001 261.898 338.418 258.758C330.835 255.617 322.708 254 314.5 254L314.5 316.5H377Z" fill="#11D796"/>
<path d="M377 189.5C377 181.292 375.383 173.165 372.242 165.582C369.102 157.999 364.498 151.109 358.694 145.306C352.891 139.502 346.001 134.898 338.418 131.758C330.835 128.617 322.708 127 314.5 127L314.5 189.5H377Z" fill="#11D796"/>
<path d="M314 126C314 134.273 312.383 142.466 309.242 150.109C306.102 157.753 301.498 164.698 295.694 170.548C289.891 176.398 283.001 181.038 275.418 184.204C267.835 187.37 259.708 189 251.5 189L251.5 126H314Z" fill="#11D796"/>
<path d="M125 191C125 182.333 126.63 173.75 129.796 165.743C132.962 157.735 137.602 150.46 143.452 144.331C149.302 138.202 156.247 133.341 163.891 130.024C171.534 126.707 179.727 125 188 125L188 191H125Z" fill="#11D796"/>
<path d="M314 382C314 373.333 315.63 364.75 318.796 356.743C321.962 348.735 326.602 341.46 332.452 335.331C338.302 329.202 345.247 324.341 352.891 321.024C360.534 317.707 368.727 316 377 316L377 382H314Z" fill="#11D796"/>
<path d="M125 62.5C125 70.7076 126.63 78.8349 129.796 86.4177C132.962 94.0006 137.602 100.891 143.452 106.694C149.302 112.498 156.247 117.102 163.891 120.242C171.534 123.383 179.727 125 188 125L188 62.5H125Z" fill="#11D796"/>
<path d="M189 62C197.142 62 205.204 63.6166 212.726 66.7575C220.249 69.8984 227.083 74.5022 232.841 80.3058C238.598 86.1095 243.165 92.9994 246.281 100.582C249.396 108.165 251 116.292 251 124.5L189 124.5L189 62Z" fill="#11D796"/>
<path d="M251 62C259.142 62 267.204 63.6166 274.726 66.7575C282.249 69.8984 289.083 74.5022 294.841 80.3058C300.598 86.1095 305.165 92.9994 308.281 100.582C311.396 108.165 313 116.292 313 124.5L251 124.5L251 62Z" fill="#11D796"/>
<path d="M126 62.5C126 70.7076 124.37 78.8349 121.204 86.4177C118.038 94.0006 113.398 100.891 107.548 106.694C101.698 112.498 94.7526 117.102 87.1091 120.242C79.4655 123.383 71.2733 125 63 125L63 62.5H126Z" fill="#11D796"/>
<path d="M251 190.5C251 198.708 249.37 206.835 246.204 214.418C243.038 222.001 238.398 228.891 232.548 234.694C226.698 240.498 219.753 245.102 212.109 248.242C204.466 251.383 196.273 253 188 253L188 190.5H251Z" fill="#11D796"/>
<path opacity="0.3" d="M0 190.5C0 198.708 1.61661 206.835 4.75753 214.418C7.89845 222.001 12.5022 228.891 18.3058 234.694C24.1095 240.498 30.9994 245.102 38.5823 248.242C46.1651 251.383 54.2924 253 62.5 253L62.5 190.5H0Z" fill="#11D796"/>
<path d="M1 315.5C1 307.292 2.61661 299.165 5.75753 291.582C8.89845 283.999 13.5022 277.109 19.3058 271.306C25.1095 265.502 31.9994 260.898 39.5823 257.758C47.1651 254.617 55.2924 253 63.5 253L63.5 315.5H1Z" fill="#11D796"/>
<path opacity="0.3" d="M126 316.5C126 308.292 127.617 300.165 130.758 292.582C133.898 284.999 138.502 278.109 144.306 272.306C150.109 266.502 156.999 261.898 164.582 258.758C172.165 255.617 180.292 254 188.5 254L188.5 316.5H126Z" fill="#11D796"/>
<path d="M251 315C251 323.273 249.383 331.466 246.242 339.109C243.102 346.753 238.498 353.698 232.694 359.548C226.891 365.398 220.001 370.038 212.418 373.204C204.835 376.37 196.708 378 188.5 378L188.5 315H251Z" fill="#11D796"/>
<path opacity="0.3" d="M126 316.5C126 324.708 127.617 332.835 130.758 340.418C133.898 348.001 138.502 354.891 144.306 360.694C150.109 366.498 156.999 371.102 164.582 374.242C172.165 377.383 180.292 379 188.5 379L188.5 316.5H126Z" fill="#11D796"/>
<path opacity="0.3" d="M126 316.5C126 324.708 124.383 332.835 121.242 340.418C118.102 348.001 113.498 354.891 107.694 360.694C101.891 366.498 95.0006 371.102 87.4177 374.242C79.8349 377.383 71.7076 379 63.5 379L63.5 316.5H126Z" fill="#11D796"/>
<path opacity="0.3" d="M375 63.5C375 71.7076 373.383 79.8349 370.242 87.4177C367.102 95.0006 362.498 101.891 356.694 107.694C350.891 113.498 344.001 118.102 336.418 121.242C328.835 124.383 320.708 126 312.5 126L312.5 63.5H375Z" fill="#11D796"/>
<path opacity="0.3" d="M252 317C252 308.858 253.617 300.796 256.758 293.274C259.898 285.751 264.502 278.917 270.306 273.159C276.109 267.402 282.999 262.835 290.582 259.719C298.165 256.604 306.292 255 314.5 255L314.5 317H252Z" fill="#11D796"/>
<path d="M377 190.5C377 198.708 375.383 206.835 372.242 214.418C369.102 222.001 364.498 228.891 358.694 234.694C352.891 240.498 346.001 245.102 338.418 248.242C330.835 251.383 322.708 253 314.5 253L314.5 190.5H377Z" fill="#11D796"/>
<path opacity="0.3" d="M252 190C252 198.142 253.617 206.204 256.758 213.726C259.898 221.249 264.502 228.083 270.306 233.841C276.109 239.598 282.999 244.165 290.582 247.281C298.165 250.396 306.292 252 314.5 252L314.5 190H252Z" fill="#11D796"/>
<path opacity="0.3" d="M188 126.5C188 134.708 189.617 142.835 192.758 150.418C195.898 158.001 200.502 164.891 206.306 170.694C212.109 176.498 218.999 181.102 226.582 184.242C234.165 187.383 242.292 189 250.5 189L250.5 126.5H188Z" fill="#11D796"/>
</svg>
