<svg width="20" height="20" viewBox="0 0 20 20" fill="none" xmlns="http://www.w3.org/2000/svg">
<mask id="mask0_1691_16814" style="mask-type:alpha" maskUnits="userSpaceOnUse" x="0" y="0" width="20" height="20">
<rect width="20" height="20" rx="10" fill="#BFC3D5"/>
</mask>
<g mask="url(#mask0_1691_16814)">
<path d="M10 20.5C10 19.1211 9.74134 17.7557 9.2388 16.4818C8.73625 15.2079 7.99965 14.0504 7.07107 13.0754C6.14248 12.1004 5.04009 11.3269 3.82683 10.7993C2.61358 10.2716 1.31322 10 0 10V20.5H10Z" fill="#BFC3D5"/>
<path d="M10 0C10 1.31322 9.74134 2.61358 9.2388 3.82683C8.73625 5.04009 7.99965 6.14248 7.07107 7.07107C6.14248 7.99965 5.04009 8.73625 3.82683 9.2388C2.61358 9.74134 1.31322 10 0 10V0H10Z" fill="#BFC3D5"/>
<path d="M10 20.5C10 19.1211 10.2587 17.7557 10.7612 16.4818C11.2638 15.2079 12.0003 14.0504 12.9289 13.0754C13.8575 12.1004 14.9599 11.3269 16.1732 10.7993C17.3864 10.2716 18.6868 10 20 10V20.5H10Z" fill="#BFC3D5"/>
<path d="M10 0C10 1.31322 10.2587 2.61358 10.7612 3.82683C11.2638 5.04009 12.0003 6.14248 12.9289 7.07107C13.8575 7.99965 14.9599 8.73625 16.1732 9.2388C17.3864 9.74134 18.6868 10 20 10V0H10Z" fill="#BFC3D5"/>
</g>
</svg>
